<svg height="56.693" width="56.693" xmlns="http://www.w3.org/2000/svg" fill="#313233"><path d="M29.403 29.899c.199-.066.4-.125.602-.184a52.352 52.352 0 00-1.238-2.594c-7.859 2.354-15.4 2.184-15.67 2.174-.005.164-.013.322-.013.486 0 3.922 1.479 7.496 3.911 10.199l-.006-.008s4.178-7.409 12.414-10.073zm-1.902-5.127c-2.641-4.694-5.463-8.524-5.666-8.795a15.28 15.28 0 00-8.424 10.659c.402.004 6.762.084 14.09-1.864zm10.926-6.445a15.196 15.196 0 00-10.08-3.807c-1.24 0-2.443.15-3.598.428.23.307 3.098 4.111 5.707 8.905 5.76-2.161 7.934-5.47 7.971-5.526zm-13.735-3.364a.158.158 0 00-.051.012l.047-.012h.004zm-5.727 26.85l.003-.006c-.113-.088-.233-.168-.344-.262.203.165.341.268.341.268zM31.63 26.126a50.72 50.72 0 011.016 2.213c.111.268.221.529.328.791 5.244-.66 10.41.451 10.631.496a15.194 15.194 0 00-3.471-9.54c-.03.041-2.477 3.579-8.504 6.04z"/><path d="M30.944 32.278c-9.008 3.141-11.948 9.469-11.976 9.529a15.187 15.187 0 009.378 3.236c2.113 0 4.127-.43 5.959-1.209-.227-1.334-1.113-6.008-3.262-11.59-.032.013-.065.023-.099.034z"/><path d="M28.347 5.157c-13.6 0-24.625 11.027-24.625 24.625 0 13.6 11.024 24.623 24.625 24.623 13.6 0 24.625-11.023 24.625-24.623 0-13.598-11.026-24.625-24.625-24.625zm16.466 31.582a17.94 17.94 0 01-9.51 9.51 17.926 17.926 0 01-13.914 0 18.02 18.02 0 01-3.038-1.648 18.232 18.232 0 01-2.643-2.182 17.888 17.888 0 01-4.873-9.039 18.123 18.123 0 010-7.196 17.86 17.86 0 012.691-6.397 18.044 18.044 0 012.182-2.645 17.889 17.889 0 015.681-3.83 17.661 17.661 0 013.357-1.041 18.07 18.07 0 017.2 0 17.706 17.706 0 016.394 2.691 17.992 17.992 0 014.825 4.825 17.628 17.628 0 011.648 3.038 17.891 17.891 0 011.041 10.555 17.609 17.609 0 01-1.041 3.359z"/><path d="M33.905 31.538c2.002 5.502 2.814 9.982 2.971 10.902a15.264 15.264 0 006.539-10.238c-.314-.101-4.584-1.453-9.51-.664z"/></svg>