<svg viewBox="0 0 32 32" xmlns="http://www.w3.org/2000/svg" fill="#525961"><path d="M16.592 16.065c.111-.036.226-.07.337-.103a27.943 27.943 0 00-.695-1.454c-4.407 1.319-8.635 1.224-8.787 1.219-.002.092-.006.181-.006.273 0 2.199.829 4.204 2.193 5.718-.003-.003 2.339-4.159 6.958-5.653zm5.06-6.488A8.515 8.515 0 0016 7.442c-.696 0-1.37.084-2.016.24.128.173 1.735 2.305 3.2 4.992 3.228-1.211 4.447-3.066 4.468-3.097zM17.456 17.4c-5.05 1.76-6.699 5.308-6.717 5.346a8.542 8.542 0 008.602 1.133c-.126-.748-.624-3.369-1.828-6.499a.645.645 0 01-.057.02zm-1.929-4.209a51.553 51.553 0 00-3.179-4.932 8.572 8.572 0 00-4.724 5.977c.226.001 3.793.046 7.903-1.045zm2.314.759a27.223 27.223 0 01.755 1.684c2.941-.37 5.837.252 5.961.278a8.52 8.52 0 00-1.947-5.348c-.016.022-1.39 2.005-4.769 3.386zm1.276 3.034c1.123 3.085 1.578 5.597 1.666 6.114a8.56 8.56 0 003.667-5.741c-.176-.057-2.571-.815-5.333-.373z"/><path d="M16 0C7.164 0 0 7.164 0 16s7.164 16 16 16 16-7.164 16-16S24.836 0 16 0zm9.818 18.017a10.042 10.042 0 01-.584 1.883 10.089 10.089 0 01-3.63 4.408c-.535.361-1.109.671-1.702.923a10.075 10.075 0 01-3.9.789 10.113 10.113 0 01-3.901-.789 10.186 10.186 0 01-1.703-.923 10.28 10.28 0 01-1.482-1.223A10.076 10.076 0 016.768 19.9a9.994 9.994 0 01-.79-3.9 9.927 9.927 0 011.713-5.604 10.106 10.106 0 012.705-2.706 9.988 9.988 0 013.586-1.51 10.15 10.15 0 014.036.001 9.91 9.91 0 013.584 1.51c.53.359 1.03.77 1.483 1.222a10.089 10.089 0 012.147 3.186 10.078 10.078 0 01.586 5.918z"/></svg>