<?xml version="1.0" standalone="no"?>
<!DOCTYPE svg PUBLIC "-//W3C//DTD SVG 20010904//EN"
 "http://www.w3.org/TR/2001/REC-SVG-20010904/DTD/svg10.dtd">
<svg version="1.0" xmlns="http://www.w3.org/2000/svg"
 width="128.000000pt" height="128.000000pt" viewBox="0 0 128.000000 128.000000"
 preserveAspectRatio="xMidYMid meet">
<metadata>
Created by potrace 1.11, written by Peter Selinger 2001-2013
</metadata>
<g transform="translate(0.000000,128.000000) scale(0.100000,-0.100000)"
fill="#000000" stroke="none">
<path d="M408 1240 c-12 -18 -24 -20 -135 -20 -115 0 -123 -1 -137 -22 -9 -12
-16 -30 -16 -40 0 -14 -8 -18 -34 -18 -57 0 -66 -23 -66 -173 0 -101 3 -133
16 -152 9 -14 23 -25 30 -25 12 0 14 -52 14 -305 0 -262 -2 -305 -15 -305 -27
0 -46 -45 -43 -102 l3 -53 615 0 615 0 3 53 c3 57 -16 102 -43 102 -13 0 -15
43 -15 304 0 295 1 304 20 309 31 8 40 49 40 180 0 143 -9 167 -66 167 -26 0
-34 4 -34 18 0 10 -7 28 -16 40 -14 21 -22 22 -137 22 -111 0 -123 2 -135 20
-12 19 -23 20 -232 20 -209 0 -220 -1 -232 -20z"/>
</g>
</svg>
