<svg height="1024" width="1024" xmlns="http://www.w3.org/2000/svg"><path clip-rule="evenodd" d="M858.635 127.453c-49.299 49.546-97.781 98.267-146.936 147.663-11.119-6.811-22.859-14.209-34.797-21.273-46.324-27.406-96.166-43.287-150.209-43.631-141.813-.901-260.878 93.787-296.141 231.114-44.047 171.536 77.662 347.985 249.249 369.973 84.666 10.848 163.689-3.427 233.406-55.129 43.611-32.343 77.666-90.102 83.33-138.467H525.553V420.671c4.699-.388 9.633-1.143 14.568-1.149 147.889-.2 295.779-.336 443.668-.448 15.037-.012 17.688 1.946 20.238 19.312 22.609 153.943-8.84 294.913-107.959 416.283-76.135 93.228-177.279 147.09-296.195 163.61-141.08 19.603-271.29-10.724-385.26-98.115C99.733 832.082 33.317 714.739 16.522 570.923c-26.011-222.73 93.896-437.394 298.999-524.667C508.525-35.869 689.516-7.785 853.74 123.708c1.838 1.471 3.739 2.861 4.895 3.745z" fill-rule="evenodd" fill="#fff"/></svg>