<svg height="512" width="512" xmlns="http://www.w3.org/2000/svg"><path d="M257.338 166.245c16.297 0 29.52-13.223 29.52-29.52 0-16.317-13.223-29.501-29.52-29.501-16.298 0-29.52 13.185-29.52 29.501 0 16.297 13.222 29.52 29.52 29.52zm20.045 39.36v-19.68h-59.04v19.68h19.68v167.28h-19.68v19.68h78.72v-19.68h-19.68z" fill="#37404D"/><path d="M256.108 9.65c-135.857 0-246 110.143-246 246 0 135.877 110.143 246 246 246s246-110.123 246-246c0-135.857-110.142-246-246-246zm0 472.32c-124.797 0-226.32-101.533-226.32-226.32S131.312 29.33 256.108 29.33c124.797 0 226.32 101.533 226.32 226.32s-101.523 226.32-226.32 226.32z" fill="#081638"/></svg>