<svg xmlns="http://www.w3.org/2000/svg" width="474.821" height="496.002"><path d="M468.756 307.601l-42.6-24.6a192.622 192.622 0 000-70.2l42.6-24.6a12.085 12.085 0 005.5-14 249.058 249.058 0 00-54.7-94.6 12.033 12.033 0 00-14.8-2.3l-42.6 24.6a188.725 188.725 0 00-60.8-35.1v-49.1a11.981 11.981 0 00-9.4-11.7 251.393 251.393 0 00-109.2 0 11.981 11.981 0 00-9.4 11.7v49.2a194.681 194.681 0 00-60.8 35.1l-42.5-24.6a11.881 11.881 0 00-14.8 2.3 247.56 247.56 0 00-54.7 94.6 11.962 11.962 0 005.5 14l42.6 24.6a192.622 192.622 0 000 70.2l-42.6 24.6a12.085 12.085 0 00-5.5 14 249.057 249.057 0 0054.7 94.6 12.033 12.033 0 0014.8 2.3l42.6-24.6a188.725 188.725 0 0060.8 35.1v49.2a11.981 11.981 0 009.4 11.7 251.393 251.393 0 00109.2 0 11.981 11.981 0 009.4-11.7v-49.2a194.68 194.68 0 0060.8-35.1l42.6 24.6a11.882 11.882 0 0014.8-2.3 247.56 247.56 0 0054.7-94.6 12.35 12.35 0 00-5.6-14.1zm-231.4 20.3a80 80 0 1180-80 80.106 80.106 0 01-80 80z" fill="#709dca"/></svg>