<svg xmlns="http://www.w3.org/2000/svg" width="287.938" height="512"><path d="M209.164 233.4l-108-31.6a29.5 29.5 0 018.3-57.8h66.3a61.04 61.04 0 0134.2 10.5 15.589 15.589 0 0019.5-2l34.8-34c7.1-6.9 6.1-18.4-1.8-24.5a141.4 141.4 0 00-86.5-30V16a16.047 16.047 0 00-16-16h-32a16.047 16.047 0 00-16 16v48h-2.5a109.566 109.566 0 00-109 119.6c4.2 46.1 39.4 83.6 83.8 96.6l102.5 30a29.5 29.5 0 01-8.3 57.8h-66.3a61.04 61.04 0 01-34.2-10.5 15.589 15.589 0 00-19.5 2l-34.8 34c-7.1 6.9-6.1 18.4 1.8 24.5a141.4 141.4 0 0086.5 30v48a16.047 16.047 0 0016 16h32a16.047 16.047 0 0016-16v-48.2c46.6-.9 90.3-28.6 105.7-72.7 21.5-61.6-14.6-124.8-72.5-141.7z" fill="#709dca"/></svg>