<svg xmlns="http://www.w3.org/2000/svg" width="639.997" height="384.003"><path d="M622.335 89.203l-278.94-85.7a79.885 79.885 0 00-46.79 0l-278.95 85.7c-23.54 7.23-23.54 38.36 0 45.59l48.63 14.94a78.8 78.8 0 00-17.88 46.9c-9.63 5.52-16.41 15.48-16.41 27.37 0 10.78 5.68 19.85 13.86 25.65l-25.53 114.88a16 16 0 0015.61 19.47h56.11a16 16 0 0015.62-19.47l-25.53-114.88c8.18-5.8 13.86-14.87 13.86-25.65 0-11.57-6.47-21.25-15.66-26.87a47.174 47.174 0 0120.69-36.72l195.57 60.09a79.975 79.975 0 0046.79 0l278.95-85.7c23.55-7.24 23.55-38.36 0-45.6zm-269.55 161.89a111.944 111.944 0 01-65.59 0l-145.02-44.55-14.18 113.46c0 35.35 85.96 64 192 64s192-28.65 192-64l-14.18-113.47z" fill="#709dca"/></svg>