<svg xmlns="http://www.w3.org/2000/svg" width="512" height="512"><path d="M505.12 19.094c-1.189-5.531-6.658-11-12.207-12.187C460.716 0 435.507 0 410.407 0 307.175 0 245.269 55.2 199.052 128H94.838c-16.348.016-35.557 11.875-42.887 26.484L2.516 253.3A28.4 28.4 0 000 264a24.009 24.009 0 0024.006 24h103.81l-22.475 22.469c-11.365 11.361-13 32.258 0 45.25l50.9 50.906c11.156 11.188 32.156 13.156 45.277 0L224 384.156V488a24.009 24.009 0 0024 24 28.559 28.559 0 0010.707-2.516l98.728-49.391c14.629-7.3 26.508-26.5 26.508-42.859V312.8c72.6-46.312 128.035-108.406 128.035-211.094.097-25.206.097-50.406-6.858-82.612zM384.04 168a40 40 0 1140.01-40 40 40 0 01-40.01 40z" fill="#709dca"/></svg>