<?xml version="1.0" encoding="utf-8"?><svg viewBox="0 0 512 512" xmlns="http://www.w3.org/2000/svg" xmlns:xlink="http://www.w3.org/1999/xlink"><style>:root>svg{display:none}:root>svg:target{display:block}</style><svg viewBox="0 0 284.929 284.929" id="angle-arrow-down" xmlns="http://www.w3.org/2000/svg"><path d="M282.082 76.511l-14.274-14.273c-1.902-1.906-4.093-2.856-6.57-2.856-2.471 0-4.661.95-6.563 2.856L142.466 174.441 30.262 62.241c-1.903-1.906-4.093-2.856-6.567-2.856-2.475 0-4.665.95-6.567 2.856L2.856 76.515C.95 78.417 0 80.607 0 83.082c0 2.473.953 4.663 2.856 6.565l133.043 133.046c1.902 1.903 4.093 2.854 6.567 2.854s4.661-.951 6.562-2.854L282.082 89.647c1.902-1.903 2.847-4.093 2.847-6.565 0-2.475-.945-4.665-2.847-6.571z"/></svg><svg viewBox="0 0 329.269 329" id="close" xmlns="http://www.w3.org/2000/svg"><path d="M194.8 164.77L323.013 36.555c8.343-8.34 8.343-21.825 0-30.164-8.34-8.34-21.825-8.34-30.164 0L164.633 134.605 36.422 6.391c-8.344-8.34-21.824-8.34-30.164 0-8.344 8.34-8.344 21.824 0 30.164l128.21 128.215L6.259 292.984c-8.344 8.34-8.344 21.825 0 30.164a21.266 21.266 0 0015.082 6.25c5.46 0 10.922-2.09 15.082-6.25l128.21-128.214 128.216 128.214a21.273 21.273 0 0015.082 6.25c5.46 0 10.922-2.09 15.082-6.25 8.343-8.34 8.343-21.824 0-30.164zm0 0"/></svg><svg viewBox="0 0 12 21.03" id="down" xmlns="http://www.w3.org/2000/svg"><path class="ccls-1" d="M.307 15.72l4.983 5a.977.977 0 001.409 0l4.983-5a1 1 0 00-.7-1.71H6.995v-13a1 1 0 10-1.993 0v13H1.016a1 1 0 00-.709 1.71zm8.265.3L6 18.6l-2.578-2.58h5.155z"/></svg><svg viewBox="0 0 512 512" id="eye" xmlns="http://www.w3.org/2000/svg"><path d="M508.177 245.995C503.607 240.897 393.682 121 256 121S8.394 240.897 3.823 245.995a15.002 15.002 0 000 20.01C8.394 271.103 118.32 391 256 391s247.606-119.897 252.177-124.995a15.004 15.004 0 000-20.01zM256 361c-57.891 0-105-47.109-105-105s47.109-105 105-105 105 47.109 105 105-47.109 105-105 105z"/><path d="M271 226c0-15.09 7.491-28.365 18.887-36.53C279.661 184.235 268.255 181 256 181c-41.353 0-75 33.647-75 75s33.647 75 75 75c37.024 0 67.668-27.034 73.722-62.358C299.516 278.367 271 255.522 271 226z"/></svg><svg viewBox="0 0 512 512" id="filter" xmlns="http://www.w3.org/2000/svg"><path d="M90.5 0h-30v362h-30v90h30v60h30v-60h30v-90h-30zm361 362V0h-30v362h-30v90h30v60h30v-60h30v-90zM331.5 0h-30v222h-30v90h30v200h30V312h30v-90h-30zm-121 0h-30v53.652h-30v90h30V512h30V143.652h30v-90h-30z"/></svg><svg viewBox="0 0 512 512" id="left-arrow" xmlns="http://www.w3.org/2000/svg"><path d="M492 236H68.442l70.164-69.824c7.829-7.792 7.859-20.455.067-28.284-7.792-7.83-20.456-7.859-28.285-.068l-104.504 104-.018.019c-7.809 7.792-7.834 20.496-.002 28.314l.018.019 104.504 104c7.828 7.79 20.492 7.763 28.285-.068 7.792-7.829 7.762-20.492-.067-28.284L68.442 276H492c11.046 0 20-8.954 20-20s-8.954-20-20-20z"/></svg><svg viewBox="0 0 117 22" id="logo-zonex" xmlns="http://www.w3.org/2000/svg"><path data-name="logo zonex" class="gcls-1" d="M1 1h17L8 18h9v4H0L10 6H1V1zm32 21A10.955 10.955 0 0122.183 9.051l5.726 5.09a6.007 6.007 0 10-.115-6.071l-3.822-3.345A11 11 0 1133 22zm17 0V12l5 3v7h-5zm0-16l19 16V0h-5v11L50 0v6zm41-6H76v22h15v-4H81v-5h9V9h-9V4h10V0zm26 22h-6l-5-6.875L101 22h-6l8-11-8-11h6l5 6.875L111 0h6l-8 11z"/></svg><svg viewBox="0 -53 384 384" id="menu" xmlns="http://www.w3.org/2000/svg"><path d="M368 154.668H16c-8.832 0-16-7.168-16-16s7.168-16 16-16h352c8.832 0 16 7.168 16 16s-7.168 16-16 16zM368 32H16C7.168 32 0 24.832 0 16S7.168 0 16 0h352c8.832 0 16 7.168 16 16s-7.168 16-16 16zm0 245.332H16c-8.832 0-16-7.168-16-16s7.168-16 16-16h352c8.832 0 16 7.168 16 16s-7.168 16-16 16zm0 0"/></svg><svg viewBox="0 0 512 512" id="right-arrow" xmlns="http://www.w3.org/2000/svg"><path d="M506.134 241.843l-.018-.019-104.504-104c-7.829-7.791-20.492-7.762-28.285.068-7.792 7.829-7.762 20.492.067 28.284L443.558 236H20c-11.046 0-20 8.954-20 20s8.954 20 20 20h423.557l-70.162 69.824c-7.829 7.792-7.859 20.455-.067 28.284 7.793 7.831 20.457 7.858 28.285.068l104.504-104 .018-.019c7.833-7.818 7.808-20.522-.001-28.314z"/></svg><svg viewBox="0 0 330 330" id="search" xmlns="http://www.w3.org/2000/svg"><path d="M325.606 304.394L223.329 202.117c16.706-21.256 26.682-48.04 26.682-77.111C250.011 56.077 193.934 0 125.005 0 56.077 0 0 56.077 0 125.005S56.077 250.01 125.005 250.01c29.07 0 55.855-9.975 77.111-26.681l102.278 102.277A14.946 14.946 0 00315 330c3.839 0 7.678-1.464 10.606-4.394 5.858-5.857 5.858-15.355 0-21.212zM30 125.005C30 72.619 72.619 30 125.005 30c52.386 0 95.006 42.619 95.006 95.005 0 52.386-42.62 95.005-95.006 95.005S30 177.391 30 125.005z"/></svg><svg viewBox="0 0 208.955 208.955" id="shopping-bag" xmlns="http://www.w3.org/2000/svg"><path d="M190.85 200.227L178.135 58.626a7.5 7.5 0 00-7.47-6.829h-26.221V39.971c0-22.04-17.93-39.971-39.969-39.971-22.038 0-39.966 17.931-39.966 39.971v11.826H38.27a7.5 7.5 0 00-7.47 6.829L18.035 200.784a7.5 7.5 0 007.47 8.17h157.946a7.5 7.5 0 007.399-8.727zM79.509 39.971c0-13.769 11.2-24.971 24.967-24.971 13.768 0 24.969 11.202 24.969 24.971v11.826H79.509V39.971zm-45.8 153.984L45.127 66.797h19.382v13.412a7.5 7.5 0 007.5 7.5 7.5 7.5 0 007.5-7.5V66.797h49.936v13.412a7.5 7.5 0 007.5 7.5 7.5 7.5 0 007.5-7.5V66.797h19.364l11.418 127.158H33.709z"/></svg><svg viewBox="0 0 512 512" id="stick-man" xmlns="http://www.w3.org/2000/svg"><path d="M256 242.4c-63.8 0-115.7-51.9-115.7-115.7C140.3 62.9 192.2 11 256 11c63.8 0 115.7 51.9 115.7 115.7 0 63.8-51.9 115.7-115.7 115.7zm0-190.6c-41.3 0-74.9 33.6-74.9 74.9 0 41.3 33.6 74.9 74.9 74.9 41.3 0 74.9-33.6 74.9-74.9 0-41.3-33.6-74.9-74.9-74.9zM480.6 501H31.4c-11.3 0-20.4-9.1-20.4-20.4 0-66.7 26-129.2 73.1-176 30.4-30.2 73.3-47.5 117.6-47.5h108.6c44.4 0 87.2 17.3 117.6 47.5 47.1 46.8 73.1 109.3 73.1 176 0 11.3-9.1 20.4-20.4 20.4zM52.8 460.2h406.4c-4.6-48-25.6-92.4-60.1-126.6-22.8-22.6-55.2-35.6-88.8-35.6H201.7c-33.7 0-66 13-88.8 35.6-34.5 34.2-55.5 78.6-60.1 126.6z"/></svg></svg>