<?xml version="1.0" standalone="no"?>
<!DOCTYPE svg PUBLIC "-//W3C//DTD SVG 20010904//EN"
 "http://www.w3.org/TR/2001/REC-SVG-20010904/DTD/svg10.dtd">
<svg version="1.0" xmlns="http://www.w3.org/2000/svg"
 width="116.000000pt" height="116.000000pt" viewBox="0 0 116.000000 116.000000"
 preserveAspectRatio="xMidYMid meet">
<metadata>
Created by potrace 1.11, written by Peter Selinger 2001-2013
</metadata>
<g transform="translate(0.000000,116.000000) scale(0.100000,-0.100000)"
fill="#000000" stroke="none">
<path d="M802 830 c-51 -8 -94 -46 -110 -98 -17 -55 -10 -240 11 -279 28 -52
73 -78 136 -76 105 2 130 30 131 141 0 66 -3 82 -15 83 -8 0 -35 1 -60 1 -64
0 -62 0 -61 -24 1 -19 7 -23 34 -24 17 -1 36 -2 41 -3 7 -1 8 -30 2 -97 -1
-16 -42 -31 -78 -29 -67 3 -93 55 -93 183 0 138 19 172 94 172 39 0 67 -23 76
-62 4 -15 14 -22 33 -23 31 -2 36 19 13 63 -31 59 -80 82 -154 72z"/>
<path d="M55 823 c-8 -2 -12 -332 -6 -431 1 -10 19 -13 74 -11 88 3 117 12
149 47 39 43 46 71 44 183 -2 126 -22 170 -90 199 -37 16 -140 24 -171 13z
m150 -59 c43 -20 55 -55 55 -159 0 -100 -13 -141 -51 -160 -29 -16 -98 -21
-100 -7 -4 19 -5 328 -2 335 7 12 64 8 98 -9z"/>
<path d="M407 824 c-4 -4 -7 -18 -7 -31 0 -21 4 -24 28 -21 21 2 27 8 27 28 0
18 -6 26 -20 28 -12 2 -24 0 -28 -4z"/>
<path d="M1058 812 c-8 -28 6 -44 33 -40 18 2 24 9 24 28 0 19 -6 26 -26 28
-19 2 -28 -2 -31 -16z"/>
<path d="M417 712 c-16 -3 -17 -17 -15 -165 l3 -162 26 -3 26 -3 0 165 c0 169
-2 177 -40 168z"/>
<path d="M1059 667 c0 -76 -1 -260 0 -275 1 -8 11 -12 28 -10 l27 3 1 158 c0
87 -3 161 -7 163 -4 3 -17 7 -28 9 -18 3 -20 -2 -21 -48z"/>
<path d="M510 302 c0 -34 3 -62 8 -62 8 0 7 108 -2 117 -3 4 -6 -21 -6 -55z"/>
<path d="M203 337 c4 -11 0 -17 -15 -19 -28 -4 -40 -40 -22 -66 25 -36 49 -18
52 38 1 29 -3 52 -10 56 -7 5 -9 2 -5 -9z m3 -49 c3 -22 -12 -42 -25 -34 -12
8 -15 39 -4 50 10 10 26 2 29 -16z"/>
<path d="M235 340 c-3 -6 1 -7 9 -4 18 7 21 14 7 14 -6 0 -13 -4 -16 -10z"/>
<path d="M389 329 c-3 -37 4 -85 12 -94 7 -7 9 4 5 32 -3 25 0 43 6 45 6 2 3
9 -6 17 -13 11 -16 11 -17 0z"/>
<path d="M281 317 c-6 -6 -11 -24 -11 -39 0 -21 6 -31 26 -38 35 -14 34 -15
34 34 0 35 -4 45 -19 49 -11 2 -24 0 -30 -6z m34 -17 c8 -13 -3 -50 -15 -50
-12 0 -20 28 -14 45 7 17 20 20 29 5z"/>
<path d="M238 292 c-5 -33 0 -54 12 -47 7 4 4 64 -4 72 -2 2 -6 -9 -8 -25z"/>
<path d="M350 280 c0 -22 4 -40 9 -40 4 0 8 18 7 40 0 22 -4 40 -8 40 -5 0 -8
-18 -8 -40z"/>
<path d="M435 310 c-5 -9 -1 -10 14 -5 27 8 27 -2 -1 -25 -18 -15 -20 -20 -10
-33 7 -8 21 -13 33 -10 30 8 23 77 -8 81 -11 2 -24 -2 -28 -8z m35 -45 c0 -8
-4 -15 -10 -15 -5 0 -10 7 -10 15 0 8 5 15 10 15 6 0 10 -7 10 -15z"/>
<path d="M584 309 c-4 -8 0 -9 15 -4 11 3 21 2 21 -3 0 -5 -9 -12 -20 -15 -22
-6 -28 -42 -7 -50 33 -12 47 15 38 76 -2 11 -39 8 -47 -4z m33 -55 c-9 -9 -28
6 -21 18 4 6 10 6 17 -1 6 -6 8 -13 4 -17z"/>
<path d="M657 313 c-4 -3 -7 -19 -7 -34 0 -21 7 -29 30 -38 l30 -10 0 45 c0
39 -2 44 -23 44 -13 0 -27 -3 -30 -7z m38 -33 c0 -13 -6 -25 -12 -27 -9 -3
-13 6 -13 27 0 21 4 30 13 28 6 -3 12 -15 12 -28z"/>
<path d="M737 314 c-12 -12 -8 -61 6 -73 10 -8 18 -7 32 3 17 12 17 13 -3 12
-12 -1 -20 4 -19 9 1 6 10 9 20 9 26 -2 18 40 -8 44 -12 2 -24 0 -28 -4z m38
-14 c3 -5 -3 -10 -15 -10 -12 0 -18 5 -15 10 3 6 10 10 15 10 5 0 12 -4 15
-10z"/>
<path d="M803 280 c1 -49 17 -54 17 -5 0 25 4 35 15 35 11 0 14 -7 11 -23 -2
-13 0 -30 5 -38 6 -9 9 0 9 29 0 40 -2 42 -29 42 -27 0 -29 -2 -28 -40z"/>
<path d="M887 314 c-4 -4 -7 -20 -7 -34 0 -31 24 -58 35 -40 3 6 11 8 16 5 5
-4 9 -1 9 4 0 6 -10 10 -22 8 -15 -1 -23 4 -26 17 -6 28 14 42 34 25 15 -12
17 -12 12 1 -5 16 -39 25 -51 14z"/>
<path d="M951 315 c-1 -5 4 -28 11 -50 l11 -40 13 30 c16 36 18 69 4 60 -5 -3
-10 -16 -10 -28 -1 -19 -3 -18 -15 8 -7 17 -14 26 -14 20z"/>
</g>
</svg>
