<svg width="354" height="178" fill="none" xmlns="http://www.w3.org/2000/svg"><path d="M177 .882a219.296 219.296 0 00-99.055 23.09A219.065 219.065 0 000 89.258a219.06 219.06 0 0077.945 65.284A219.294 219.294 0 00177 177.632a219.295 219.295 0 0099.055-23.091A219.048 219.048 0 00354 89.257a219.054 219.054 0 00-77.945-65.284A219.296 219.296 0 00177 .882zM149.634 62.59v53.308h54.708V98.857h40.844a68.772 68.772 0 01-24.866 43.873 68.905 68.905 0 01-48.135 15.148 68.891 68.891 0 01-45.549-21.712 68.75 68.75 0 01-18.493-46.91 68.751 68.751 0 0118.493-46.909 68.891 68.891 0 0145.549-21.711 68.904 68.904 0 0148.135 15.148 68.77 68.77 0 0124.866 43.872h-40.844V62.591h-54.708z" fill="#0064FF"/></svg>