<svg width="231" height="124" fill="none" xmlns="http://www.w3.org/2000/svg"><path fill-rule="evenodd" clip-rule="evenodd" d="M190.261 5.466c15.648 6.894 25.083 19.464 27.614 34.21 2.532 14.747-1.887 31.649-13.733 47.25-11.847 15.6-28.921 26.938-46.944 32.663-18.023 5.725-37.058 5.837-52.752-1.057-15.694-6.894-25.083-19.457-27.614-34.21C74.3 69.568 78.672 52.68 90.565 37.08c11.892-15.601 28.921-26.94 46.944-32.678 18.023-5.74 37.058-5.837 52.752 1.05v.014zm26.97 34.294c-2.485-14.635-11.764-27.078-27.274-33.888-15.51-6.81-34.333-6.705-52.209-1.022-17.875 5.683-34.876 16.958-46.65 32.446-11.772 15.489-16.135 32.335-13.659 46.97 2.476 14.634 11.764 27.057 27.274 33.867 15.509 6.81 34.333 6.705 52.209 1.022 17.875-5.683 34.876-16.958 46.649-32.468 11.773-15.51 16.136-32.313 13.66-46.948v.021z" fill="url(#paint0_linear_72_115)"/><path fill-rule="evenodd" clip-rule="evenodd" d="M147.346 18.1c22.839 0 43.527 4.948 58.511 12.947 14.983 7.999 24.351 19.125 24.351 31.394 0 12.268-9.298 23.367-24.332 31.393-15.033 8.027-35.671 12.946-58.51 12.946-22.838 0-43.596-4.947-58.53-12.946-14.934-7.999-24.342-19.146-24.342-31.393 0-12.248 9.299-23.367 24.342-31.394 15.043-8.026 35.672-12.946 58.52-12.946h-.01zm57.744 13.688c-14.765-7.882-35.164-12.76-57.744-12.76-22.579 0-42.949 4.878-57.714 12.76-14.764 7.88-23.804 18.682-23.804 30.653 0 11.97 9.1 22.834 23.804 30.653 14.705 7.819 35.164 12.759 57.744 12.759s42.94-4.843 57.744-12.76c14.804-7.915 23.804-18.682 23.804-30.652 0-11.971-9.169-22.807-23.874-30.654h.04z" fill="url(#paint1_linear_72_115)"/><path fill-rule="evenodd" clip-rule="evenodd" d="M147.346 18.1c22.839 0 43.527 4.948 58.511 12.947 14.983 7.999 24.351 19.125 24.351 31.394 0 12.268-9.298 23.367-24.332 31.393-15.033 8.027-35.671 12.946-58.51 12.946-22.838 0-43.596-4.947-58.53-12.946-14.934-7.999-24.342-19.146-24.342-31.393 0-12.248 9.299-23.367 24.342-31.394 15.043-8.026 35.672-12.946 58.52-12.946h-.01zm57.744 13.688c-14.765-7.882-35.164-12.76-57.744-12.76-22.579 0-42.949 4.878-57.714 12.76-14.764 7.88-23.804 18.682-23.804 30.653 0 11.97 9.1 22.834 23.804 30.653 14.705 7.819 35.164 12.759 57.744 12.759s42.94-4.843 57.744-12.76c14.804-7.915 23.804-18.682 23.804-30.652 0-11.971-9.169-22.807-23.874-30.654h.04z" fill="url(#paint2_linear_72_115)"/><path fill-rule="evenodd" clip-rule="evenodd" d="M147.346 18.1c22.839 0 43.527 4.948 58.511 12.947 14.983 7.999 24.351 19.125 24.351 31.394 0 12.268-9.298 23.367-24.332 31.393-15.033 8.027-35.671 12.946-58.51 12.946-22.838 0-43.596-4.947-58.53-12.946-14.934-7.999-24.342-19.146-24.342-31.393 0-12.248 9.299-23.367 24.342-31.394 15.043-8.026 35.672-12.946 58.52-12.946h-.01zm57.744 13.688c-14.765-7.882-35.164-12.76-57.744-12.76-22.579 0-42.949 4.878-57.714 12.76-14.764 7.88-23.804 18.682-23.804 30.653 0 11.97 9.1 22.834 23.804 30.653 14.705 7.819 35.164 12.759 57.744 12.759s42.94-4.843 57.744-12.76c14.804-7.915 23.804-18.682 23.804-30.652 0-11.971-9.169-22.807-23.874-30.654h.04z" fill="url(#paint3_linear_72_115)"/><path fill-rule="evenodd" clip-rule="evenodd" d="M70.986 77.098v-2.813L91.08 52.892H70.986v-3.027h25.767v2.822L76.668 74.081h20.505v3.017H70.986zm74.705-13.612a15.419 15.419 0 1130.837 0 15.419 15.419 0 01-30.837 0zm7.333-8.075a11.422 11.422 0 00-1.416 14.424 11.42 11.42 0 0013.869 4.206 11.423 11.423 0 00-4.368-21.979 11.396 11.396 0 00-8.085 3.35zm-46.956 8.075a15.419 15.419 0 1130.837 0 15.419 15.419 0 01-30.837 0zm7.333-8.075a11.422 11.422 0 00-1.416 14.424 11.42 11.42 0 0013.869 4.206 11.423 11.423 0 00-4.368-21.979 11.4 11.4 0 00-8.085 3.35zm104.037 21.687V54.64l-12.156 22.458h-1.826L191.348 54.64v22.458h-4.443V49.875h6.425l11.083 20.505 11.15-20.505h6.366v27.223h-4.491zm-196.757 0l-9.11-10.82v-3.016h2.255a8.455 8.455 0 005.166-1.445 4.588 4.588 0 000-7.509 8.67 8.67 0 00-5.166-1.416H4.444v24.206H0V49.865h14.354a16.6 16.6 0 014.501.576c1.267.336 2.464.895 3.535 1.65a7.86 7.86 0 012.333 2.598 7.391 7.391 0 01.078 6.65 6.992 6.992 0 01-2.03 2.401c-.902.676-1.908 1.2-2.979 1.553a13.614 13.614 0 01-3.505.693l9.637 11.112h-5.243zm39.691 0c-6.454-12.342-4.12-8.339-12.049-23.718-7.616 14.647-5.858 11.825-12.059 23.718h-5.087l14.354-27.233h5.516L65.42 77.098h-5.048zM.323 40.794v-8.787h3.525c.4-.007.797.062 1.171.205a2.47 2.47 0 011.406 1.396c.114.313.173.643.176.976a2.93 2.93 0 01-.176.977 2.498 2.498 0 01-1.415 1.425 3.1 3.1 0 01-1.162.205H1.416v3.496l-1.093.107zm3.398-4.472a1.737 1.737 0 001.269-.459 1.767 1.767 0 000-2.421 1.738 1.738 0 00-1.27-.469H1.417v3.35h2.305zM10.8 40.95a3.173 3.173 0 01-1.318-.263 2.93 2.93 0 01-.977-.713 3.514 3.514 0 01-.625-1.064 4.062 4.062 0 010-2.607c.137-.39.35-.748.625-1.055a2.93 2.93 0 01.977-.712 3.407 3.407 0 012.626 0c.372.167.704.41.976.712.28.305.492.664.625 1.055a4.063 4.063 0 010 2.607 3.33 3.33 0 01-.624 1.064 2.93 2.93 0 01-.977.713c-.412.18-.858.27-1.308.264zm0-.878c.311.007.62-.063.898-.205.256-.135.482-.321.664-.547.183-.232.319-.497.4-.781.103-.315.152-.645.147-.977a2.929 2.929 0 00-.147-.976 2.363 2.363 0 00-.4-.781 2.09 2.09 0 00-.664-.537 1.874 1.874 0 00-.898-.205 1.952 1.952 0 00-.918.205 2.09 2.09 0 00-.664.537c-.18.235-.32.499-.41.781a3.231 3.231 0 00-.137.976 3.3 3.3 0 00.137.977c.089.283.228.547.41.78.181.227.407.413.664.548.284.142.6.212.918.205zm10.262.722l-1.66-5.116-1.66 5.116h-.976l-2.031-6.366h.976l1.592 5.038 1.679-5.077h.84l1.66 5.077 1.552-5.077h1.025l-2.03 6.366-.967.04zm7.04.157a3.356 3.356 0 01-1.309-.245 3.055 3.055 0 01-.976-.683 2.93 2.93 0 01-.674-1.055 3.827 3.827 0 010-2.665c.148-.39.37-.75.654-1.055a3.046 3.046 0 012.256-.976c.43.015.853.121 1.24.312.376.165.71.412.976.723.272.318.477.686.606 1.084.135.433.2.884.195 1.337v.254h-5.175c.017.293.087.581.205.85.107.263.267.502.469.703.202.2.44.359.703.468.29.121.603.181.918.176.367 0 .732-.07 1.074-.205.332-.14.633-.341.888-.595l.479.644a3.096 3.096 0 01-1.104.722 3.908 3.908 0 01-1.425.254v-.049zm1.953-3.74c0-.25-.043-.498-.127-.732a2.01 2.01 0 00-1.035-1.192 1.953 1.953 0 00-.928-.205 1.874 1.874 0 00-.898.205 2.04 2.04 0 00-.645.498 2.421 2.421 0 00-.547 1.426h4.18zm2.568 3.583v-6.366h.976v.977c.252-.331.563-.613.918-.83a2.315 2.315 0 011.2-.332v.976a2.523 2.523 0 00-.4 0 1.513 1.513 0 00-.478.088 2.86 2.86 0 00-.937.556 1.3 1.3 0 00-.303.371v4.511l-.976.05zm7.225.157a3.386 3.386 0 01-1.308-.245 3.056 3.056 0 01-.977-.683 3.253 3.253 0 01-.674-1.055 3.827 3.827 0 010-2.665c.151-.39.373-.747.655-1.055.274-.3.606-.542.976-.712a3.213 3.213 0 012.548 0c.376.164.71.411.977.722.271.318.477.686.605 1.084.139.432.208.884.205 1.338v.253h-5.184c.009.294.075.582.195.85.114.26.273.497.468.703.203.2.441.359.703.469.31.128.643.188.977.175a2.84 2.84 0 00.996-.205 2.82 2.82 0 00.898-.595l.469.644a3.096 3.096 0 01-1.104.723 3.906 3.906 0 01-1.425.253zm1.953-3.74a2.402 2.402 0 00-.127-.732 2.232 2.232 0 00-.381-.684 2.03 2.03 0 00-1.591-.713 1.874 1.874 0 00-.899.205 1.895 1.895 0 00-.634.498c-.17.201-.306.429-.4.674a2.63 2.63 0 00-.147.752H41.8zm7.176 3.583v-.976c-.241.33-.555.6-.917.79-.377.21-.8.317-1.23.313a2.782 2.782 0 01-1.143-.234 2.45 2.45 0 01-.889-.654 2.93 2.93 0 01-.586-1.045 4.192 4.192 0 01-.214-1.396 4.35 4.35 0 01.205-1.387c.124-.384.32-.742.576-1.054a2.54 2.54 0 01.898-.674 2.792 2.792 0 011.191-.205c.422-.002.837.099 1.211.293.386.191.721.472.977.82v-3.378h.976v8.787h-1.055zm-1.952-.722c.393.001.78-.1 1.123-.293a2.1 2.1 0 00.79-.713v-2.93a2.363 2.363 0 00-1.953-1.024 1.846 1.846 0 00-1.494.703 2.375 2.375 0 00-.41.78 3.54 3.54 0 00-.136.977c-.003.33.043.66.136.977.087.283.226.548.41.78.173.22.394.397.645.518.266.123.556.187.85.186l.039.039zm9.266-.977a2.1 2.1 0 00.79.713c.34.194.723.296 1.114.293.3.002.596-.061.869-.185.25-.122.471-.299.644-.518.185-.23.321-.496.4-.781a3.02 3.02 0 00.137-.976 3.2 3.2 0 00-.136-.977 2.186 2.186 0 00-.4-.781 1.845 1.845 0 00-1.514-.703c-.392 0-.776.105-1.113.303a2.285 2.285 0 00-.791.722v2.93-.04zm-.977 1.729v-8.788h.977v3.378c.255-.347.59-.629.976-.82.373-.196.79-.297 1.21-.293.394-.005.784.075 1.143.234.346.155.653.385.899.674.26.312.458.67.586 1.055.142.448.212.916.205 1.386a4.46 4.46 0 01-.206 1.397 3.095 3.095 0 01-.585 1.044 2.48 2.48 0 01-.899.654c-.359.16-.749.24-1.142.235a2.499 2.499 0 01-1.23-.313 2.93 2.93 0 01-.918-.79v.976l-1.016-.03zm7.46 1.572a.84.84 0 00.264.078h.273c.195.006.387-.041.557-.137a1.14 1.14 0 00.39-.537l.43-.976-2.666-6.435h1.065l2.128 5.214 2.158-5.175h1.074l-3.183 7.655a1.96 1.96 0 01-.771.977 2.051 2.051 0 01-1.104.302 2.641 2.641 0 01-.37 0 2.503 2.503 0 01-.352-.068l.107-.898z" fill="#fff"/><defs><linearGradient id="paint0_linear_72_115" x1="109.306" y1="44.358" x2="173.242" y2="95.663" gradientUnits="userSpaceOnUse"><stop stop-color="#0096D7"/><stop offset=".23" stop-color="#0096D7"/><stop offset=".29" stop-color="#fff"/><stop offset=".37" stop-color="#0096D7"/><stop offset="1" stop-color="#002F5D"/></linearGradient><linearGradient id="paint1_linear_72_115" x1="12827.8" y1="7848.5" x2="39120" y2="7848.5" gradientUnits="userSpaceOnUse"><stop stop-color="#0096D7"/><stop offset=".23" stop-color="#0096D7"/><stop offset=".29" stop-color="#fff"/><stop offset=".37" stop-color="#0096D7"/><stop offset="1" stop-color="#002F5D"/></linearGradient><linearGradient id="paint2_linear_72_115" x1="12827.8" y1="7848.5" x2="39120" y2="7848.5" gradientUnits="userSpaceOnUse"><stop stop-color="#0096D7"/><stop offset=".23" stop-color="#0096D7"/><stop offset=".29" stop-color="#fff"/><stop offset=".37" stop-color="#0096D7"/><stop offset="1" stop-color="#002F5D"/></linearGradient><linearGradient id="paint3_linear_72_115" x1="93.452" y1="31.412" x2="183.375" y2="120.41" gradientUnits="userSpaceOnUse"><stop stop-color="#0096D7"/><stop offset=".217" stop-color="#0096D7"/><stop offset=".373" stop-color="#fff"/><stop offset=".473" stop-color="#0096D7"/><stop offset="1" stop-color="#002F5D"/></linearGradient></defs></svg>