<svg width="224" height="50" fill="none" xmlns="http://www.w3.org/2000/svg"><path fill-rule="evenodd" clip-rule="evenodd" d="M71.63 46.015v-2.837L91.907 21.59H71.63v-3.054h26.002v2.848L77.365 42.97h20.69v3.044H71.63zm75.384-13.734a15.56 15.56 0 0112.523-15.26 15.558 15.558 0 11-12.523 15.26zm7.399-8.149a11.53 11.53 0 0012.566 18.799 11.527 11.527 0 00-4.408-22.178 11.497 11.497 0 00-8.158 3.38zm-47.382 8.149a15.556 15.556 0 0122.893-13.72 15.556 15.556 0 01-8.866 29.201 15.558 15.558 0 01-14.027-15.481zm7.4-8.149a11.525 11.525 0 004.809 19.18 11.529 11.529 0 10-4.809-19.18zm104.981 21.883V23.354l-12.267 22.661h-1.842l-12.218-22.661v22.661h-4.483v-27.47h6.483l11.183 20.692 11.252-20.691h6.424v27.47h-4.532zm-198.543 0L11.676 35.1v-3.045h2.276a8.532 8.532 0 005.212-1.458 4.63 4.63 0 000-7.577 8.749 8.749 0 00-5.212-1.429H4.484v24.425H0v-27.48h14.484a16.74 16.74 0 014.542.581c1.279.34 2.486.903 3.567 1.665a7.931 7.931 0 012.355 2.621 7.458 7.458 0 01.078 6.71 7.055 7.055 0 01-2.049 2.424 10.474 10.474 0 01-3.005 1.566 13.738 13.738 0 01-3.537.7l9.725 11.212h-5.291z" fill="#fff"/><g filter="url(#filter0_d_115_5045)"><path d="M49.565 23.64c6.945 13.508 5.124 10.448 11.095 21.88.156.298.47.497.807.497h3.047a.904.904 0 00.8-1.326l-13.55-25.672a.904.904 0 00-.799-.482H46.49a.904.904 0 00-.8.483L32.16 44.69a.904.904 0 00.8 1.326h3.086a.922.922 0 00.807-.497c5.729-11.003 4.442-9.035 11.101-21.88a.908.908 0 011.61.002z" fill="url(#paint0_linear_115_5045)"/></g><path fill-rule="evenodd" clip-rule="evenodd" d="M.325 9.383V.515h3.557c.404-.007.805.063 1.182.207a2.493 2.493 0 011.42 1.41c.114.315.174.648.177.985a2.957 2.957 0 01-.178.985A2.522 2.522 0 015.055 5.54a3.143 3.143 0 01-1.173.207H1.43v3.528l-1.104.108zM3.754 4.87a1.754 1.754 0 001.28-.463 1.783 1.783 0 000-2.443 1.754 1.754 0 00-1.28-.473H1.429v3.38h2.325zm7.143 4.67a3.202 3.202 0 01-1.33-.265 2.956 2.956 0 01-.985-.72 3.547 3.547 0 01-.63-1.074 4.099 4.099 0 010-2.63c.138-.393.352-.755.63-1.064.275-.306.61-.551.985-.72a3.438 3.438 0 012.65 0c.375.169.71.414.986.72.281.307.496.67.63 1.064a4.1 4.1 0 010 2.63 3.36 3.36 0 01-.63 1.074c-.275.306-.61.55-.986.72a3.192 3.192 0 01-1.32.266zm0-.886c.315.007.626-.064.907-.207a2.15 2.15 0 001.074-1.34c.103-.318.153-.651.147-.985a2.953 2.953 0 00-.147-.986 2.383 2.383 0 00-.404-.788 2.11 2.11 0 00-.67-.542 1.892 1.892 0 00-.907-.207 1.97 1.97 0 00-.926.207 2.109 2.109 0 00-.67.542 2.611 2.611 0 00-.414.788c-.096.32-.142.652-.138.986a3.33 3.33 0 00.138.985c.09.285.23.552.414.788.183.228.411.416.67.552.287.143.605.214.926.207zm10.356.729L19.578 4.22l-1.675 5.163h-.986l-2.05-6.424h.986l1.606 5.084 1.695-5.124H20l1.675 5.124 1.567-5.124h1.034l-2.05 6.424-.974.04zm7.103.158a3.389 3.389 0 01-1.32-.247 3.084 3.084 0 01-.985-.69 2.956 2.956 0 01-.68-1.064 3.862 3.862 0 010-2.69 3.24 3.24 0 01.66-1.063 3.073 3.073 0 012.276-.986c.435.015.861.123 1.251.316.38.166.716.415.986.729.273.32.48.692.61 1.093.137.437.203.893.198 1.35v.256H26.13c.017.296.087.586.207.857.108.266.269.508.473.71.203.202.444.362.709.473.293.122.608.182.926.177.371 0 .739-.07 1.084-.207.335-.14.64-.344.896-.6l.483.65c-.314.32-.694.568-1.113.729a3.94 3.94 0 01-1.439.256v-.05zm1.97-3.774a2.14 2.14 0 00-.127-.739 2.03 2.03 0 00-1.045-1.202 1.97 1.97 0 00-.936-.207 1.892 1.892 0 00-.906.207 2.06 2.06 0 00-.65.502 2.443 2.443 0 00-.552 1.439h4.217zm2.592 3.616V2.959h.986v.985a3.41 3.41 0 01.926-.837 2.33 2.33 0 011.212-.335v.985c-.135-.01-.27-.01-.404 0a1.527 1.527 0 00-.483.089 2.884 2.884 0 00-.946.561 1.31 1.31 0 00-.306.375v4.552l-.985.049zm7.291.158c-.452.006-.9-.078-1.32-.247a3.084 3.084 0 01-.985-.69 3.281 3.281 0 01-.68-1.064 3.862 3.862 0 010-2.69 3.41 3.41 0 01.66-1.063 3.07 3.07 0 01.985-.72 3.241 3.241 0 012.572 0c.379.166.715.416.985.73.274.32.481.692.611 1.093.14.436.21.892.207 1.35v.256h-5.232c.01.296.076.587.197.857.116.262.276.502.473.71.204.201.445.362.71.473.311.13.647.19.985.177a2.886 2.886 0 001.005-.207c.338-.14.645-.345.906-.601l.473.65c-.314.32-.694.57-1.113.73a3.94 3.94 0 01-1.439.256zm1.97-3.774a2.423 2.423 0 00-.127-.739 2.256 2.256 0 00-.385-.69 2.048 2.048 0 00-1.606-.719 1.892 1.892 0 00-.906.207 1.91 1.91 0 00-.64.502 2.384 2.384 0 00-.404.68 2.66 2.66 0 00-.148.759h4.217zm7.243 3.616v-.985a2.71 2.71 0 01-.927.798c-.38.21-.807.318-1.241.315a2.808 2.808 0 01-1.153-.236 2.473 2.473 0 01-.896-.66 2.957 2.957 0 01-.592-1.055 4.225 4.225 0 01-.216-1.409 4.391 4.391 0 01.207-1.399 3.25 3.25 0 01.58-1.064c.248-.291.558-.524.907-.68a2.826 2.826 0 011.202-.207c.425-.001.845.1 1.222.296.39.193.728.477.985.827V.515h.986v8.868h-1.064zm-1.971-.73c.397.002.788-.1 1.133-.295.323-.167.598-.415.798-.72V4.684a2.385 2.385 0 00-1.97-1.034 1.863 1.863 0 00-1.508.71 2.395 2.395 0 00-.414.787c-.092.32-.138.652-.138.985a3.38 3.38 0 00.138.986c.088.286.228.553.414.788.175.221.397.4.65.522.27.124.562.188.858.187l.039.04zm9.35-.984c.2.304.475.552.798.719.342.196.73.298 1.124.295a2.08 2.08 0 00.877-.187c.253-.123.475-.301.65-.522.186-.233.324-.5.404-.788.099-.319.145-.652.138-.986a3.242 3.242 0 00-.138-.985 2.207 2.207 0 00-.404-.788 1.863 1.863 0 00-1.527-.71 2.243 2.243 0 00-1.124.306c-.32.176-.593.426-.798.73v2.955-.04zm-.985 1.743V.545h.985v3.409a2.72 2.72 0 01.986-.828c.376-.198.796-.3 1.221-.295.397-.006.79.075 1.153.236.35.156.659.389.907.68.262.315.462.676.59 1.064.145.452.215.925.208 1.4a4.51 4.51 0 01-.207 1.408 3.123 3.123 0 01-.591 1.054 2.503 2.503 0 01-.907.66 2.74 2.74 0 01-1.153.237 2.522 2.522 0 01-1.241-.315 2.955 2.955 0 01-.926-.798v.985l-1.025-.03zM63.343 11c.084.04.174.067.267.079h.275a1.08 1.08 0 00.562-.138c.182-.138.32-.327.394-.542l.434-.986-2.69-6.493h1.074l2.148 5.262 2.177-5.222h1.084l-3.212 7.725a1.97 1.97 0 01-.778.985 2.073 2.073 0 01-1.114.305c-.124.009-.25.009-.374 0a2.528 2.528 0 01-.355-.069l.108-.906z" fill="#fff"/><defs><linearGradient id="paint0_linear_115_5045" x1="37.499" y1="22.661" x2="63.211" y2="39.785" gradientUnits="userSpaceOnUse"><stop stop-color="#0096D7"/><stop offset=".473" stop-color="#0096D7"/><stop offset="1" stop-color="#002F5D"/></linearGradient><filter id="filter0_d_115_5045" x="28.439" y="14.921" width="40.597" height="34.711" filterUnits="userSpaceOnUse" color-interpolation-filters="sRGB"><feFlood flood-opacity="0" result="BackgroundImageFix"/><feColorMatrix in="SourceAlpha" values="0 0 0 0 0 0 0 0 0 0 0 0 0 0 0 0 0 0 127 0" result="hardAlpha"/><feOffset/><feGaussianBlur stdDeviation="1.808"/><feComposite in2="hardAlpha" operator="out"/><feColorMatrix values="0 0 0 0 0 0 0 0 0 0 0 0 0 0 0 0 0 0 0.25 0"/><feBlend in2="BackgroundImageFix" result="effect1_dropShadow_115_5045"/><feBlend in="SourceGraphic" in2="effect1_dropShadow_115_5045" result="shape"/></filter></defs></svg>