<?xml version="1.0" encoding="utf-8"?><svg viewBox="0 0 152 153" xmlns="http://www.w3.org/2000/svg" xmlns:xlink="http://www.w3.org/1999/xlink"><style>:root>svg{display:none}:root>svg:target{display:block}</style><svg fill="none" viewBox="0 0 14 24" id="arrow-next" xmlns="http://www.w3.org/2000/svg"><path d="M1 23l11-11L1 1" stroke="#fff" stroke-width="2" stroke-linecap="round"/></svg><svg fill="none" viewBox="0 0 14 24" id="arrow-prev" xmlns="http://www.w3.org/2000/svg"><path d="M13 1L2 12l11 11" stroke="#fff" stroke-width="2" stroke-linecap="round"/></svg><svg fill="none" preserveAspectRatio="none" viewBox="0 0 152 153" id="blue-triangle" xmlns="http://www.w3.org/2000/svg"><path d="M24.354 111.381l51.235-21.298 51.235 21.298H24.354z" stroke="#fff" stroke-width="5"/><path d="M24.354 111.381l51.235-21.298 51.235 21.298H24.354z" stroke="#014779" stroke-width="5"/><path d="M24.354 111.381l51.235-21.298 51.235 21.298H24.354z" stroke="#1499C2" stroke-width="5"/><rect x="73.627" y="5.896" width="3.927" height="84.424" rx="1.963" fill="#1499C2"/><path d="M15.323 111.372L75.59 6.988l60.266 104.384H15.323z" stroke="#fff" stroke-width="6"/><path d="M15.323 111.372L75.59 6.988l60.266 104.384H15.323z" stroke="#1499C2" stroke-width="6"/></svg><svg fill="none" viewBox="0 0 12 24" id="facebook" xmlns="http://www.w3.org/2000/svg"><path d="M11.922 4.086V.333L7.824.298C6.088.298 3.596 2.27 3.596 4.51v4.027H0V12.8h3.553v10.572h4.188v-10.62h3.71l.474-4.164H7.79v-3.07a1.421 1.421 0 011.384-1.455c.552 0 2.747.022 2.747.022z" fill="#F7F7F5"/></svg><svg fill="none" viewBox="0 0 25 25" id="instagram" xmlns="http://www.w3.org/2000/svg"><g clip-path="url(#eclip0_117_5193)" fill="#F7F7F5"><path d="M17.346 24.69h-9.17a7.412 7.412 0 01-7.412-7.406v-9.16A7.412 7.412 0 018.169.719h9.177a7.412 7.412 0 017.405 7.405v9.16a7.412 7.412 0 01-7.405 7.405zm-9.16-21.3a4.738 4.738 0 00-4.739 4.74v9.16a4.738 4.738 0 004.737 4.738h9.16a4.738 4.738 0 004.738-4.738V8.124a4.738 4.738 0 00-4.737-4.738l-9.16.005z"/><path d="M12.755 18.83a6.129 6.129 0 116.128-6.128 6.135 6.135 0 01-6.128 6.129zm0-9.849a3.724 3.724 0 100 7.448 3.724 3.724 0 000-7.448zm6.438-1.724a1.035 1.035 0 100-2.07 1.035 1.035 0 000 2.07z"/></g><defs><clipPath id="eclip0_117_5193"><path fill="#fff" transform="translate(.771 .719)" d="M0 0h23.973v23.973H0z"/></clipPath></defs></svg><svg fill="none" preserveAspectRatio="none" shape-rendering="crispEdges" viewBox="0 0 152 152" id="orange-triangle" xmlns="http://www.w3.org/2000/svg"><path d="M24.354 110.916l51.235-21.298 51.235 21.298H24.354z" stroke="#fff" stroke-width="5"/><path d="M24.354 110.916l51.235-21.298 51.235 21.298H24.354z" stroke="#014779" stroke-width="5"/><path d="M24.354 110.916l51.235-21.298 51.235 21.298H24.354z" stroke="#F74719" stroke-width="5"/><rect x="73.627" y="5.431" width="3.927" height="84.424" rx="1.963" fill="#F74719"/><path d="M15.323 110.907L75.59 6.523l60.266 104.384H15.323z" stroke="#fff" stroke-width="6"/><path d="M15.323 110.907L75.59 6.523l60.266 104.384H15.323z" stroke="#F74719" stroke-width="6"/></svg><svg fill="none" preserveAspectRatio="none" viewBox="0 0 152 152" id="purple-triangle" xmlns="http://www.w3.org/2000/svg"><path d="M24.354 110.738L75.589 89.44l51.235 21.298H24.354z" stroke="#fff" stroke-width="5"/><path d="M24.354 110.738L75.589 89.44l51.235 21.298H24.354z" stroke="#014779" stroke-width="5"/><path d="M24.354 110.738L75.589 89.44l51.235 21.298H24.354z" stroke="#6D1DD4" stroke-width="5"/><rect x="73.627" y="5.253" width="3.927" height="84.424" rx="1.963" fill="#6D1DD4"/><path d="M15.323 110.729L75.59 6.345l60.266 104.384H15.323z" stroke="#fff" stroke-width="6"/><path d="M15.323 110.729L75.59 6.345l60.266 104.384H15.323z" stroke="#6D1DD4" stroke-width="6"/></svg><svg fill="none" viewBox="0 0 152 152" id="triangle" xmlns="http://www.w3.org/2000/svg"><path d="M24.354 111.094l51.235-21.298 51.235 21.298H24.354z" stroke="#7E8990" stroke-width="5"/><path d="M24.354 111.094l51.235-21.298 51.235 21.298H24.354z" stroke="#7E8990" stroke-width="5"/><path d="M24.354 111.094l51.235-21.298 51.235 21.298H24.354z" stroke="#7E8990" stroke-width="5"/><rect x="73.627" y="5.609" width="3.927" height="84.424" rx="1.963" fill="#7E8990"/><path d="M15.323 111.085L75.59 6.701l60.266 104.384H15.323z" stroke="#7E8990" stroke-width="6"/><path d="M15.323 111.085L75.59 6.701l60.266 104.384H15.323z" stroke="#7E8990" stroke-width="6"/></svg><svg fill="none" viewBox="0 0 28 22" id="twitter" xmlns="http://www.w3.org/2000/svg"><path d="M23.174 1.722A5.089 5.089 0 0019.287.09c-2.928.097-5.647 1.895-5.334 6.481 0 0-4.409 1.343-11.274-5.185 0 0-2.208 3.6 1.696 6.993 0 0-1.096.303-2.56-.512 0 0-.785 3.04 4.24 5.344 0 0-1.696.474-2.464 0 0 0 .448 3.231 4.96 3.999 0 0-2.319 2.305-7.817 2.24 0 0 11.411 5.84 19.325-1.657 5.65-5.359 4.866-12.51 4.866-12.51a5.032 5.032 0 002.656-2.322s-1.895.592-2.976.498c0 0 2.08-1.299 2.241-2.843.003.002-1.767 1.267-3.672 1.106z" fill="#fff"/></svg><svg fill="none" preserveAspectRatio="none" viewBox="0 0 152 152" id="white-triangle" xmlns="http://www.w3.org/2000/svg"><path d="M24.354 111.094l51.235-21.298 51.235 21.298H24.354z" stroke="#fff" stroke-width="5"/><path d="M24.354 111.094l51.235-21.298 51.235 21.298H24.354z" stroke="#014779" stroke-width="5"/><path d="M24.354 111.094l51.235-21.298 51.235 21.298H24.354z" stroke="#D4D4D4" stroke-width="5"/><rect x="73.627" y="5.609" width="3.927" height="84.424" rx="1.963" fill="#D4D4D4"/><path d="M15.323 111.085L75.59 6.701l60.266 104.384H15.323z" stroke="#fff" stroke-width="6"/><path d="M15.323 111.085L75.59 6.701l60.266 104.384H15.323z" stroke="#D4D4D4" stroke-width="6"/></svg><svg fill="none" preserveAspectRatio="none" viewBox="0 0 152 152" id="yellow-triangle" xmlns="http://www.w3.org/2000/svg"><path d="M24.354 110.559l51.235-21.297 51.235 21.297H24.354z" stroke="#fff" stroke-width="5"/><path d="M24.354 110.559l51.235-21.297 51.235 21.297H24.354z" stroke="#014779" stroke-width="5"/><path d="M24.354 110.559l51.235-21.297 51.235 21.297H24.354z" stroke="#F7BA19" stroke-width="5"/><rect x="73.627" y="5.075" width="3.927" height="84.424" rx="1.963" fill="#F7BA19"/><path d="M15.323 110.55L75.59 6.167l60.266 104.383H15.323z" stroke="#fff" stroke-width="6"/><path d="M15.323 110.55L75.59 6.167l60.266 104.383H15.323z" stroke="#F7BA19" stroke-width="6"/></svg><svg fill="none" viewBox="0 0 28 20" id="youtube" xmlns="http://www.w3.org/2000/svg"><path d="M22.893.562H5.799A4.89 4.89 0 00.917 5.437v8.95a4.89 4.89 0 004.877 4.877h17.094a4.89 4.89 0 004.875-4.878v-8.95a4.89 4.89 0 00-4.87-4.874zm-7.794 11.995l-4.164 2.578V4.828l4.164 2.577 4.165 2.577-4.165 2.575z" fill="#F7F7F5"/></svg></svg>