<svg width="11" height="10" fill="none" xmlns="http://www.w3.org/2000/svg"><path d="M3.797 0H1.266C.914 0 .616.133.369.398A1.368 1.368 0 000 1.364V4.09c0 .379.123.7.37.966.245.265.544.398.896.398h1.476a.59.59 0 01.448.198.684.684 0 01.185.483v.228c0 .502-.165.93-.495 1.285a1.57 1.57 0 01-1.193.533h-.421a.392.392 0 00-.297.135.454.454 0 00-.125.32v.908c0 .123.041.23.125.32a.39.39 0 00.297.135h.421c.457 0 .893-.096 1.309-.288a3.396 3.396 0 001.077-.777c.304-.327.544-.714.722-1.162a3.78 3.78 0 00.267-1.41v-5c0-.378-.123-.7-.369-.965A1.178 1.178 0 003.797 0zm6.802.398A1.178 1.178 0 009.703 0H7.172c-.352 0-.65.133-.897.398a1.369 1.369 0 00-.369.966V4.09c0 .379.123.7.37.966.245.265.544.397.896.397h1.476a.59.59 0 01.448.2.685.685 0 01.185.482v.228c0 .501-.165.93-.495 1.285a1.57 1.57 0 01-1.192.533h-.422a.392.392 0 00-.297.135.454.454 0 00-.125.32v.908c0 .123.042.23.125.32a.39.39 0 00.297.135h.422c.456 0 .893-.096 1.308-.288a3.397 3.397 0 001.077-.778c.304-.326.544-.713.722-1.16a3.78 3.78 0 00.267-1.41v-5c0-.38-.123-.701-.369-.966z" fill="#F6762C"/></svg>