<?xml version="1.0" encoding="utf-8"?><svg viewBox="0 0 512 512" xmlns="http://www.w3.org/2000/svg" xmlns:xlink="http://www.w3.org/1999/xlink"><style>:root>svg{display:none}:root>svg:target{display:block}</style><svg fill="none" viewBox="0 0 10 14" id="arrow-next" xmlns="http://www.w3.org/2000/svg"><path d="M8.888 7.546l-6.23 6.23a.76.76 0 01-.541.224.76.76 0 01-.542-.224l-.459-.458a.767.767 0 010-1.083l5.232-5.232L1.11 1.765a.76.76 0 01-.223-.541c0-.205.08-.397.223-.542l.46-.458A.76.76 0 012.11 0a.76.76 0 01.542.224l6.236 6.235a.761.761 0 01.224.544c0 .206-.08.399-.224.543z" fill="#D64374"/></svg><svg fill="none" viewBox="0 0 10 14" id="arrow-prev" xmlns="http://www.w3.org/2000/svg"><path d="M1.112 7.546l6.23 6.23a.76.76 0 00.541.224.76.76 0 00.542-.224l.459-.458a.767.767 0 000-1.083L3.652 7.003 8.89 1.765a.76.76 0 00.223-.541.761.761 0 00-.223-.542L8.43.224A.76.76 0 007.89 0a.76.76 0 00-.542.224L1.112 6.459a.761.761 0 00-.224.544c0 .206.08.399.224.543z" fill="#D64374"/></svg><svg fill="none" viewBox="0 0 28 43" id="box" xmlns="http://www.w3.org/2000/svg"><path d="M13.888 18.624L.313 21.085l5.094 19.986c.148.541.64.935 1.206.935h14.768c.566 0 1.059-.394 1.206-.935l5.095-19.986-13.794-2.461zm-2.352-3.692c.68 0 1.23-.55 1.23-1.23V1.23a1.23 1.23 0 10-2.46 0V13.7c0 .68.55 1.23 1.23 1.23zm4.923 0c.68 0 1.23-.55 1.23-1.23V1.23a1.23 1.23 0 10-2.461 0V13.7c0 .68.55 1.23 1.23 1.23z" fill="url(#cpaint0_linear)"/><defs><linearGradient id="cpaint0_linear" x1="13.997" y1="42.006" x2="13.997" y2="0" gradientUnits="userSpaceOnUse"><stop stop-color="#FD3A84"/><stop offset="1" stop-color="#FFA68D"/></linearGradient></defs></svg><svg fill="none" viewBox="0 0 14 14" id="cart" xmlns="http://www.w3.org/2000/svg"><path d="M11.54 11.922H3.745a1.232 1.232 0 010-2.461h1.23l-.739.82h-.49a.41.41 0 000 .82h7.792v.82z" fill="#F9C2D2"/><path d="M7.848 11.102h3.691v.82H7.848v-.82z" fill="#F98AAB"/><path opacity=".5" d="M2.963 4.54l-.366-1.642H0v-.82h3.255l.71 3.182-1.002-.72z" fill="#F98AAB"/><path d="M9.61 4.68l-.123-.14H2.965l1.273 5.741h7.21l1.445-5.594c-.28.07-1.942 1.534-3.283-.007zm2.064 1.448L11.447 7H9.525l.104-1.251c.602.366 1.34.512 2.045.379zM6.996 7l-.137-1.64h1.98L8.702 7H6.995zm1.638.82l-.137 1.64H7.2l-.137-1.64h1.57zM6.036 5.36L6.173 7H4.35l-.363-1.64h2.048zM4.533 7.82h1.708l.137 1.64H4.897l-.364-1.64zM9.32 9.46l.136-1.64h1.78l-.424 1.64H9.32z" fill="#F9C2D2"/><path d="M9.609 4.68l-.123-.14H7.848v.82h.99L8.7 7h-.853v.82h.785l-.137 1.64h-.648v.821h3.599l1.445-5.594c-.28.07-1.942 1.534-3.283-.007zm1.202 4.78H9.32l.136-1.64h1.78l-.424 1.64zm.861-3.332L11.447 7H9.524l.104-1.251c.601.366 1.34.512 2.044.379z" fill="#F98AAB"/><path d="M5.387 13.563a1.232 1.232 0 010-2.46 1.23 1.23 0 110 2.459z" fill="#665151"/><path d="M9.488 13.563a1.232 1.232 0 010-2.46 1.229 1.229 0 110 2.459z" fill="#4D3535"/><path d="M11.129 6.18a2.872 2.872 0 01-2.871-2.871 2.875 2.875 0 012.87-2.872A2.875 2.875 0 0114 3.31a2.868 2.868 0 01-2.871 2.87z" fill="#F9C2D2"/><path d="M5.387 12.742a.41.41 0 100-.82.41.41 0 000 .82z" fill="#FFF7E6"/><path d="M9.488 12.742a.41.41 0 100-.82.41.41 0 000 .82z" fill="#FFEACC"/><path d="M14 3.309A2.875 2.875 0 0011.129.437V6.18A2.868 2.868 0 0014 3.309z" fill="#F98AAB"/><path d="M12.36 2.898h-.82v-.82h-.821v.82h-.82v.82h.82v.821h.82v-.82h.82v-.82z" fill="#fff"/><path d="M11.129 2.078V4.54h.41v-.82h.82V2.9h-.82v-.82h-.41z" fill="#fff"/></svg><svg viewBox="0 0 329.269 329" id="close" xmlns="http://www.w3.org/2000/svg"><path d="M194.8 164.77L323.013 36.555c8.343-8.34 8.343-21.825 0-30.164-8.34-8.34-21.825-8.34-30.164 0L164.633 134.605 36.422 6.391c-8.344-8.34-21.824-8.34-30.164 0-8.344 8.34-8.344 21.824 0 30.164l128.21 128.215L6.259 292.984c-8.344 8.34-8.344 21.825 0 30.164a21.266 21.266 0 0015.082 6.25c5.46 0 10.922-2.09 15.082-6.25l128.21-128.214 128.216 128.214a21.273 21.273 0 0015.082 6.25c5.46 0 10.922-2.09 15.082-6.25 8.343-8.34 8.343-21.824 0-30.164zm0 0"/></svg><svg fill="none" viewBox="0 0 54 54" id="delivery" xmlns="http://www.w3.org/2000/svg"><path d="M43.688 30.375h-8.25a.844.844 0 110-1.688h8.25a.844.844 0 110 1.688z" fill="#E0E2E5"/><path d="M25.313 19.406L27 39.656v1.688h10.125v-1.688l1.688-20.25h-13.5z" fill="#93573D"/><path d="M16.875 19.406v-.843H13.5v2.53h-3.375v8.438h6.75v-.843h3.375v-9.282h-3.375z" fill="#FDD14B"/><path d="M13.5 32.063a.844.844 0 01-.844-.844v-9.282a.843.843 0 111.688 0v9.282a.844.844 0 01-.844.843zm3.496 1.687a.844.844 0 01-.844-.836l-.12-12.656a.844.844 0 011.687-.016l.12 12.656a.844.844 0 01-.835.852h-.008z" fill="#E4BC43"/><path d="M9.281 27.844l1.688 11.812v1.688h10.125v-13.5H9.28z" fill="#E74444"/><path d="M48.938 30.375H47.25a.844.844 0 110-1.688h1.688a.844.844 0 110 1.688z" fill="#E0E2E5"/><path d="M38.813 19.406l-.282 3.375H25.594l-.282-3.375h13.5z" fill="#A4D4F4"/><path d="M23.674 14.344a.844.844 0 01-.702-1.312l.802-1.203a.844.844 0 00-.196-1.143l-.82-.616a2.531 2.531 0 01-.587-3.429l.801-1.203a.844.844 0 011.404.936l-.802 1.203a.844.844 0 00.196 1.143l.821.616a2.531 2.531 0 01.587 3.429l-.801 1.203a.843.843 0 01-.703.376zm-6.75 0a.843.843 0 01-.702-1.312l.802-1.203a.844.844 0 00-.196-1.143l-.82-.616a2.531 2.531 0 01-.587-3.429l.801-1.203a.844.844 0 111.404.936l-.802 1.203a.844.844 0 00.196 1.143l.821.616a2.532 2.532 0 01.587 3.43l-.801 1.202a.844.844 0 01-.703.376zm13.406 0a.843.843 0 01-.701-1.312l.802-1.203a.844.844 0 00-.196-1.143l-.821-.616a2.532 2.532 0 01-.587-3.429l.801-1.203a.844.844 0 111.405.936l-.802 1.203a.844.844 0 00.196 1.143l.821.616a2.532 2.532 0 01.587 3.429l-.801 1.203a.843.843 0 01-.704.376zm21.139 10.969h-9.282a.844.844 0 110-1.688h9.282a.844.844 0 010 1.688zm-5.906 10.125H40.5a.844.844 0 110-1.688h5.063a.844.844 0 110 1.688z" fill="#E0E2E5"/><path d="M51.469 48.938H2.53a.844.844 0 010-1.688h48.94a.844.844 0 010 1.688z" fill="#C2C5C6"/><path d="M2.531 39.656H44.72v1.688a1.687 1.687 0 01-1.688 1.687H4.22a1.687 1.687 0 01-1.688-1.687v-1.688z" fill="#FDD14B"/><path d="M36.281 48.094a5.063 5.063 0 100-10.125 5.063 5.063 0 000 10.125z" fill="#6A7073"/><path d="M36.281 44.719a1.688 1.688 0 100-3.375 1.688 1.688 0 000 3.375z" fill="#99A2A7"/><path d="M10.969 48.094a5.062 5.062 0 100-10.125 5.062 5.062 0 000 10.125z" fill="#6A7073"/><path d="M10.969 44.719a1.688 1.688 0 100-3.375 1.688 1.688 0 000 3.375z" fill="#99A2A7"/><path d="M16.031 36.281H31.22v1.688a1.687 1.687 0 01-1.688 1.687H17.72a1.687 1.687 0 01-1.688-1.687V36.28z" fill="#EA8333"/><path d="M30.529 32.906c.847 0 1.534.756 1.534 1.688 0 .932-.687 1.687-1.535 1.687H16.723c-.848 0-1.535-.755-1.535-1.687s.687-1.688 1.534-1.688H30.53z" fill="#794832"/><path d="M16.875 29.531h13.5v3.375h-13.5v-3.375z" fill="#FDD14B"/><path d="M32.906 30.375c0 1.398-1.187 2.531-2.652 2.531a2.685 2.685 0 01-2.21-1.132 2.723 2.723 0 01-4.419 0 2.723 2.723 0 01-4.42 0 2.683 2.683 0 01-2.21 1.132c-1.464 0-2.651-1.133-2.651-2.531a.843.843 0 01.844-.844h16.874a.843.843 0 01.844.844z" fill="#3BA673"/><path d="M31.219 22.781v-6.75a.843.843 0 01.53-.783l4.219-1.688a.844.844 0 01.627 1.567l-3.689 1.475v6.18H31.22z" fill="#E74444"/><path d="M31.219 19.406h1.687v3.375H31.22v-3.375z" fill="#CE3536"/></svg><svg fill="none" viewBox="0 0 52 44" id="lorry" xmlns="http://www.w3.org/2000/svg"><path d="M37.399 36.55v-22.1h-34v22.1a1.7 1.7 0 001.7 1.7h30.6a1.7 1.7 0 001.7-1.7z" fill="#289BC3"/><path d="M13.601 33.15h-3.4a5.1 5.1 0 100 10.2h3.4a5.1 5.1 0 100-10.2zm30.598 0h-3.4a5.1 5.1 0 100 10.2h3.4a5.1 5.1 0 100-10.2z" fill="#32283C"/><path d="M40.799 43.35a5.1 5.1 0 100-10.2 5.1 5.1 0 000 10.2z" fill="#555A6E"/><path d="M40.798 39.95a1.7 1.7 0 100-3.4 1.7 1.7 0 000 3.4z" fill="#E6E6EB"/><path d="M30.601 33.15h-3.4a5.1 5.1 0 000 10.2h3.4a5.1 5.1 0 100-10.2z" fill="#32283C"/><path d="M47.602 16.15h-25.5a1.7 1.7 0 00-1.7 1.7v1.7h27.2a1.7 1.7 0 100-3.4z" fill="#A5C3DC"/><path d="M30.602 16.15h-8.5a1.7 1.7 0 00-1.7 1.7v1.7h10.2a1.7 1.7 0 100-3.4z" fill="#D7E6F0"/><path d="M20.402 19.55h27.2v8.5h-27.2v-8.5z" fill="#463C4B"/><path d="M20.402 19.55h10.2v8.5h-10.2v-8.5z" fill="#555A6E"/><path d="M49.302 38.25h-27.2a1.7 1.7 0 01-1.7-1.7v-8.5h27.2a3.4 3.4 0 013.4 3.4v5.1a1.7 1.7 0 01-1.7 1.7z" fill="#A5C3DC"/><path d="M32.302 38.25h-10.2a1.7 1.7 0 01-1.7-1.7v-8.5h10.2a3.4 3.4 0 013.4 3.4v5.1a1.7 1.7 0 01-1.7 1.7z" fill="#D7E6F0"/><path d="M38.107 31.45h8.784a2.408 2.408 0 110 4.817h-8.784a2.408 2.408 0 110-4.817z" fill="#555A6E"/><path d="M38.11 35.133a1.275 1.275 0 100-2.55 1.275 1.275 0 000 2.55zm8.778 0a1.275 1.275 0 100-2.55 1.275 1.275 0 000 2.55z" fill="#00D2D2"/><path d="M16.15 0h-5.1a.85.85 0 000 1.7C14.33 1.7 17 4.37 17 7.65c0 .47.38.85.85.85h5.1c.47 0 .85-.38.85-.85C23.8 3.432 20.368 0 16.15 0z" fill="#A5C3DC"/><path d="M29.75 0h-5.1C20.43 0 17 3.432 17 7.65c0 .47.38.85.85.85h5.1a.85.85 0 00.85-.85c0-3.28 2.669-5.95 5.95-5.95a.85.85 0 100-1.7z" fill="#A5C3DC"/><path d="M33.15 0h-5.1a.85.85 0 000 1.7 2.553 2.553 0 012.55 2.55 2.553 2.553 0 01-2.55 2.55.85.85 0 000 1.7h5.1a4.255 4.255 0 004.25-4.25A4.255 4.255 0 0033.15 0zM12.749 6.8a2.553 2.553 0 01-2.55-2.55 2.553 2.553 0 012.55-2.55.85.85 0 000-1.7h-5.1a4.255 4.255 0 00-4.25 4.25 4.255 4.255 0 004.25 4.25h5.1a.85.85 0 000-1.7z" fill="#A5C3DC"/><path d="M39.1 8.5H1.7A1.7 1.7 0 000 10.2v2.55a1.7 1.7 0 001.7 1.7h37.4a1.7 1.7 0 001.7-1.7V10.2a1.7 1.7 0 00-1.7-1.7z" fill="#289BC3"/><path d="M18.699 38.25h-13.6a1.7 1.7 0 01-1.7-1.7v-17h17v17a1.7 1.7 0 01-1.7 1.7zM20.4 8.5H1.7A1.7 1.7 0 000 10.2v2.55a1.7 1.7 0 001.7 1.7h18.7a1.7 1.7 0 001.7-1.7V10.2a1.7 1.7 0 00-1.7-1.7z" fill="#00D2D2"/><path d="M11.898 12.75a1.7 1.7 0 001.7 1.7h-5.1a1.7 1.7 0 01-1.7-1.7V10.2a1.7 1.7 0 011.7-1.7h5.1a1.7 1.7 0 00-1.7 1.7v2.55z" fill="#D7E6F0"/><path d="M28.903 12.75a1.7 1.7 0 01-1.7 1.7h5.1a1.7 1.7 0 001.7-1.7V10.2a1.7 1.7 0 00-1.7-1.7h-5.1a1.7 1.7 0 011.7 1.7v2.55z" fill="#A5C3DC"/><path d="M28.053 8.5h-11.05v-.85c0-4.218 3.432-7.65 7.65-7.65h3.4a4.255 4.255 0 014.25 4.25 4.255 4.255 0 01-4.25 4.25zm-9.29-1.7h9.29a2.553 2.553 0 002.55-2.55 2.553 2.553 0 00-2.55-2.55h-3.4a5.96 5.96 0 00-5.89 5.1z" fill="#D7E6F0"/><path d="M18.699 8.5H7.649a4.255 4.255 0 01-4.25-4.25A4.255 4.255 0 017.649 0h3.4c4.218 0 7.65 3.432 7.65 7.65v.85zM7.649 1.7a2.553 2.553 0 00-2.55 2.55 2.553 2.553 0 002.55 2.55h9.29a5.96 5.96 0 00-5.89-5.1h-3.4z" fill="#D7E6F0"/><path d="M27.201 43.35a5.1 5.1 0 100-10.2 5.1 5.1 0 000 10.2z" fill="#555A6E"/><path d="M27.2 39.95a1.7 1.7 0 100-3.4 1.7 1.7 0 000 3.4z" fill="#E6E6EB"/><path d="M10.201 43.35a5.1 5.1 0 100-10.2 5.1 5.1 0 000 10.2z" fill="#555A6E"/><path d="M10.197 39.95a1.7 1.7 0 100-3.4 1.7 1.7 0 000 3.4z" fill="#E6E6EB"/></svg><svg viewBox="0 -53 384 384" id="menu" xmlns="http://www.w3.org/2000/svg"><path d="M368 154.668H16c-8.832 0-16-7.168-16-16s7.168-16 16-16h352c8.832 0 16 7.168 16 16s-7.168 16-16 16zM368 32H16C7.168 32 0 24.832 0 16S7.168 0 16 0h352c8.832 0 16 7.168 16 16s-7.168 16-16 16zm0 245.332H16c-8.832 0-16-7.168-16-16s7.168-16 16-16h352c8.832 0 16 7.168 16 16s-7.168 16-16 16zm0 0"/></svg><svg fill="none" viewBox="0 0 44 44" id="money-back" xmlns="http://www.w3.org/2000/svg"><path d="M35.575 30.372H12.543a.934.934 0 01-.933-.934V18.68c0-.515.418-.933.934-.933h23.03c.516 0 .934.418.934.933v10.758a.933.933 0 01-.934.934z" fill="url(#ipaint0_linear)"/><path d="M11.635 29.05l1.322 1.322h22.617a.934.934 0 00.934-.934V18.68a.934.934 0 00-.934-.934h-23.03a.934.934 0 00-.934.934v10.316l.025.054z" fill="url(#ipaint1_linear)"/><path d="M34.172 28.971H11.14a.934.934 0 01-.934-.933V17.28c0-.516.418-.934.934-.934h23.03c.516 0 .934.418.934.934v10.758a.934.934 0 01-.933.933z" fill="url(#ipaint2_linear)"/><path d="M10.232 27.65l1.322 1.321h22.617a.934.934 0 00.934-.933V17.28a.934.934 0 00-.933-.934H11.14a.934.934 0 00-.934.934v10.315l.025.055z" fill="url(#ipaint3_linear)"/><path d="M32.774 27.57H9.743a.934.934 0 01-.934-.933V15.88c0-.515.418-.933.934-.933h23.03c.516 0 .934.418.934.933v10.758a.934.934 0 01-.933.934z" fill="url(#ipaint4_linear)"/><path d="M8.834 26.25l1.322 1.32h22.618a.934.934 0 00.933-.933V15.88a.934.934 0 00-.933-.933H9.743a.934.934 0 00-.934.933v10.316l.025.054z" fill="url(#ipaint5_linear)"/><path d="M31.457 26.253H8.427a.934.934 0 01-.934-.933V14.562c0-.516.418-.934.933-.934h23.031c.516 0 .934.418.934.934V25.32a.934.934 0 01-.934.933z" fill="url(#ipaint6_linear)"/><path d="M30.983 16.297a1.345 1.345 0 01-1.263-1.264 1.35 1.35 0 01.047-.429H10.113a1.333 1.333 0 01-1.216 1.693 1.333 1.333 0 01-.643-.127v7.541a1.333 1.333 0 011.906 1.138c.008.149-.01.293-.047.428h19.654a1.333 1.333 0 01-.047-.428 1.345 1.345 0 011.262-1.265c.231-.012.45.035.644.127v-7.54a1.332 1.332 0 01-.643.126z" fill="url(#ipaint7_linear)"/><path d="M19.94 23.174a3.233 3.233 0 100-6.466 3.233 3.233 0 000 6.466z" fill="url(#ipaint8_linear)"/><path d="M15.496 15.792h-4.965v1.428h4.965v-1.428z" fill="url(#ipaint9_linear)"/><path d="M29.348 22.662h-4.965v1.428h4.965v-1.428z" fill="url(#ipaint10_linear)"/><path d="M42.732 9.973a1.93 1.93 0 00-2.327.835 21.573 21.573 0 00-5.708-6.22A21.42 21.42 0 0021.94.415 21.42 21.42 0 009.183 4.587a21.491 21.491 0 00-7.733 10.61 1.93 1.93 0 003.665 1.217A17.65 17.65 0 0111.468 7.7 17.583 17.583 0 0121.94 4.277c3.799 0 7.42 1.184 10.472 3.424a17.744 17.744 0 014.45 4.724 1.931 1.931 0 00-.948 3.723l4.02 1.471.03.01.101.032.055.015c.035.009.07.016.105.023l.054.011c.037.006.075.01.113.015l.046.005a1.956 1.956 0 00.309.001c.012 0 .023-.003.035-.004.039-.003.077-.007.114-.013l.044-.009.105-.021.048-.013.098-.028.014-.005.029-.01a1.941 1.941 0 00.297-.133l.038-.02c.047-.027.092-.057.137-.088l.05-.038a2.066 2.066 0 00.229-.201c.008-.01.018-.017.026-.026.04-.043.078-.088.114-.134l.007-.01c.032-.043.062-.086.091-.131l.023-.037c.022-.037.043-.074.063-.112l.024-.048c.017-.036.034-.073.049-.11l.021-.052.008-.018 1.47-4.02a1.931 1.931 0 00-1.149-2.477z" fill="url(#ipaint11_linear)"/><path d="M1.268 34.027a1.93 1.93 0 002.327-.836 21.573 21.573 0 005.708 6.221 21.42 21.42 0 0012.757 4.172 21.41 21.41 0 0012.756-4.172 21.491 21.491 0 007.734-10.61 1.93 1.93 0 10-3.665-1.216 17.65 17.65 0 01-6.353 8.713 17.583 17.583 0 01-10.472 3.424c-3.799 0-7.42-1.184-10.472-3.424a17.745 17.745 0 01-4.45-4.724 1.931 1.931 0 00.948-3.723l-4.02-1.471-.03-.01a1.919 1.919 0 00-.101-.032l-.055-.015a2.062 2.062 0 00-.105-.024l-.054-.01a2.012 2.012 0 00-.113-.015l-.046-.005a1.954 1.954 0 00-.309-.001c-.012 0-.023.003-.035.004a1.88 1.88 0 00-.114.013l-.044.009-.105.021-.048.013a2.012 2.012 0 00-.098.028l-.015.004-.028.011a2.022 2.022 0 00-.297.133l-.038.02a1.918 1.918 0 00-.137.088l-.05.038a1.998 1.998 0 00-.229.201c-.008.01-.018.017-.026.026a1.93 1.93 0 00-.114.134l-.007.01a1.939 1.939 0 00-.091.131l-.023.037a1.957 1.957 0 00-.063.112l-.024.048a1.97 1.97 0 00-.049.11l-.021.052-.008.018-1.47 4.02a1.93 1.93 0 001.149 2.477z" fill="url(#ipaint12_radial)"/><defs><linearGradient id="ipaint0_linear" x1="11.61" y1="24.059" x2="36.507" y2="24.059" gradientUnits="userSpaceOnUse"><stop stop-color="#61DB99"/><stop offset="1" stop-color="#009E74"/></linearGradient><linearGradient id="ipaint1_linear" x1="25.184" y1="27.865" x2="23.878" y2="23.118" gradientUnits="userSpaceOnUse"><stop stop-color="#009E74" stop-opacity="0"/><stop offset="1" stop-color="#009E74"/></linearGradient><linearGradient id="ipaint2_linear" x1="10.207" y1="22.659" x2="35.105" y2="22.659" gradientUnits="userSpaceOnUse"><stop stop-color="#61DB99"/><stop offset="1" stop-color="#009E74"/></linearGradient><linearGradient id="ipaint3_linear" x1="23.626" y1="27.038" x2="22.765" y2="22.914" gradientUnits="userSpaceOnUse"><stop stop-color="#009E74" stop-opacity="0"/><stop offset="1" stop-color="#009E74"/></linearGradient><linearGradient id="ipaint4_linear" x1="8.809" y1="21.259" x2="33.707" y2="21.259" gradientUnits="userSpaceOnUse"><stop stop-color="#61DB99"/><stop offset="1" stop-color="#009E74"/></linearGradient><linearGradient id="ipaint5_linear" x1="23.131" y1="28.398" x2="19.127" y2="12.543" gradientUnits="userSpaceOnUse"><stop stop-color="#009E74" stop-opacity="0"/><stop offset="1" stop-color="#009E74"/></linearGradient><linearGradient id="ipaint6_linear" x1="7.492" y1="19.941" x2="32.39" y2="19.941" gradientUnits="userSpaceOnUse"><stop stop-color="#A7F3CE"/><stop offset="1" stop-color="#61DB99"/></linearGradient><linearGradient id="ipaint7_linear" x1="13.436" y1="13.438" x2="29.279" y2="29.281" gradientUnits="userSpaceOnUse"><stop stop-color="#61DB99"/><stop offset="1" stop-color="#009E74"/></linearGradient><linearGradient id="ipaint8_linear" x1="18.016" y1="18.017" x2="22.703" y2="22.704" gradientUnits="userSpaceOnUse"><stop stop-color="#A7F3CE"/><stop offset="1" stop-color="#61DB99"/></linearGradient><linearGradient id="ipaint9_linear" x1="11.669" y1="15.162" x2="14.945" y2="18.438" gradientUnits="userSpaceOnUse"><stop stop-color="#A7F3CE"/><stop offset="1" stop-color="#61DB99"/></linearGradient><linearGradient id="ipaint10_linear" x1="25.52" y1="22.031" x2="28.796" y2="25.308" gradientUnits="userSpaceOnUse"><stop stop-color="#A7F3CE"/><stop offset="1" stop-color="#61DB99"/></linearGradient><linearGradient id="ipaint11_linear" x1="1.352" y1="9.077" x2="43.999" y2="9.077" gradientUnits="userSpaceOnUse"><stop stop-color="#FFB92D"/><stop offset="1" stop-color="#F59500"/></linearGradient><radialGradient id="ipaint12_radial" cx="0" cy="0" r="1" gradientUnits="userSpaceOnUse" gradientTransform="rotate(180 11.142 11.07) scale(21.8589)"><stop stop-color="#BE3F45"/><stop offset=".317" stop-color="#C14046"/><stop offset=".538" stop-color="#CA4148"/><stop offset=".729" stop-color="#D9444B"/><stop offset=".902" stop-color="#EF4950"/><stop offset="1" stop-color="#FF4C54"/></radialGradient></defs></svg><svg fill="none" viewBox="0 0 16 13" id="order" xmlns="http://www.w3.org/2000/svg"><path d="M2.156 4.552h2.422a.313.313 0 000-.625H2.156a.313.313 0 000 .625zm0 2.165h2.422a.313.313 0 000-.625H2.156a.313.313 0 000 .625zm3.003 5.238a.315.315 0 00-.408-.17.315.315 0 00-.17.41.317.317 0 00.409.168.315.315 0 00.169-.408z" fill="#F98AAB"/><path d="M15.916 7.119L12.2 3.129l1.138-1.136c.198-.195.307-.456.307-.734 0-.274-.106-.532-.3-.727a1.042 1.042 0 00-1.461-.011l-.003.003-1.56 1.556h-.584V.88a.313.313 0 00-.312-.312H7.769V.313a.313.313 0 00-.625 0v.255H6.002V.313a.313.313 0 00-.625 0v.255H4.236V.313a.313.313 0 00-.625 0v.255H2.469V.313a.313.313 0 00-.625 0v.255H.313A.313.313 0 000 .88v11.194c0 .173.14.313.313.313h3.19a.313.313 0 000-.625H.624V1.192h1.22v.284a.313.313 0 00.624 0v-.283H3.61v.283a.313.313 0 00.625 0v-.283h1.141v.283a.313.313 0 00.625 0v-.283h1.142v.283a.313.313 0 00.625 0v-.283H9.11v.89a2.259 2.259 0 00-1.495.655l-2.3 2.3a.315.315 0 00.051.483 2.125 2.125 0 001.16.341h.001l-.358.358a.312.312 0 00-.062.089L5.105 7.815a.682.682 0 00-.114.44H2.157a.313.313 0 000 .625h3.52a.692.692 0 00.382-.12l1.524-1.036a.324.324 0 00.05-.04l.707-.706.771.77v4.014h-2.86a.313.313 0 000 .625h3.173c.172 0 .312-.14.312-.313V8.358c.395.328.888.507 1.408.507h1.247c.26 0 .51.107.688.293l2.38 2.53c.19.201.541.063.541-.214V7.332a.312.312 0 00-.084-.213zm-7.858-3.94a1.625 1.625 0 011.145-.474h.49L7.746 4.648c-.18.173-.351.342-.582.45-.34.157-.736.182-1.094.07L8.058 3.18zm4.261-2.21a.415.415 0 01.582.004.405.405 0 01-.004.578L9.63 4.808l-.158-.157a1.219 1.219 0 00-.534-.311L12.32.968zM5.708 8.243c-.027.018-.052.016-.075-.007-.035-.034-.017-.06-.008-.075l.817-1.227.482.482-1.216.827zM7.413 7.02l-.58-.58.596-.594c.056.203.167.389.316.538l.153.152-.485.484zm7.962 3.665l-1.842-1.958a1.586 1.586 0 00-1.142-.488h-1.247c-.422 0-.82-.164-1.118-.462l-1.84-1.836c-.265-.2-.206-.641 0-.85a.611.611 0 01.846 0l1.495 1.496c.12.12.321.12.442 0a.313.313 0 000-.442l-.896-.896 1.684-1.68 3.618 3.885v3.231z" fill="#F98AAB"/></svg><svg fill="none" viewBox="0 0 11 17" id="touch" xmlns="http://www.w3.org/2000/svg"><path d="M6.384 4.125c.871-.362 1.34-1.204 1.128-2.028C7.3 1.273 6.464.687 5.5.687s-1.8.586-2.012 1.41c-.212.824.257 1.666 1.128 2.028h1.768z" fill="#F98AAB"/><path d="M3.162 4.813a.268.268 0 01-.2-.092C1.82 3.443 1.758 1.465 2.819.11a.268.268 0 01.26-.107.28.28 0 01.214.187c.034.1.015.21-.05.29-.885 1.129-.833 2.777.12 3.842a.303.303 0 01.052.314.275.275 0 01-.253.176zm5.105-1.375a.324.324 0 01-.259-.118.205.205 0 01-.01-.24c.552-.87.41-1.921-.361-2.674A.21.21 0 017.58.162a.296.296 0 01.237-.159.342.342 0 01.286.09c.925.904 1.096 2.167.433 3.211a.318.318 0 01-.27.134z" fill="#F98AAB"/><path d="M11 7.865v4.434s0 1.51-.919 2.383a.547.547 0 00-.159.398v.86a.55.55 0 01-.539.56h-4.31a.552.552 0 01-.54-.56v-.104a1.698 1.698 0 00-.481-1.193c-.52-.527-1.323-1.437-1.674-2.344C1.84 10.899.762 8.937.223 8.377c-.539-.56 0-1.12.539-1.12s1.616 1.12 2.155 1.96c.172.271.372.52.598.743.135.13.323.18.5.131a.546.546 0 00.376-.366c.103-.346.15-.706.143-1.068V2.215a.83.83 0 01.808-.84c.446 0 .808.376.808.84v3.361a.83.83 0 01.809-.84c.446 0 .808.376.808.84v.84c0-.222.085-.436.237-.593a.76.76 0 01.302-.196.721.721 0 01.27-.05c.445 0 .807.376.807.84v1.4a.86.86 0 01.237-.594.761.761 0 01.302-.196.754.754 0 01.329-.047c.433.048.758.432.749.885z" fill="#F98AAB"/><path d="M5.515 1.393a.77.77 0 00-.277.05.824.824 0 00-.555.782v6.383a3.33 3.33 0 01-.148 1.058.563.563 0 01-.25.305.552.552 0 00.805-.305c.106-.343.156-.7.148-1.058V2.225a.824.824 0 01.555-.782.772.772 0 00-.278-.05zm1.388 3.38a.824.824 0 00-.555.782v2.498a.278.278 0 00.555 0V5.555a.824.824 0 01.555-.782.796.796 0 00-.555 0zm1.668.833a.83.83 0 00-.555.783v1.664a.277.277 0 00.555 0V6.388a.824.824 0 01.555-.782.796.796 0 00-.555 0zm1.942 1.337a.769.769 0 00-.278.05.83.83 0 00-.555.783v.554a.277.277 0 10.555 0v-.555a.824.824 0 01.555-.782.769.769 0 00-.277-.05zm-.544 2.682c-.19 0-.344.115-.344.258v1.547c0 .142.154.258.344.258.19 0 .344-.116.344-.258V9.883c0-.143-.154-.258-.344-.258zm.121 2.75c-.123.003-.224.146-.234.331a.92.92 0 01-.161.453.468.468 0 00-.063.334c.021.12.084.214.163.246.08.031.165-.005.222-.094.174-.242.28-.575.296-.931 0-.186-.1-.337-.223-.339zm-4.132 2.75H5.73c-.126 0-.229.154-.229.344 0 .19.103.344.23.344h.228c.127 0 .23-.155.23-.344 0-.19-.103-.344-.23-.344zm2.75 0H7.104c-.126 0-.229.154-.229.344 0 .19.103.344.23.344h1.603c.127 0 .23-.155.23-.344 0-.19-.103-.344-.23-.344z" fill="#F8EDF0"/></svg></svg>