<?xml version="1.0" encoding="utf-8"?><svg viewBox="0 0 512 512" xmlns="http://www.w3.org/2000/svg" xmlns:xlink="http://www.w3.org/1999/xlink"><style>:root>svg{display:none}:root>svg:target{display:block}</style><svg viewBox="0 0 284.929 284.929" id="angle-arrow-down" xmlns="http://www.w3.org/2000/svg"><path d="M282.082 76.511l-14.274-14.273c-1.902-1.906-4.093-2.856-6.57-2.856-2.471 0-4.661.95-6.563 2.856L142.466 174.441 30.262 62.241c-1.903-1.906-4.093-2.856-6.567-2.856-2.475 0-4.665.95-6.567 2.856L2.856 76.515C.95 78.417 0 80.607 0 83.082c0 2.473.953 4.663 2.856 6.565l133.043 133.046c1.902 1.903 4.093 2.854 6.567 2.854s4.661-.951 6.562-2.854L282.082 89.647c1.902-1.903 2.847-4.093 2.847-6.565 0-2.475-.945-4.665-2.847-6.571z"/></svg><svg viewBox="0 0 13 8" id="arrow-down" xmlns="http://www.w3.org/2000/svg"><g clip-path="url(#bclip0)"><path d="M12.337 1.186L11.4.114 6.46 5.76 1.539.114.6 1.186l5.86 6.702h.017l5.86-6.702z"/></g><defs><clipPath id="bclip0"><path fill="#fff" transform="translate(.469)" d="M0 0h12v8H0z"/></clipPath></defs></svg><svg viewBox="0 0 25 19" id="arrow-left" xmlns="http://www.w3.org/2000/svg"><path d="M24.81 8.625H4.325l6.777-6.689L9.64.47 1.9 8.11.413 9.578l1.486 1.44L9.64 18.66l1.46-1.467-6.594-6.509H24.81V8.625z"/></svg><svg viewBox="0 0 25 19" id="arrow-right" xmlns="http://www.w3.org/2000/svg"><path d="M.414 10.503h20.487l-6.777 6.69 1.486 1.466 7.715-7.641h.026l1.46-1.44-1.46-1.467h-.026L15.61.47l-1.486 1.466 6.62 6.51H.415v2.057z"/></svg><svg viewBox="0 0 512 512" id="enter" xmlns="http://www.w3.org/2000/svg"><path d="M218.668 240H16c-8.832 0-16-7.168-16-16s7.168-16 16-16h202.668c8.832 0 16 7.168 16 16s-7.168 16-16 16zm0 0"/><path d="M138.668 320a15.89 15.89 0 01-11.309-4.691c-6.25-6.254-6.25-16.387 0-22.637l68.696-68.692-68.696-68.671c-6.25-6.254-6.25-16.387 0-22.637s16.383-6.25 22.637 0l80 80c6.25 6.25 6.25 16.383 0 22.637l-80 80A15.975 15.975 0 01138.668 320zm202.664 192c-23.531 0-42.664-19.137-42.664-42.668v-384c0-18.238 11.605-34.516 28.883-40.512L455.723 2.09C484.395-6.7 512 14.57 512 42.668v384c0 18.219-11.605 34.473-28.863 40.488L354.922 509.91c-4.672 1.45-9 2.09-13.59 2.09zm128-480c-1.387 0-2.559.172-3.816.555L337.879 75.113c-4.184 1.453-7.211 5.676-7.211 10.219v384c0 7.277 7.89 12.184 14.484 10.113l127.637-42.558c4.16-1.453 7.211-5.676 7.211-10.219v-384C480 36.801 475.223 32 469.332 32zm0 0"/><path d="M186.668 106.668c-8.832 0-16-7.168-16-16v-32c0-32.363 26.3-58.668 58.664-58.668h240c8.832 0 16 7.168 16 16s-7.168 16-16 16h-240c-14.7 0-26.664 11.969-26.664 26.668v32c0 8.832-7.168 16-16 16zm128 341.332h-85.336c-32.363 0-58.664-26.305-58.664-58.668v-32c0-8.832 7.168-16 16-16s16 7.168 16 16v32c0 14.7 11.965 26.668 26.664 26.668h85.336c8.832 0 16 7.168 16 16s-7.168 16-16 16zm0 0"/></svg><svg fill="none" viewBox="0 0 26 26" id="linked" xmlns="http://www.w3.org/2000/svg"><path d="M24.08 0H1.92A1.92 1.92 0 000 1.92v22.16A1.92 1.92 0 001.92 26h22.16A1.92 1.92 0 0026 24.08V1.92A1.92 1.92 0 0024.08 0zM7.75 22.149H3.84V9.732h3.91v12.417zM5.791 8.01A2.244 2.244 0 118.05 5.77a2.212 2.212 0 01-2.258 2.24zm16.367 14.15H18.25v-6.784c0-2-.85-2.618-1.949-2.618-1.159 0-2.296.874-2.296 2.669v6.733h-3.91V9.74h3.76v1.72h.05c.378-.763 1.7-2.069 3.716-2.069 2.181 0 4.538 1.295 4.538 5.087l-.002 7.68z" fill="#fff"/></svg><svg viewBox="0 0 75 24" id="logo" xmlns="http://www.w3.org/2000/svg"><path d="M49.39 1.19h-2.623v21.274h2.624V1.19zm6.688 0h-2.623v21.274h2.623V1.19zm17.653 6.925l-1.311 2.857c-1.204-2.056-3.312-3.224-5.784-3.224-4.43 0-7.44 3.375-7.44 7.53 0 4.156 3.01 7.532 7.44 7.532 2.343 0 4.365-1.06 5.59-2.922v2.575H75V8.115h-1.269zm-6.687 13.158c-3.118 0-4.838-2.553-4.838-5.994 0-3.528 1.72-5.995 4.838-5.995 2.86 0 4.989 2.51 4.989 5.995 0 3.484-2.129 5.994-4.989 5.994zM23.115 9.262a7.124 7.124 0 00-1.85 2.9l-1.354-4.068h-1.269v14.348h2.774v-5.454c0-1.97.215-3.614 1.01-4.782.689-.996 1.872-1.602 3.355-1.602.473 0 .946.043 1.42.13V7.986a5.473 5.473 0 00-.84-.065 4.824 4.824 0 00-3.246 1.341zm12.622-1.514c-4.451 0-7.612 3.246-7.612 7.53 0 4.286 3.096 7.532 7.59 7.532a8.224 8.224 0 004.73-1.429 6.69 6.69 0 002.388-3.57h-2.86c-.43 1.817-1.548 3.484-4.064 3.484-3.548 0-4.688-2.792-4.752-5.778v-.044h11.998v-.346c.022-4.285-3.01-7.38-7.418-7.38zm.021 1.514c3.14 0 4.129 2.576 4.215 4.653h-8.73c.258-2.532 1.548-4.653 4.515-4.653zM9.461 12.01c2.817-.583 4.989-2.098 4.989-4.739 0-3.246-2.43-4.804-6.172-4.804H0v20.018h9.16c3.376 0 6.042-1.731 6.042-5.389 0-3.03-2.537-4.869-5.741-5.085zM7.332 3.918c2.688 0 4.086 1.363 4.086 3.506 0 2.142-1.527 3.809-4.322 3.809h-4V3.917h4.236zm.366 17.075H3.096v-8.094h4.129c2.946 0 4.773 1.45 4.773 4.069 0 2.294-1.526 4.025-4.3 4.025z"/></svg><svg fill="none" viewBox="0 0 26 22" id="twitter" xmlns="http://www.w3.org/2000/svg"><path d="M8.176 21.563c9.812 0 15.178-8.129 15.178-15.178 0-.23 0-.46-.015-.69A10.853 10.853 0 0026 2.936a10.66 10.66 0 01-3.064.839 5.352 5.352 0 002.345-2.95 10.687 10.687 0 01-3.387 1.294 5.34 5.34 0 00-9.09 4.865A15.145 15.145 0 011.81 1.41a5.338 5.338 0 001.65 7.12 5.287 5.287 0 01-2.421-.667v.068a5.336 5.336 0 004.28 5.229 5.325 5.325 0 01-2.409.091 5.341 5.341 0 004.984 3.705A10.7 10.7 0 010 19.166a15.103 15.103 0 008.176 2.393" fill="#FAFAFA"/></svg><svg fill="none" viewBox="0 0 26 20" id="youtube" xmlns="http://www.w3.org/2000/svg"><path d="M25.482 3.7a3.268 3.268 0 00-2.299-2.313C21.15.841 13.025.841 13.025.841S4.9.84 2.868 1.387A3.268 3.268 0 00.569 3.701C.025 5.742.025 10 .025 10s0 4.257.544 6.299a3.268 3.268 0 002.299 2.313c2.032.547 10.157.547 10.157.547s8.125 0 10.158-.547a3.267 3.267 0 002.299-2.313c.543-2.042.543-6.3.543-6.3s0-4.257-.543-6.298z" fill="#FAFAFA"/><path d="M10.367 13.866V6.134L17.163 10l-6.796 3.866z" fill="#214E41"/></svg></svg>