<svg width="95" height="97" viewBox="0 0 95 97" fill="none" xmlns="http://www.w3.org/2000/svg">
<path d="M56.1843 49.7148C54.4521 49.1328 51.9583 49.2578 48.7031 49.2578H35.625V66.6875H49.6108C51.7958 66.6875 53.3306 66.4488 54.2146 66.2821C55.7724 65.9971 57.075 65.4454 58.1214 64.7801C59.1672 64.1162 60.0274 63.1091 60.7028 61.839C61.3767 60.5689 61.7144 59.0829 61.7144 57.421C61.7144 55.4749 61.226 53.9805 60.2486 52.5437C59.2718 51.1069 57.9173 50.2968 56.1843 49.7148ZM54.389 41.7456C56.1086 41.2242 57.4052 40.3134 58.2773 39.1031C59.1501 37.8921 59.5858 36.3515 59.5858 34.5229C59.5858 32.7905 59.1783 31.2537 58.3641 29.9351C57.55 28.6165 56.3884 28.1065 54.8766 27.6192C53.3648 27.1335 50.7723 27.2812 47.0985 27.2812H35.625V42.4375H47.9357C50.9356 42.4375 53.0857 42.1495 54.389 41.7456ZM93.5156 14.1143C93.5156 7.15602 87.9915 1.51562 81.1768 1.51562H13.0811C6.26629 1.51562 0.742188 7.15602 0.742188 14.1143V83.6436C0.742188 90.6018 6.26629 96.2422 13.0811 96.2422H81.1768C87.9915 96.2422 93.5156 90.6018 93.5156 83.6436V14.1143ZM67.2073 64.2208C66.1964 66.3222 64.9459 67.9424 63.4578 69.0822C61.9689 70.2219 60.1023 71.1889 57.8587 71.7709C55.6158 72.3537 52.8653 72.75 49.6108 72.75H28.9453V20.4609H49.2961C53.203 20.4609 56.3357 20.9224 58.6959 21.9781C61.0568 23.0352 62.9048 24.6281 64.243 26.8243C65.5797 29.0204 66.2484 31.3007 66.2484 33.6984C66.2484 35.9302 65.6546 38.024 64.4694 39.9943C63.2834 41.9661 61.4925 43.5515 59.0982 44.7625C62.1901 45.6885 64.5681 47.2663 66.2306 49.4973C67.8931 51.729 68.7243 54.364 68.7243 57.4028C68.7243 59.8482 68.2189 62.1202 67.2073 64.2208Z" fill="#5B4282"/>
</svg>
