<svg width="60" height="85" viewBox="0 0 60 85" fill="none" xmlns="http://www.w3.org/2000/svg">
<path d="M15 85C18.9782 85 22.7936 83.5074 25.6066 80.8507C28.4196 78.1939 30 74.5905 30 70.8333V56.6666H15C11.0218 56.6666 7.20644 58.1592 4.3934 60.8159C1.58035 63.4727 0 67.0761 0 70.8333C0 74.5905 1.58035 78.1939 4.3934 80.8507C7.20644 83.5074 11.0218 85 15 85Z" fill="#0ACF83"/>
<path d="M0 42.5C0 38.7427 1.58035 35.1394 4.3934 32.4826C7.20644 29.8259 11.0218 28.3333 15 28.3333H30V56.6666H15C11.0218 56.6666 7.20644 55.1741 4.3934 52.5173C1.58035 49.8606 0 46.2572 0 42.5Z" fill="#A259FF"/>
<path d="M0 14.1667C-1.21344e-06 10.4113 1.57874 6.80968 4.38925 4.15323C7.19977 1.49678 11.0121 0.00293384 14.9883 0L29.9883 0V28.3333H15C11.0218 28.3333 7.20644 26.8408 4.3934 24.184C1.58035 21.5272 0 17.9239 0 14.1667Z" fill="#F24E1E"/>
<path d="M30 0H45C48.9782 0 52.7936 1.49256 55.6066 4.14932C58.4197 6.80609 60 10.4094 60 14.1667C60 17.9239 58.4197 21.5272 55.6066 24.184C52.7936 26.8408 48.9782 28.3333 45 28.3333H30V0Z" fill="#FF7262"/>
<path d="M60 42.5C60 46.2572 58.4197 49.8606 55.6066 52.5173C52.7936 55.1741 48.9782 56.6666 45 56.6666C41.0218 56.6666 37.2064 55.1741 34.3934 52.5173C31.5804 49.8606 30 46.2572 30 42.5C30 38.7427 31.5804 35.1394 34.3934 32.4826C37.2064 29.8259 41.0218 28.3333 45 28.3333C48.9782 28.3333 52.7936 29.8259 55.6066 32.4826C58.4197 35.1394 60 38.7427 60 42.5Z" fill="#1ABCFE"/>
</svg>
