<svg width="100" height="98" viewBox="0 0 100 98" fill="none" xmlns="http://www.w3.org/2000/svg">
<path d="M93.2922 25.1255C88.8211 17.4648 82.7563 11.3998 75.0963 6.92914C67.4351 2.45826 59.0714 0.223389 49.9992 0.223389C40.9282 0.223389 32.5617 2.45894 24.9021 6.92914C17.2414 11.3996 11.1769 17.4648 6.70575 25.1255C2.23533 32.786 0 41.1513 0 50.2212C0 61.1162 3.17866 70.9133 9.53759 79.615C15.8958 88.3173 24.1097 94.339 34.1786 97.6807C35.3507 97.8982 36.2183 97.7452 36.7824 97.2256C37.3468 96.7052 37.6286 96.0535 37.6286 95.2732C37.6286 95.143 37.6175 93.9716 37.5958 91.7578C37.5735 89.5439 37.563 87.6125 37.563 85.9646L36.0655 86.2236C35.1108 86.3985 33.9064 86.4726 32.4522 86.4516C30.9988 86.4313 29.49 86.279 27.9278 85.9958C26.3649 85.7151 24.9112 85.0641 23.5657 84.0441C22.2208 83.0242 21.266 81.6891 20.7017 80.0409L20.0507 78.5428C19.6167 77.5454 18.9336 76.4375 18.0003 75.223C17.067 74.0074 16.1232 73.1833 15.1684 72.7494L14.7126 72.4231C14.4089 72.2062 14.127 71.9447 13.8664 71.6412C13.606 71.3377 13.411 71.034 13.2808 70.7298C13.1504 70.4254 13.2585 70.1757 13.6062 69.9798C13.954 69.7839 14.5824 69.6888 15.4943 69.6888L16.7958 69.8833C17.6639 70.0573 18.7377 70.577 20.0185 71.4455C21.2986 72.3134 22.351 73.4417 23.1757 74.8299C24.1745 76.6098 25.3778 77.9661 26.789 78.8994C28.1991 79.8327 29.6209 80.2986 31.0529 80.2986C32.4849 80.2986 33.7217 80.1901 34.7637 79.9741C35.8047 79.757 36.7813 79.4307 37.6932 78.997C38.0838 76.0879 39.1473 73.853 40.8828 72.2908C38.4092 72.0309 36.1852 71.6394 34.2099 71.1188C32.2356 70.5975 30.1955 69.7515 28.0908 68.5786C25.985 67.4072 24.2381 65.9527 22.8497 64.2174C21.461 62.4812 20.3213 60.2019 19.4323 57.3814C18.5427 54.5599 18.0979 51.305 18.0979 47.616C18.0979 42.3635 19.8126 37.8938 23.2414 34.2043C21.6352 30.2554 21.7868 25.8285 23.6968 20.9242C24.9555 20.5331 26.8221 20.8266 29.2957 21.8027C31.7698 22.7794 33.5812 23.616 34.7318 24.3096C35.8824 25.0031 36.8043 25.5907 37.4989 26.0673C41.5361 24.9392 45.7023 24.3751 49.9987 24.3751C54.2952 24.3751 58.4623 24.9392 62.4997 26.0673L64.9736 24.5055C66.6653 23.4634 68.663 22.5085 70.962 21.6404C73.2623 20.7727 75.0213 20.5338 76.2371 20.9248C78.1894 25.8294 78.3634 30.2561 76.7568 34.205C80.1853 37.8944 81.9008 42.3653 81.9008 47.6167C81.9008 51.3057 81.4543 54.5708 80.5661 57.414C79.6768 60.2577 78.5274 62.5348 77.1173 64.25C75.7056 65.965 73.9475 67.4081 71.8428 68.5793C69.7377 69.7513 67.6969 70.5973 65.7226 71.1186C63.7475 71.6398 61.5236 72.0316 59.05 72.292C61.306 74.2443 62.4343 77.3261 62.4343 81.5359V95.2714C62.4343 96.0517 62.7057 96.7032 63.2488 97.2237C63.7913 97.7434 64.648 97.8964 65.82 97.6786C75.8903 94.3374 84.1042 88.3155 90.4622 79.6132C96.8195 70.9115 99.9993 61.1144 99.9993 50.2194C99.997 41.1506 97.7606 32.786 93.2922 25.1255Z" fill="black"/>
</svg>
