<svg width="118" height="122" viewBox="0 0 118 122" fill="none" xmlns="http://www.w3.org/2000/svg">
<path fill-rule="evenodd" clip-rule="evenodd" d="M34.077 33.7969C34.8855 42.5961 35.6876 51.3458 36.508 60.2918C37.8457 57.9138 38.8136 55.633 40.2739 53.7648C41.6337 52.0244 43.3474 50.4184 45.2124 49.3061C47.647 47.8535 50.8395 49.2213 51.6286 51.7976C51.8407 52.4886 51.3345 53.415 51.1575 54.2338C50.562 53.9087 49.7941 53.7296 49.4051 53.232C47.7521 51.1189 46.7565 50.8692 44.9284 52.6954C41.5184 56.1038 39.6009 60.3738 38.8689 65.1728C38.7279 66.1011 39.2893 67.1429 39.5262 68.1322C40.4583 67.8005 41.5405 67.6786 42.2937 67.099C44.7422 65.2147 46.2596 62.6518 47.0967 59.5884C47.2783 58.925 48.2629 58.4971 48.8787 57.9605C49.1737 58.5876 49.8466 59.3263 49.7056 59.8229C48.4085 64.436 47.0008 69.0196 45.524 73.5755C45.3746 74.0368 44.5551 74.2665 44.0453 74.604C43.8397 73.9978 43.4073 73.363 43.4765 72.7921C43.6314 71.4977 44.0342 70.2348 44.3154 69.0491L37.641 72.2259C38.0144 76.6312 38.4016 81.5732 38.8607 86.5085C39.2128 90.2771 39.8093 91.2531 43.399 91.968C47.588 92.802 51.8554 93.3348 56.1135 93.6588C62.4053 94.1383 68.6418 93.5454 74.7631 91.8441C77.0419 91.2112 77.9509 89.6614 78.1141 87.3482C78.2634 85.2179 78.5972 83.1011 78.8285 80.9765C79.283 76.7914 79.7246 72.6052 80.1892 68.2447C78.6525 69.2512 77.4439 70.3778 76.0306 70.8553C75.0018 71.2032 73.7038 70.6942 72.5248 70.5665C72.7506 69.4475 72.7368 68.1866 73.2586 67.243C74.1085 65.7008 75.3088 64.3636 76.3598 62.9396L75.9071 62.3763C75.1539 62.8367 74.2182 63.1388 73.6826 63.7917C72.593 65.1204 71.5264 66.5424 70.7972 68.0998C69.5766 70.7066 68.6464 73.4583 67.554 76.1309C67.0792 77.2899 66.6699 79.0627 65.0797 78.3859C63.3788 77.6606 64.5754 76.1118 64.9746 75.01C65.6098 73.2524 66.4487 71.573 67.0166 70.2806C65.407 70.4788 63.7752 70.7181 62.1362 70.8658C61.4429 70.9268 60.6187 70.5341 60.0518 70.7991C58.1666 71.6798 56.9718 71.3262 56.58 69.1683C55.707 69.7545 54.9677 70.5484 54.0965 70.7619C53.0391 71.0221 51.6047 71.1927 50.8303 70.6466C50.2099 70.2091 49.984 68.565 50.196 67.6004C50.6173 65.6827 51.4046 63.8394 52.1522 62.016C52.615 60.8866 53.0806 59.0833 54.6422 59.8686C56.1854 60.6435 54.7842 61.9512 54.4284 63.0006C53.8762 64.6228 53.3138 66.2422 52.757 67.8625L53.642 68.4153C54.4846 67.6585 55.5346 67.0419 56.1246 66.1135C57.0907 64.5961 57.6743 62.8233 58.5888 61.2659C58.9677 60.6207 59.7835 60.2508 60.4021 59.7562C60.5275 60.5778 60.828 61.4222 60.7284 62.2152C60.6298 63.0168 60.085 63.7498 59.8241 64.5428C59.4323 65.7304 59.1161 66.9446 58.7178 68.3257C60.6012 68.4001 61.4079 67.5804 61.9398 66.1345C63.6231 61.5662 65.3249 57.0026 67.1751 52.5048C67.4913 51.7347 68.5662 51.3 69.2917 50.7091C69.3756 51.6375 69.7757 52.6897 69.4909 53.4722C67.9744 57.6174 66.2717 61.6882 64.6713 65.8009C64.4012 66.4938 64.3145 67.263 64.144 67.9969C66.964 66.6863 69.3176 65.2376 70.1767 62.139C70.3869 61.386 71.248 60.8265 71.8094 60.1775L73.1148 61.6071C73.5112 61.2621 73.8744 60.8694 74.3049 60.5825C75.6601 59.6799 77.1194 58.8841 78.5483 60.2823C80.027 61.7282 78.9078 63.1369 78.1353 64.3874C77.2945 65.7513 76.2648 66.9894 75.3171 68.2819C77.4485 66.8617 80.3588 66.225 80.746 63.156C81.69 55.6596 82.5197 48.1481 83.3614 40.6384C83.6112 38.4157 83.7449 36.1787 83.9394 33.8626C67.1521 38.065 50.7252 38.0907 34.077 33.7969ZM41.2824 92.2892C42.0909 94.4976 43.3188 96.6669 43.6406 98.9715C44.32 103.877 44.4924 108.857 44.9736 113.796C45.0437 114.516 45.4945 115.504 46.0568 115.821C54.3352 120.472 62.6939 121.278 71.1401 116.192C72.4003 115.433 72.6335 114.431 72.7967 113.023C73.5868 106.178 71.8278 98.9182 76.0601 92.4731C64.2085 95.5127 52.6418 95.607 41.2824 92.2892ZM69.8522 35.0254C73.8735 34.6242 77.8458 33.6482 81.8228 32.8418C82.5723 32.6903 83.2379 32.1003 83.9422 31.7124C83.0139 30.8689 82.2109 30.4628 81.372 30.3608C77.1959 29.8509 73.0051 29.4582 68.8317 28.9235C68.2012 28.8425 67.0756 28.0381 67.1226 27.8913C68.3404 24.0979 68.2804 19.804 71.0442 16.6072C74.5372 12.566 78.0662 8.56002 81.5684 4.55212C78.9631 1.65462 78.9281 1.65081 76.5672 4.18708C75.2323 5.62058 74.0127 7.18942 72.5644 8.48758C67.2055 13.2894 63.4415 18.9767 62.7077 26.475C62.539 28.1953 61.6254 28.8168 59.8785 28.8435C54.1112 28.9302 48.3375 29.0941 42.5832 29.4859C39.7318 29.6794 36.9155 30.4361 34.0826 30.9375L34.0568 32.0326C35.8295 32.5978 37.5682 33.3403 39.3787 33.6996C49.4677 35.6993 59.6517 36.0424 69.8522 35.0254ZM66.6294 32.4062C64.3459 34.3125 62.4588 34.3125 60.6363 32.4062H66.6294Z" fill="#EB4A4B"/>
</svg>
