<svg width="55" height="55" viewBox="0 0 55 55" fill="none" xmlns="http://www.w3.org/2000/svg">
<path d="M27.5 11.1025L7.88457 31.4226C7.88457 31.4512 7.87884 31.4934 7.86737 31.5509C7.85613 31.608 7.85016 31.6494 7.85016 31.6789V52.255C7.85016 52.998 8.06631 53.6418 8.4985 54.184C8.93057 54.7264 9.44221 54.9994 10.0336 54.9994H23.133V38.538H31.8672V55H44.9665C45.5578 55 46.0701 54.7276 46.5016 54.184C46.9338 53.6424 47.1507 52.9981 47.1507 52.255V31.6789C47.1507 31.5648 47.1382 31.4786 47.1162 31.4226L27.5 11.1025Z" fill="white"/>
<path d="M54.6206 26.7927L47.15 18.9908V1.50071C47.15 1.10087 47.0477 0.772052 46.8424 0.514701C46.6388 0.257651 46.3771 0.129126 46.0582 0.129126H39.5084C39.1898 0.129126 38.9282 0.257651 38.7233 0.514701C38.5189 0.772052 38.4167 1.10102 38.4167 1.50071V9.85979L30.093 1.11453C29.366 0.371462 28.5016 0 27.5008 0C26.5001 0 25.6358 0.371462 24.9081 1.11453L0.379082 26.7927C0.151697 27.0209 0.0270709 27.3281 0.00389022 27.714C-0.0191709 28.0995 0.0602885 28.4363 0.242507 28.7219L2.35756 31.8942C2.53978 32.1512 2.77828 32.3084 3.07401 32.3659C3.34704 32.3948 3.62007 32.2945 3.8931 32.066L27.5001 7.33058L51.1073 32.0658C51.2896 32.2652 51.528 32.3647 51.8237 32.3647H51.9262C52.2215 32.3083 52.4595 32.15 52.6427 31.8936L54.758 28.7217C54.9398 28.4356 55.0195 28.0994 54.9959 27.7134C54.9726 27.3285 54.8475 27.0213 54.6206 26.7927Z" fill="white"/>
</svg>
