<svg width="100" height="100" viewBox="0 0 100 100" fill="none" xmlns="http://www.w3.org/2000/svg">
<g clip-path="url(#clip0)">
<path d="M7.2567 24.4567C-1.59664 37.1833 -0.493307 53.7366 6.2667 67.26C6.42669 67.58 6.59669 67.8966 6.76336 68.2166C6.86669 68.42 6.96669 68.6266 7.07669 68.83C7.14336 68.9466 7.21003 69.0633 7.2767 69.18C7.39003 69.3933 7.51003 69.5967 7.63003 69.81C7.84003 70.18 8.05336 70.5466 8.27336 70.9166C8.3967 71.12 8.51336 71.32 8.64003 71.5233C8.88336 71.9133 9.13003 72.3033 9.39336 72.6966C9.4967 72.86 9.60336 73.03 9.71003 73.19C10.0634 73.71 10.4234 74.2366 10.7934 74.7533C10.8067 74.7667 10.8134 74.7866 10.8267 74.7933C10.8867 74.8766 10.95 74.9633 11.01 75.04C11.3334 75.49 11.6634 75.9266 12 76.3566C12.1234 76.52 12.2467 76.6766 12.37 76.8333C12.67 77.21 12.9767 77.5833 13.2867 77.96C13.4 78.0966 13.5134 78.24 13.6334 78.3766C14.05 78.8633 14.4767 79.3533 14.91 79.83C14.9167 79.8366 14.93 79.85 14.9367 79.8567C14.9567 79.8833 14.97 79.89 14.9867 79.9166C15.4067 80.38 15.8434 80.8266 16.28 81.2766C16.4167 81.42 16.5534 81.5566 16.6967 81.6933C17.0367 82.04 17.38 82.3766 17.73 82.71C17.8734 82.8466 18.0134 82.9833 18.1534 83.1133C18.62 83.55 19.0867 83.98 19.57 84.4033C19.5767 84.41 19.5834 84.4166 19.5934 84.4166C19.6734 84.4933 19.76 84.56 19.8367 84.63C20.26 84.9933 20.69 85.36 21.1267 85.7166C21.3034 85.86 21.48 85.9966 21.66 86.14C22.01 86.42 22.37 86.7 22.73 86.98C22.9234 87.1233 23.11 87.2666 23.3034 87.4166C23.7 87.71 24.1 87.9966 24.5034 88.2766C24.6534 88.3867 24.7967 88.49 24.9434 88.59C24.9867 88.6166 25.0234 88.65 25.0634 88.6733C25.4467 88.94 25.84 89.1933 26.2367 89.4466C26.4034 89.5566 26.57 89.6733 26.7367 89.7867C27.3434 90.1633 27.95 90.5433 28.5667 90.9066C28.7367 91.0033 28.9067 91.0966 29.0734 91.1933C29.53 91.4533 29.9834 91.7066 30.4467 91.96C30.6934 92.0966 30.9534 92.22 31.2067 92.35C31.5367 92.52 31.8567 92.6966 32.19 92.8567C32.2634 92.8966 32.3434 92.9333 32.4167 92.9666C32.55 93.0333 32.6834 93.0966 32.8167 93.1633C33.33 93.41 33.8534 93.65 34.3767 93.8867C34.4867 93.94 34.5934 93.9833 34.7067 94.03C35.3067 94.2966 35.91 94.55 36.5234 94.7867C36.67 94.8533 36.8167 94.9033 36.9667 94.9633C37.5334 95.1833 38.1067 95.4 38.68 95.6C38.75 95.6266 38.8234 95.6466 38.8934 95.67C39.5234 95.89 40.1634 96.1 40.8067 96.2966C40.96 96.3433 41.1134 96.3933 41.27 96.4333C41.92 96.6367 42.5667 96.87 43.2434 96.9933C86.0634 104.8 98.4934 71.2633 98.4934 71.2633C88.0534 84.87 69.51 88.4633 51.94 84.4666C51.2767 84.3167 50.63 84.11 49.98 83.9133C49.8167 83.8666 49.6534 83.8166 49.4934 83.7633C48.86 83.5733 48.23 83.3666 47.6067 83.15C47.5234 83.1166 47.4334 83.09 47.3467 83.06C46.7867 82.8566 46.2334 82.6566 45.68 82.44C45.5267 82.3733 45.37 82.3167 45.2167 82.2566C44.61 82.0166 44.0134 81.77 43.4167 81.5066C43.2967 81.4533 43.18 81.4033 43.06 81.35C42.55 81.1167 42.0467 80.88 41.5434 80.64C41.3967 80.5733 41.2534 80.5033 41.1034 80.43C40.7134 80.2333 40.3234 80.0333 39.93 79.83C39.67 79.6933 39.4067 79.5633 39.15 79.42C38.6734 79.1666 38.2067 78.9066 37.7434 78.6333C37.5867 78.55 37.4267 78.4633 37.2667 78.3733C36.6467 78.01 36.0434 77.63 35.4367 77.2466C35.27 77.1433 35.1067 77.0333 34.9434 76.92C34.5067 76.64 34.07 76.3466 33.64 76.0533C33.4967 75.9566 33.36 75.85 33.22 75.76C32.8067 75.4667 32.3967 75.1666 31.99 74.8666C31.8034 74.73 31.6234 74.5933 31.4467 74.45C31.0734 74.17 30.7 73.8833 30.3334 73.5833C30.1667 73.4533 30 73.3166 29.84 73.1866C29.37 72.8033 28.9134 72.42 28.4567 72.02C28.4067 71.98 28.3567 71.9366 28.3034 71.89C27.81 71.46 27.3267 71.0166 26.85 70.57C26.7 70.4433 26.5667 70.3133 26.4334 70.1833C26.08 69.8433 25.73 69.5066 25.3867 69.1533C25.25 69.0167 25.1134 68.8867 24.9767 68.75C24.5434 68.3 24.1134 67.85 23.6934 67.39C23.6734 67.37 23.6534 67.3433 23.63 67.3233C23.1867 66.8367 22.7534 66.34 22.33 65.84C22.2134 65.7033 22.1034 65.5733 21.9867 65.4366C21.67 65.06 21.3567 64.67 21.05 64.2767C20.9367 64.14 20.82 63.9967 20.7067 63.8533C20.3367 63.37 19.9767 62.8967 19.6267 62.4133C9.87336 49.11 6.36669 30.7633 14.1667 15.6933" fill="#78CFF5"/>
<path d="M34.74 13.7333C28.3367 22.9533 28.6867 35.2833 33.68 45.03C34.5167 46.6633 35.4567 48.2467 36.5134 49.7567C37.47 51.13 38.5367 52.77 39.8067 53.8667C40.27 54.3733 40.75 54.8767 41.2467 55.3567C41.37 55.4867 41.4967 55.61 41.6234 55.7333C42.1034 56.1967 42.5867 56.65 43.09 57.0933C43.1134 57.1133 43.13 57.1333 43.1534 57.1467C43.1567 57.1533 43.16 57.1533 43.1667 57.16C43.72 57.6467 44.2967 58.1167 44.88 58.58C45.01 58.6767 45.14 58.7833 45.27 58.8867C45.8567 59.3367 46.45 59.7733 47.06 60.1967C47.08 60.21 47.0967 60.2233 47.1134 60.2367C47.3867 60.4267 47.66 60.5933 47.9334 60.7767C48.0634 60.86 48.1867 60.9533 48.32 61.03C48.7567 61.31 49.2 61.5833 49.6467 61.8433C49.7134 61.8833 49.7734 61.9133 49.8367 61.9533C50.2234 62.1733 50.6167 62.3967 51.0134 62.61C51.15 62.6867 51.2934 62.7533 51.43 62.8233C51.7034 62.9667 51.9767 63.11 52.2534 63.2533C52.2967 63.2733 52.3334 63.2933 52.3767 63.3067C52.94 63.5867 53.51 63.8533 54.0934 64.1067C54.2167 64.16 54.3434 64.21 54.47 64.2633C54.9334 64.46 55.4034 64.6533 55.8767 64.83C56.0767 64.9067 56.2767 64.98 56.4767 65.05C56.9067 65.2133 57.3367 65.3567 57.77 65.5C57.9667 65.5667 58.1567 65.63 58.3534 65.69C58.97 65.88 59.5767 66.1267 60.22 66.23C93.28 71.7067 100.91 46.26 100.91 46.26C94.03 56.16 80.7067 60.8933 66.4934 57.2C65.8634 57.03 65.2367 56.8533 64.6167 56.66C64.4267 56.6 64.2467 56.5367 64.0567 56.4767C63.6134 56.3333 63.1767 56.1833 62.7434 56.02C62.5434 55.95 62.35 55.8767 62.1534 55.8067C61.6767 55.6233 61.21 55.4367 60.74 55.2333C60.6167 55.18 60.4867 55.13 60.3634 55.0767C59.7767 54.8233 59.2034 54.55 58.6367 54.27C58.3434 54.1333 58.0567 53.9833 57.77 53.8333C57.6067 53.75 57.4367 53.6567 57.2734 53.5733C56.9067 53.3767 56.54 53.17 56.18 52.9633C56.0934 52.91 56.0034 52.8667 55.9167 52.8167C55.47 52.5567 55.03 52.2833 54.5967 52.01C54.46 51.92 54.33 51.8267 54.1934 51.7433C53.9067 51.5533 53.62 51.3667 53.3367 51.17C52.7267 50.7533 52.1367 50.31 51.55 49.8667C51.4134 49.7567 51.28 49.6533 51.1467 49.5467C44.9234 44.63 39.99 37.92 37.6434 30.3033C35.19 22.4067 35.7167 13.5467 39.9734 6.35" fill="#78CFF5"/>
<path d="M57.8502 5.72665C54.0769 11.28 53.7069 18.18 56.3269 24.3133C59.0869 30.83 64.7469 35.9333 71.3535 38.3567C71.6269 38.46 71.9002 38.5533 72.1735 38.6433C72.2969 38.6833 72.4135 38.72 72.5369 38.76C72.9235 38.8767 73.3102 39.02 73.7169 39.1C91.9702 42.63 96.9169 29.73 98.2369 27.83C93.8935 34.08 86.6135 35.5767 77.6669 33.4033C76.9602 33.2333 76.1835 32.98 75.5069 32.74C74.6302 32.4267 73.7702 32.07 72.9369 31.6733C71.3469 30.91 69.8335 29.9867 68.4302 28.9267C60.4302 22.8533 55.4535 11.27 60.6769 1.83665" fill="#78CFF5"/>
</g>
<defs>
<clipPath id="clip0">
<rect width="100" height="100" fill="white"/>
</clipPath>
</defs>
</svg>
