<svg width="88" height="100" viewBox="0 0 88 100" fill="none" xmlns="http://www.w3.org/2000/svg">
<path d="M8.16849 89.9108L0 0L88 0.0343166L79.9002 89.8421L43.9314 100L8.16849 89.9108ZM73.2761 85.0034L80.1061 7.99588H44.0686L44.3432 92.9307L73.2761 85.0034ZM40.7051 19.2862H31.9532L31.8502 65.3741L14.8612 60.7413L14.8955 71.2766L40.7051 78.243V19.2862Z" fill="#D4B830"/>
<path opacity="0.986" d="M14.8954 71.2766L14.8611 60.7413C14.8611 60.7413 25.7067 63.7955 31.8502 65.3741L31.9531 19.3205H40.7051V78.243L14.8954 71.2766Z" fill="#EBEBEB" fill-opacity="0.9216"/>
<path d="M44.0687 7.96155H80.1062L73.2762 84.9691L44.0687 92.8964V7.96155ZM71.4229 72.0659L73.791 43.2738L56.2871 45.2299V29.8559L74.958 29.7872L75.713 19.2862L47.5352 19.4235L47.9127 57.6527L64.9361 54.7358L64.6959 63.2464L47.5352 67.8106L47.7068 78.243L71.4229 72.0659Z" fill="#FDD83C"/>
</svg>
