<svg width="100" height="94" viewBox="0 0 100 94" fill="none" xmlns="http://www.w3.org/2000/svg">
<path d="M99.9588 44.5352C99.9266 43.3276 99.8588 42.0864 99.7909 40.8788C99.7231 39.6712 99.6909 38.3997 99.5552 37.1585C99.3195 35.4766 99.0838 33.7577 98.6767 32.1128C98.3397 30.7604 97.8993 29.4328 97.3588 28.1403C96.7452 26.5913 96.0466 25.0733 95.266 23.5925C93.853 21.2961 92.3029 19.0769 90.6233 16.9457C89.5769 15.5464 88.2269 14.4027 87.2127 12.9731C86.5829 12.146 85.8202 11.4163 84.952 10.8102C83.602 9.80111 82.1842 8.86935 80.7664 7.98132C79.695 7.28166 78.6236 6.61564 77.4593 6.01017C76.5486 5.53251 75.5701 5.15241 74.6237 4.73867C73.5702 4.18491 72.4472 3.75774 71.2809 3.46717C70.9835 3.3965 70.6902 3.31117 70.4023 3.21153C69.6274 2.95588 68.8845 2.66996 68.106 2.44796C66.9239 2.11158 65.7775 1.68439 64.5632 1.39847C63.3734 1.12237 62.1679 0.910111 60.9526 0.762719C59.6026 0.570985 58.2169 0.507074 56.867 0.382616C55.9884 0.288431 55.1099 0.190882 54.267 0.160608C52.9849 0.096697 51.6671 0.0966966 50.385 0.0664229C49.7342 0.013554 49.081 -0.00777809 48.4279 0.00251153C47.4453 0.0404879 46.4655 0.125815 45.4922 0.258157C44.5458 0.352342 43.603 0.513802 42.6887 0.63826C41.5745 0.766083 40.4602 0.829994 39.3459 0.957816C38.2995 1.08564 37.2031 1.27737 36.1746 1.43547C35.8175 1.49938 35.4318 1.6272 35.0603 1.69111C34.2297 1.80466 33.4069 1.96415 32.5961 2.16877C31.1461 2.58251 29.6926 3.06016 28.2748 3.56808C26.9618 4.06388 25.6779 4.62531 24.4285 5.24996C23.1463 5.92271 21.9285 6.71319 20.7143 7.47676C19.5679 8.20669 18.4179 8.97026 17.3036 9.79775C16.2329 10.6057 15.2077 11.4657 14.2323 12.3744C13.693 12.8823 13.2537 13.4878 12.7466 14.0563C11.9037 14.9779 11.0573 15.8693 10.2466 16.8213C9.57166 17.6151 8.96453 18.4426 8.32169 19.2701C7.20181 20.7308 6.1865 22.2602 5.28248 23.8481C4.92535 24.4839 4.56821 25.1196 4.23608 25.7554C3.72895 26.7107 3.18967 27.6323 2.71826 28.6179C2.37808 29.3023 2.10667 30.0151 1.90756 30.7472C1.43614 32.3046 0.961155 33.8956 0.52188 35.4564C0.164826 36.8575 -0.0102606 38.2943 0.000464378 39.7351C-0.00533949 40.9999 0.0733856 42.2638 0.236173 43.5193C0.268315 43.8355 0.0683198 44.219 0.471882 44.4746C0.504024 44.4746 0.471882 44.6024 0.436168 44.6327C0.412985 44.6737 0.399902 44.7191 0.397888 44.7655C0.395875 44.812 0.404982 44.8582 0.424536 44.9009C0.44409 44.9435 0.473588 44.9815 0.510842 45.0119C0.548095 45.0424 0.592148 45.0645 0.639734 45.0767C0.65756 45.0942 0.668847 45.1166 0.671877 45.1406H0.511166C0.411168 45.4266 0.746875 45.6486 0.611164 45.9681C0.579022 46.032 0.711161 46.1599 0.779017 46.254C0.762387 46.3589 0.762387 46.4654 0.779017 46.5702C0.854371 46.8638 0.910429 47.1615 0.946871 47.4616C0.946871 47.6836 1.15044 47.9393 1.21829 48.1613C1.23306 48.2154 1.23463 48.272 1.22288 48.3267C1.21112 48.3815 1.18636 48.433 1.15044 48.4775C0.94687 48.6995 0.982583 48.8912 1.28615 49.019C1.37031 49.07 1.43042 49.1495 1.454 49.2411C1.43703 49.4339 1.40359 49.6251 1.354 49.8129C1.42186 49.8768 1.454 49.9407 1.42186 50.0046C1.38972 50.0685 1.32186 50.1964 1.354 50.2603C1.60634 50.7792 1.74366 51.3412 1.75757 51.9119C1.77619 52.0563 1.82216 52.1964 1.89328 52.3256C1.96262 52.3224 2.03193 52.3327 2.09684 52.3559L1.89328 52.9277C2.04392 52.8505 2.20171 52.7863 2.36469 52.736C2.45333 53.1233 2.56663 53.5052 2.70397 53.8797C2.75359 53.9587 2.82361 54.0247 2.90754 54.0714C2.87182 54.1353 2.87182 54.2631 2.80754 54.2934C2.90183 54.8562 3.04883 55.41 3.24681 55.9484C3.28253 55.9484 3.31467 55.9147 3.34681 55.9147C3.24682 55.3429 3.17896 54.7374 3.07539 54.1656V53.9739C3.10676 53.958 3.14046 53.9467 3.17539 53.9402C3.2206 54.0639 3.25406 54.1911 3.27539 54.3203C3.54681 54.3203 3.95037 54.4784 4.22179 54.4784C4.24997 54.3816 4.28334 54.2861 4.32179 54.1925C4.11822 54.0008 3.96466 53.7148 3.7468 53.5197C3.78291 53.6658 3.78291 53.8177 3.7468 53.9638C3.61109 53.8998 3.44324 53.8359 3.27539 53.772C3.42163 53.594 3.57905 53.4244 3.7468 53.2641C3.7468 52.9782 3.57895 52.7225 3.10396 52.7562C3.30753 52.6923 3.51109 52.5981 3.7468 52.5342C3.77449 52.6212 3.80788 52.7066 3.8468 52.7898C4.11822 52.3458 3.71109 51.996 3.71109 51.5486C3.63733 50.9853 3.50209 50.4307 3.30753 49.8936C3.13968 49.0022 3.17182 47.6668 3.07182 46.7788C3.07182 46.7149 2.97182 46.651 2.90397 46.5871C2.86825 46.6207 2.7004 47.0311 2.66826 47.0647C2.76826 47.8283 2.87182 48.5918 2.93968 49.3554C2.90754 49.3554 2.87182 49.3554 2.87182 49.3857C2.73611 48.7129 2.6004 48.02 2.43255 47.2564C2.40036 47.403 2.3777 47.5513 2.36469 47.7005C2.2647 47.6702 2.22898 47.6365 2.06113 47.5726C2.19684 47.8586 2.33255 48.0503 2.41826 48.2723C2.25687 48.2139 2.08316 48.192 1.91113 48.2084V49.0998C1.67739 48.8577 1.4737 48.5914 1.304 48.3059C1.23615 48.0503 1.20401 47.798 1.13615 47.5424L1.23615 47.5087C1.19213 47.4066 1.15864 47.3007 1.13615 47.1925C1.10282 46.9683 1.06949 46.7138 1.03615 46.429C1.0683 46.3987 1.20401 46.365 1.27186 46.3011L1.00044 45.921C1.20141 45.9529 1.40409 45.9742 1.60757 45.9849C1.60757 45.921 1.63971 45.8908 1.60757 45.8571C1.26829 45.5712 1.50757 45.3156 1.63971 45.0633C1.70757 44.9355 1.94328 44.9052 1.99685 44.7774C2.26827 44.2997 2.71111 43.9196 2.71111 43.3141C2.73982 43.015 2.78512 42.7174 2.84682 42.4227C2.91468 41.8812 2.98254 41.343 3.01468 40.8014C3.03015 40.1139 3.09698 39.4282 3.21467 38.7495C3.4861 37.6361 3.8218 36.5227 4.19322 35.4127C4.46464 34.6188 4.76821 33.8553 5.10391 33.0581C5.57459 31.8128 6.11583 30.5923 6.7253 29.4017C7.636 27.6862 8.6824 26.0379 9.69666 24.356C10.3395 23.3066 11.0145 22.3378 11.7216 21.3051C12.4287 20.2725 13.0716 19.2869 13.8644 18.3787C14.9306 17.0767 16.1264 15.8737 17.4358 14.7862C18.7857 13.6425 20.0678 12.4652 21.5214 11.4224C23.3993 10.0495 25.3995 8.83176 27.4998 7.78286C29.222 6.9556 30.9981 6.23206 32.8175 5.61661C33.9639 5.20287 35.2139 5.0145 36.3889 4.6613C37.7208 4.25979 39.1083 4.04557 40.5066 4.02555C41.4173 3.99528 42.2923 3.89773 43.2066 3.80355C44.0173 3.73964 44.828 3.67572 45.7065 3.58154C45.641 3.66085 45.5847 3.74655 45.5387 3.83718C45.1815 4.34511 44.7637 4.84631 44.3923 5.36433C44.0887 5.77807 43.7494 6.22208 43.4459 6.63582C42.9066 7.30857 42.3316 7.98132 41.8245 8.65407C41.0495 9.70356 40.3388 10.7833 39.5281 11.8328C38.7174 12.8823 37.8388 13.804 36.996 14.7895C35.8817 16.1552 34.8532 17.5545 33.7211 18.9236C32.7068 20.2287 31.6283 21.4666 30.6497 22.7717C29.7712 23.9154 28.9962 25.1263 28.1498 26.3003C26.8998 28.0494 25.6499 29.765 24.4035 31.5141C23.4249 32.8596 22.4464 34.1546 21.4321 35.4901C21.357 35.5713 21.2645 35.6366 21.1607 35.6818C21.0928 35.7457 20.9571 35.8096 20.9571 35.8735C20.9214 36.0897 20.8653 36.3025 20.7893 36.5093C20.5178 36.9869 20.25 37.4646 19.9464 37.9086C19.7786 38.1642 19.5429 38.3862 19.3393 38.6385C19.2714 38.6082 19.2393 38.5746 19.1714 38.5746C19.3071 38.2551 19.8857 38.0667 19.6107 37.589C19.4429 37.8447 19.2714 38.0667 19.1036 38.319L18.7 39.0825C18.8357 39.1767 19.0572 39.2406 18.8357 39.4189C18.7357 39.577 18.6322 39.7553 18.5322 39.9268C18.5679 39.9268 18.5679 39.9571 18.6 39.9571C18.7 39.8293 18.8036 39.7351 18.9036 39.6207C18.9357 39.6207 18.9714 39.6544 19.0036 39.6544C18.8807 39.9665 18.7227 40.2654 18.5322 40.5458C18.3371 40.7968 18.095 41.0122 17.8179 41.1815C17.8536 41.2118 18.0893 41.3093 18.1215 41.3396C18.2215 41.2118 18.2572 41.2757 18.3572 41.1479C18.425 41.2421 18.525 41.084 18.5607 41.1782C18.6536 41.0829 18.7328 40.9766 18.7964 40.862C18.8501 40.7071 18.938 40.5646 19.0544 40.444C19.1707 40.3234 19.3128 40.2274 19.4714 40.1623C19.601 40.1023 19.7192 40.0228 19.8214 39.9268C20.8357 38.9413 21.8821 37.986 22.7928 36.9398C24.2213 35.3185 25.4927 33.6333 26.8427 31.9783C27.4177 31.2786 28.0926 30.579 28.6998 29.913C28.7676 29.9466 28.8355 29.9466 28.8676 29.9769C28.7998 30.6496 28.7319 31.3425 28.6998 31.9951C28.5998 33.1724 28.5319 34.3497 28.4284 35.5573C28.3962 36.035 28.4284 36.5126 28.3962 36.9869C28.3962 37.1147 28.2962 37.2089 28.2962 37.3233C28.2962 37.6395 28.3962 37.996 28.3962 38.3089C28.2962 39.4862 28.1605 40.6299 28.0569 41.8072C28.0607 42.0586 28.1178 42.3068 28.2248 42.5371C28.1743 42.4885 28.1179 42.4456 28.0569 42.4093C28.2313 44.228 28.254 46.0567 28.1248 47.8787C28.2605 47.8451 28.3284 47.8148 28.3284 47.7509C28.3784 47.5291 28.4118 47.3043 28.4284 47.0782C28.4454 46.8767 28.4454 46.6742 28.4284 46.4727V46.1565C28.5123 45.577 28.5457 44.992 28.5284 44.4073C28.4495 43.7933 28.4724 43.1714 28.5962 42.564C28.6641 42.3084 28.5641 41.9922 28.7319 41.6726V42.1503C28.7711 43.965 28.6924 45.7804 28.4962 47.5861C28.4641 47.7442 28.5962 48.0301 28.2248 47.9998C28.1891 47.9998 28.1569 48.1579 28.0891 48.2555C27.9212 48.5717 28.2926 48.9854 27.9534 49.305C27.8855 49.3689 28.0212 49.6413 28.0534 49.8465C28.0534 49.9104 28.0891 49.9743 28.0534 50.0046C27.9177 50.2266 27.9177 50.2266 28.1212 50.2603C28.1569 50.9599 28.2212 51.6058 28.2569 52.2785H28.3569C28.5939 51.057 28.7289 49.8198 28.7605 48.5784C28.8065 49.0963 28.8184 49.6165 28.7962 50.1358C28.7962 50.9633 28.7605 51.7571 28.7283 52.5846C28.7223 52.7455 28.6996 52.9055 28.6605 53.0623C28.5953 53.5041 28.4938 53.9404 28.3569 54.3674C28.2653 54.7536 28.2424 55.1514 28.2891 55.5447V56.7523C28.2891 56.7859 28.3891 56.8801 28.3891 57.0079C28.4212 57.2939 28.2534 57.5798 28.3534 57.8993C28.3891 57.9633 28.3212 58.0574 28.2855 58.1213C28.2419 58.2108 28.2306 58.3112 28.2534 58.4073L28.3534 58.8849C28.3534 58.9152 28.3891 58.9488 28.4212 59.0127C28.4447 58.9293 28.4567 58.8434 28.4569 58.7571C29.0319 58.821 28.7283 59.2987 28.9962 59.5509C28.8605 59.6149 28.7605 59.6451 28.7605 59.6788C28.8083 59.7866 28.8419 59.8996 28.8605 60.0151C28.8546 60.292 28.8319 60.5682 28.7926 60.8426C28.7926 61.5726 28.7569 62.3059 28.7569 63.0055C28.7569 63.0997 28.7926 63.1972 28.7926 63.2914C28.7926 63.3856 28.7569 63.4193 28.7569 63.5134V64.1862H28.8926C28.8247 64.2889 28.7457 64.3847 28.6569 64.4721C28.6248 64.4721 28.5212 64.4721 28.5212 64.4418V60.4659H28.0248C28.0891 62.2717 27.9984 64.0794 27.7534 65.8714C27.4293 65.9202 27.1026 65.9517 26.7748 65.9656C25.7284 65.9656 24.682 65.9656 23.6356 65.9959C22.3856 65.9959 21.1714 66.0295 19.9214 66.0295C19.3143 66.0295 18.6714 66.0934 18.0643 66.0934C17.2536 66.0934 16.4108 65.9992 15.6001 65.9992C14.3501 65.9992 13.1359 66.0934 11.8859 66.1271C10.9752 66.1573 10.0645 66.1573 9.15024 66.191C8.54312 66.2213 7.93599 66.2549 7.32886 66.3188C7.0421 66.3716 6.76027 66.4459 6.48602 66.5408C6.30667 66.5248 6.12611 66.5248 5.94675 66.5408C5.60747 66.6047 5.30391 66.7965 4.9682 66.8604C4.46107 66.9546 4.32536 67.0824 4.39322 67.56V67.8762C4.3231 67.8131 4.24372 67.7599 4.15751 67.7181C4.13199 67.721 4.10816 67.7316 4.08965 67.7484C4.12179 67.8426 4.18965 67.9065 4.22536 68.004C4.36107 67.9401 4.52893 67.782 4.66464 67.782H5.13606C5.0682 67.782 5.03606 67.9738 4.93249 68.1184C5.20391 68.0242 5.37176 67.9603 5.53962 67.8964C5.56326 67.9797 5.57408 68.0658 5.57176 68.152C6.00517 68.0688 6.44939 68.0472 6.88958 68.0881C8.21156 68.3741 9.55467 68.5653 10.9073 68.66C11.7859 68.7239 12.6287 68.7542 13.5073 68.7878C14.7573 68.8517 16.0072 68.9156 17.2536 68.9156C18.3 68.9156 19.3143 68.8214 20.3607 68.8214C21.8107 68.8214 23.2642 68.8853 24.7142 68.9156C25.0177 68.9156 25.357 68.882 25.6927 68.882H28.1569C30.3497 68.8181 32.5461 68.7878 34.7389 68.7239C35.9889 68.6936 37.271 68.6297 38.521 68.5961L42.3673 68.5019C43.853 68.4716 45.3387 68.4716 46.7886 68.438C47.9029 68.438 48.9814 68.4077 50.0957 68.3741C51.3457 68.3404 52.6278 68.2462 53.8777 68.1823C54.5527 68.152 55.2277 68.0881 55.9027 68.0242C56.7134 67.9603 57.5562 67.8661 58.3669 67.8325C59.5812 67.7686 60.8311 67.7383 62.0454 67.6744C63.5632 67.5802 65.0846 67.4524 66.6346 67.4187C68.0631 67.3548 69.4917 67.3885 70.9202 67.3548C72.1702 67.3246 73.4201 67.2607 74.7022 67.227L76.845 67.1328C76.845 67.1328 78.2736 67.1026 78.9879 67.0386C80.2021 66.9747 81.4199 66.8469 82.6342 66.8166C83.4092 66.7864 84.1877 66.8166 84.9627 66.7864C86.2127 66.7527 87.4948 66.6922 88.7448 66.6922C89.2162 66.6922 89.7233 66.7561 90.3304 66.7864C90.059 67.0084 89.8912 67.1227 89.6876 67.2943C89.8276 67.3336 89.9628 67.3866 90.0912 67.4524C90.0912 67.486 90.059 67.5163 90.059 67.5802C89.8912 67.5802 89.7233 67.6138 89.5519 67.6138C89.457 67.7843 89.3884 67.9667 89.3483 68.1554H89.9555C89.7197 68.1554 89.5162 68.4413 89.2805 68.6331C89.3162 68.6633 89.3483 68.6633 89.3805 68.697C89.0233 68.5691 88.7733 68.6331 88.6376 68.9829C88.7253 69.0086 88.8174 69.0189 88.909 69.0132C88.8769 69.1074 88.8412 69.2049 88.8091 69.3294C88.7668 69.3967 88.7434 69.4731 88.7412 69.5514L88.6412 69.4572C88.6471 69.3918 88.636 69.326 88.6091 69.2654C88.4055 69.4572 88.1019 69.585 88.2698 69.9954C88.1341 70.0593 87.9662 70.1232 87.7984 70.2174C87.8508 70.2873 87.8962 70.3616 87.9341 70.4394C87.6305 70.4697 87.3269 70.5336 87.3948 70.8834C87.5305 70.9137 87.6662 70.9776 87.7519 71.0112C87.5841 71.0751 87.4162 71.1693 87.2448 71.2332C87.2091 71.2971 87.1769 71.4552 87.1091 71.4889C86.6377 71.5831 86.9055 71.7445 87.0412 71.9026C86.9476 71.9673 86.8456 72.0205 86.7377 72.0607C86.8264 72.0839 86.9075 72.1279 86.9734 72.1885C86.898 72.2361 86.8192 72.2788 86.7377 72.3164C86.8019 72.3542 86.8702 72.3858 86.9412 72.4105C86.8055 72.5047 86.6365 72.6314 86.4341 72.7907C86.4287 72.8452 86.4399 72.9 86.4662 72.9487C86.3155 73.083 86.1803 73.2318 86.0627 73.3928C85.9567 73.611 85.8374 73.8232 85.7056 74.0285C85.091 74.8317 84.371 75.5585 83.5628 76.1914C83.2236 76.4299 82.907 76.6955 82.6163 76.9852C82.0092 77.5268 81.4699 78.1289 80.8307 78.6402C79.9878 79.313 79.1093 79.9117 78.1986 80.5172C77.0843 81.2471 75.9701 81.9804 74.8558 82.6801C74.2487 83.0602 73.5737 83.3528 72.9309 83.6892C72.288 84.0256 71.6809 84.3619 71.0416 84.6983C70.6588 84.9915 70.2528 85.2568 69.8274 85.4922C68.7131 85.9362 67.531 86.3196 66.3846 86.7334C66.2846 86.7637 66.2167 86.7973 66.1132 86.8276C65.2703 87.1639 64.4596 87.5575 63.6132 87.8367C62.8291 88.0868 62.0286 88.289 61.2169 88.4422C60.9249 88.4689 60.6315 88.479 60.3383 88.4725C59.7633 88.5666 59.1919 88.6945 58.6169 88.7584C57.1312 88.9501 55.6456 89.0746 54.1599 89.2663C53.2813 89.3605 52.4385 89.5219 51.5599 89.6027C50.9528 89.6363 50.31 89.5724 49.7028 89.5724C49.2543 89.6143 48.803 89.6244 48.3529 89.6027C47.6386 89.5085 46.9243 89.347 46.2101 89.2226C46.0366 89.1662 45.8501 89.1558 45.6708 89.1923C45.3994 89.3201 45.1637 89.1284 44.8958 89.1923C44.728 89.2226 44.5601 89.0981 44.3887 89.0981C44.2173 89.0981 44.0851 89.1284 43.9173 89.0981C43.5615 88.9703 43.1838 88.9053 42.803 88.9064C42.3753 88.8793 41.9541 88.7932 41.553 88.6507L39.7674 88.2706C39.5306 88.2021 39.3039 88.1061 39.0924 87.9847C39.0012 88.0397 38.8968 88.0721 38.7888 88.0789C38.2166 88.0228 37.6511 87.917 37.0996 87.7627C36.6582 87.5483 36.1676 87.4397 35.671 87.4465C35.5353 87.4768 35.4353 87.4129 35.3139 87.4129C35.2139 87.285 35.1103 87.0328 35.0103 87.0328C34.3354 87.0664 33.9389 86.5248 33.3568 86.36C33.0532 86.2658 32.8175 85.9463 32.514 85.8521C31.7711 85.5662 31.164 84.9607 30.3212 84.8665C30.0325 84.8057 29.7504 84.7202 29.4783 84.6109C29.5604 84.7235 29.6511 84.8303 29.7498 84.9304L29.6819 84.9943C28.7712 84.4864 27.8605 83.9852 26.9462 83.5008C26.8105 83.4672 26.7105 83.3427 26.607 83.2788L25.6963 82.707C25.5963 82.6431 25.3927 82.5489 25.3927 82.5792C25.1891 82.8012 24.9892 82.6128 24.8534 82.5489C23.9427 81.9434 22.8963 81.5633 22.0178 80.8939C21.6254 80.6612 21.2655 80.3833 20.9464 80.0664C20.4785 79.549 19.9038 79.1267 19.2571 78.8252C18.75 78.5696 18.2786 78.2837 17.8072 77.9977C17.6714 77.9291 17.5566 77.8287 17.4741 77.7061C17.3915 77.5836 17.3439 77.443 17.3358 77.2981C17.3358 77.0761 17.2358 76.8541 16.9322 76.9819C16.7965 76.7902 16.6608 76.5681 16.4929 76.5042C16.1263 76.326 15.7952 76.0893 15.5144 75.8046C15.2108 75.5489 14.9751 75.1991 14.6037 75.0746C14.0063 74.784 13.4956 74.3574 13.118 73.8334C12.1716 72.7839 11.3323 71.6403 10.4502 70.5268C10.3568 70.4338 10.2552 70.3483 10.1466 70.2712L10.1109 70.3048C10.2788 70.621 10.4502 70.9103 10.6181 71.2265C10.5824 71.2568 10.5181 71.2904 10.4824 71.3207C10.2788 71.0987 10.0431 70.8767 9.83951 70.6479C9.8038 70.6816 9.77166 70.7119 9.73952 70.7119L12.143 74.3918C12.3466 74.6777 12.5002 74.9636 12.718 75.2495C12.6794 75.2886 12.6333 75.3205 12.5823 75.3437C12.3988 75.307 12.2256 75.234 12.0742 75.1297C11.9227 75.0253 11.7965 74.8919 11.7038 74.7383C11.6065 74.4905 11.4238 74.2806 11.1848 74.1421C10.9459 74.0037 10.6646 73.9447 10.3859 73.9747C10.3139 73.7452 10.2578 73.5114 10.2181 73.275C10.0603 73.2776 9.9026 73.2675 9.74666 73.2448C10.2181 73.9444 10.6252 74.5499 11.0645 75.263C10.8966 75.1688 10.7931 75.1049 10.7288 75.0713C11.3359 75.6768 11.7752 76.437 12.5502 76.8204C12.718 77.5504 13.5966 77.9002 13.8001 78.5998L13.3287 78.5057C13.0573 78.1895 12.7537 77.8699 12.4502 77.5201C12.5099 77.7279 12.6131 77.9223 12.7537 78.0919C13.1338 78.5757 13.5516 79.0322 14.0037 79.4576C14.1716 79.6157 14.4073 79.6796 14.4073 79.9655C14.4875 79.8986 14.5793 79.8452 14.6787 79.8074C14.6255 79.8992 14.5802 79.9948 14.543 80.0933C14.6787 80.0933 14.7787 80.1236 14.8822 80.1236C14.9501 80.3154 14.8465 80.6013 15.2394 80.5374C15.2751 80.5374 15.3072 80.5676 15.3394 80.6013C15.5072 81.015 15.7787 81.015 16.1501 80.8569C16.1971 80.8422 16.2476 80.8404 16.2957 80.8517C16.3437 80.863 16.3874 80.887 16.4215 80.9208C16.5894 81.2572 16.8251 81.3009 17.1358 81.0487C17.1358 81.2067 17.1679 81.3648 17.1679 81.4927H17.3215C17.3215 81.4288 17.2893 81.3346 17.2893 81.1765C17.4572 81.3043 17.5608 81.3682 17.6286 81.4321C17.9344 81.8845 18.31 82.2914 18.7429 82.6397C19.3857 83.1476 19.9571 83.6892 20.5643 84.1668C21.758 85.0668 23.0345 85.8649 24.3785 86.5517C25.9998 87.4095 27.5498 88.3312 29.2069 89.1586C31.2055 90.1215 33.3278 90.8372 35.521 91.2879C36.3317 91.446 37.1067 91.6041 37.9174 91.7958C38.6317 91.9876 39.3459 92.2735 40.0602 92.4316C41.1316 92.6536 42.253 92.8453 43.3351 93.037L44.078 93.1312V93.1952C44.3815 93.1952 44.753 93.0673 44.8208 93.1615C44.9887 93.4172 45.1244 93.2893 45.3279 93.2557C45.582 93.2016 45.8427 93.1801 46.1029 93.1918C47.0337 93.292 47.9696 93.3447 48.9064 93.3499C49.11 93.3499 49.4136 93.1918 49.5814 93.508C49.6493 93.4743 49.6814 93.4441 49.7493 93.4138C49.885 93.3802 50.0528 93.3801 50.1885 93.3499V93.4104C50.1003 93.4393 50.0094 93.4607 49.9171 93.4743C50.0383 93.498 50.1576 93.5295 50.2743 93.5685C50.2264 93.6112 50.1691 93.6434 50.1064 93.6627C49.999 93.704 49.8971 93.7571 49.8028 93.8208C50.9135 94.0597 52.0671 94.0597 53.1778 93.8208V93.6291H53.3135C53.3205 93.697 53.3437 93.7625 53.3813 93.8208C54.9134 93.9458 56.4561 93.7611 57.9062 93.2792C58.0419 93.4373 58.1419 93.6593 58.3455 93.3432C58.4133 93.249 58.5812 93.2153 58.7026 93.1851C59.0003 93.0723 59.3239 93.034 59.6419 93.0741C59.9455 93.1682 60.0454 92.916 60.2847 92.916C60.6691 92.9175 61.0528 92.886 61.4311 92.8218C61.6347 92.7915 61.8347 92.694 62.074 92.63C62.0762 92.6131 62.0745 92.5959 62.0689 92.5796C62.0634 92.5633 62.0541 92.5484 62.0418 92.5359C61.8054 92.5001 61.5669 92.4788 61.3276 92.4719C61.7311 92.2802 62.1025 92.1356 62.474 91.964C62.474 91.9943 62.5097 91.9943 62.5097 92.0279C62.4097 92.0582 62.3418 92.186 62.2061 92.186H62.6775C62.5775 92.186 62.4418 92.4719 62.274 92.6637L65.6846 91.8698V91.8059C65.5489 91.8362 65.4489 91.8362 65.3453 91.8698C65.3132 91.1971 66.0882 91.4258 66.3596 91.0424C66.0203 91.1365 65.6846 91.2341 65.3453 91.298V91.2341C66.4917 90.7564 67.6738 90.2788 68.8238 89.8045C68.8238 89.8381 68.8595 89.8381 68.8595 89.8684C68.656 89.9962 68.456 90.0904 68.1453 90.2485C68.2928 90.2626 68.4394 90.2839 68.5845 90.3124C68.5845 90.4066 68.5845 90.4705 68.5524 90.5042C69.1274 90.4705 68.9917 89.9962 69.1595 89.7103C69.2595 89.7406 69.3952 89.8045 69.4988 89.7742C69.7962 89.7036 70.0895 89.6182 70.3773 89.5186C70.7166 89.4244 71.0523 89.3268 71.3916 89.199C71.9309 88.977 72.438 88.6911 72.9773 88.4354C73.1113 88.4197 73.2468 88.4197 73.3809 88.4354C73.4742 88.4238 73.559 88.3778 73.6166 88.3076C73.7523 88.2134 73.888 88.0217 73.9737 88.052C74.0712 88.0779 74.1733 88.0854 74.2739 88.0738C74.3746 88.0622 74.4717 88.0319 74.5598 87.9847C74.6479 87.9374 74.7251 87.8741 74.787 87.7985C74.8488 87.7228 74.8941 87.6363 74.9201 87.5441C74.9558 87.5441 74.9558 87.5104 74.988 87.5104C75.1493 87.3883 75.3187 87.276 75.4951 87.174C76.2379 86.7939 76.945 86.4105 77.6879 86.0304C77.72 86.0001 77.7879 86.0304 77.8557 86.0304C77.958 86.0378 78.0609 86.0276 78.1593 86.0001C78.5986 85.8084 79.0021 85.5864 79.4093 85.3643C79.3093 85.3307 79.4093 85.3004 79.0736 85.2702V85.2029C79.292 85.1665 79.507 85.1136 79.7164 85.0448L79.6486 84.9809C80.5271 84.1534 81.6414 83.5513 82.4842 82.8516C82.5951 82.8824 82.7086 82.9037 82.8235 82.9155C82.8503 82.8328 82.8624 82.7464 82.8592 82.6599C82.987 82.4863 83.1343 82.3262 83.2985 82.1822C84.0413 81.5465 84.852 81.0049 85.527 80.3389C86.5055 79.4172 87.4519 78.4619 88.3305 77.4764C89.1615 76.6047 89.9287 75.6809 90.6269 74.7113C91.5733 73.3457 92.384 71.9464 93.2268 70.5134C93.8339 69.5043 94.3732 68.4951 94.9839 67.4625C95.0518 67.3683 95.1875 67.2405 95.2875 67.2405C96.1982 67.1463 97.1088 67.0824 97.9874 66.9848C98.2129 66.9271 98.4291 66.8411 98.6302 66.7292C98.5302 66.5711 98.4624 66.3928 98.3588 66.2213C98.2552 66.0497 98.0231 65.8849 97.8874 65.6797C97.7548 65.5106 97.6411 65.3292 97.5481 65.1381C97.4481 64.98 97.3446 64.8522 97.2446 64.6941C97.0329 64.3439 96.841 63.9835 96.6696 63.6143C96.6165 63.5096 96.5932 63.3937 96.6017 63.278C97.2088 62.0368 97.4445 60.7013 98.0303 59.4635C98.5225 58.145 98.8625 56.7804 99.0445 55.3933C99.2802 54.0882 99.4017 52.7864 99.5838 51.4813C99.6838 50.5596 99.8195 49.6682 99.8552 48.7466C100.005 47.3519 100.039 45.9482 99.9552 44.5486L99.9588 44.5352ZM15.093 80.0193C14.8573 79.7637 14.6537 79.4778 14.418 79.2255L14.518 79.1313C14.8751 79.5148 15.2608 79.8949 15.6322 80.3086C15.4347 80.2467 15.2516 80.1497 15.093 80.0227V80.0193ZM15.6322 80.3053C15.7322 80.275 15.8358 80.275 15.9358 80.2414C16.0358 80.3995 16.1037 80.5777 16.2072 80.7829C15.7358 80.7526 15.493 80.5609 15.6322 80.3053ZM50.7385 93.4239V93.3432L52.6278 93.1514V93.2456C52.0021 93.3409 51.3714 93.4049 50.7385 93.4373V93.4239ZM59.2455 92.5964C58.7741 92.6906 58.2669 92.7545 57.7955 92.8184C57.6277 92.8521 57.4384 93.0101 57.3562 92.7242C57.2884 92.7545 57.2205 92.7545 57.1527 92.7881C57.3205 93.2658 57.7276 92.8823 58.0634 93.0741C57.3205 93.1682 56.6134 93.2321 55.9206 93.3297V93.2658L56.5634 93.1716V93.0741C56.2267 93.0368 55.8881 93.0155 55.5491 93.0101C55.4491 93.0101 55.3134 93.138 55.2134 93.1682C55.0705 93.2073 54.9229 93.2288 54.7742 93.2321C54.1992 93.2624 53.6278 93.2624 53.0849 93.2961C53.0528 93.2961 52.9849 93.2624 52.9492 93.2624V93.1682L59.699 92.3105C59.7312 92.3744 59.7312 92.4383 59.7669 92.5022C59.5946 92.5152 59.4244 92.5468 59.2598 92.5964H59.2455ZM59.7526 92.2768C60.5276 92.1827 61.2383 92.1187 61.9811 92.0212C60.4276 92.4349 59.9205 92.4988 59.7526 92.2768ZM30.3569 28.0999C31.4283 26.7006 32.5497 25.3013 33.6318 23.8717C33.9675 23.4579 34.2389 23.0139 34.5782 22.6002C34.6982 22.4784 34.8338 22.3711 34.9818 22.2806L34.9461 22.2167C35.0709 22.0885 35.1832 21.95 35.2818 21.803C35.4366 21.5363 35.5715 21.2598 35.6853 20.9755C35.7209 20.9246 35.767 20.8811 35.821 20.8477C36.2924 21.0697 36.2924 20.592 36.4639 20.4339C36.7674 20.1177 37.071 19.7612 37.3424 19.4483C37.5531 19.207 37.7452 18.9518 37.9174 18.6848C37.9496 18.5906 37.8496 18.4291 37.8174 18.3047H37.7174C37.8174 18.2408 37.921 18.1466 38.021 18.0827C38.0567 18.0827 38.0567 18.0827 38.0888 18.0524C38.2924 17.7665 38.4924 17.4805 38.696 17.2249C39.0983 16.7087 39.5387 16.2198 40.0138 15.7617C39.9459 15.9198 39.8781 16.0812 39.8102 16.2057C39.8424 16.2057 39.8424 16.2393 39.8781 16.2393C40.2816 15.7314 40.7209 15.2537 41.128 14.7458C41.0923 14.7155 41.0602 14.6819 41.028 14.6819C40.8602 14.84 40.7245 14.9981 40.5566 15.1596C40.5209 15.1293 40.4888 15.0956 40.4566 15.0956C40.7959 14.6819 41.1316 14.2682 41.4709 13.7905C41.5707 13.9449 41.6613 14.1043 41.7423 14.2682C41.878 13.9486 42.0137 13.7266 42.0995 13.5046C41.9995 13.5988 41.8637 13.6963 41.7637 13.7905L41.6602 13.6896L42.2673 12.8318C42.9101 11.9741 43.5494 11.0827 44.1923 10.2249C44.428 9.90539 44.7315 9.6531 44.9351 9.33355C45.676 8.19693 46.4881 7.1029 47.3672 6.05726C47.552 5.84047 47.7551 5.638 47.9743 5.45178C48.1422 5.26005 48.2779 5.32396 48.4136 5.48542C49.3243 6.56518 50.235 7.67859 51.1492 8.76171C51.8242 9.55556 52.4992 10.3191 53.142 11.1466C53.917 12.1557 54.6599 13.1649 55.4384 14.1975C56.317 15.3748 57.1955 16.5522 58.0384 17.7597C59.3205 19.5392 60.5383 21.3219 61.8204 23.1014C62.7668 24.4065 63.7096 25.678 64.6239 26.9798H62.9025C61.3169 26.9461 59.6883 26.8217 58.1098 26.8856C55.967 26.9798 53.7563 27.2018 51.5957 27.3632C48.86 27.5852 46.0922 27.6189 43.3601 27.6189C42.3816 27.6189 41.403 27.7467 40.4245 27.8106C39.2424 27.8745 38.096 27.9384 36.9139 27.9687C35.5282 28.0326 34.1782 28.0629 32.7961 28.0965C32.0211 28.1302 31.2104 28.0965 30.364 28.0965L30.3569 28.0999ZM69.0702 42.7255V43.0114C69.0381 43.0114 69.0024 43.0417 68.9345 43.0417C68.7988 42.5977 68.6631 42.12 68.4953 41.676C68.1884 40.7329 67.745 39.8341 67.1774 39.0052C66.5024 38.1138 65.8953 37.1921 65.2203 36.2704C65.0357 36.0535 64.8326 35.851 64.6132 35.665C63.9367 34.8969 63.1535 34.218 62.2847 33.6467C60.9415 32.8615 59.5292 32.1863 58.0634 31.6285C57.656 31.4633 57.2611 31.2722 56.8812 31.0566H57.6919L63.4632 30.9624C64.7132 30.9288 65.9275 30.9288 67.1774 30.8683C67.3078 30.8585 67.4384 30.8852 67.5528 30.945C67.6671 31.0049 67.7602 31.0952 67.8203 31.2046C68.1238 31.6823 68.4274 32.1566 68.7667 32.6342C68.8203 32.7111 68.8545 32.7986 68.8667 32.8899C68.8667 33.5895 68.8667 34.3195 68.8988 35.0191C68.931 35.7188 68.9988 36.4487 69.0345 37.182C69.0702 37.9153 68.9667 38.6755 68.9988 39.4391C69.0345 40.5189 69.0667 41.6323 69.0667 42.7457L69.0702 42.7255ZM32.7497 32.0725C34.3354 32.0086 35.8567 31.9144 37.3924 31.8505C38.6067 31.7866 39.8567 31.7563 41.0709 31.6924C41.5648 31.6445 42.0627 31.6445 42.5566 31.6924C42.0167 31.9298 41.4973 32.2065 41.0031 32.5199C40.3959 32.9 39.8209 33.4113 39.2174 33.825C38.6104 34.2536 38.0559 34.7444 37.5638 35.2882C36.921 36.0182 36.2139 36.6539 35.5389 37.3536C35.0354 37.8394 34.5587 38.3491 34.1104 38.8807C33.5354 39.5804 33.039 40.3439 32.489 41.1378C32.6568 38.1104 32.8461 35.1301 32.7247 32.0758L32.7497 32.0725ZM54.792 62.659C53.7054 62.947 52.6009 63.1717 51.4849 63.3318C50.5207 63.4273 49.5504 63.4588 48.5814 63.426C47.7029 63.426 46.8601 63.3957 45.9815 63.3318C44.9842 63.2864 44.0024 63.0816 43.078 62.7263C42.2673 62.3899 41.4245 62.0536 40.6138 61.6768C39.764 61.323 39.0042 60.8024 38.3853 60.1497C37.8974 59.6542 37.367 59.1975 36.7996 58.784C36.8995 59.1679 37.1562 59.4991 37.5138 59.7057C37.346 59.8974 37.1103 59.7999 36.771 59.2919C36.6841 59.341 36.5934 59.3837 36.4996 59.4198C36.5996 59.1977 36.7032 58.9757 36.8032 58.784C36.6674 58.5284 36.4996 58.2424 36.3639 57.9902C36.0925 57.5764 35.8246 57.1324 35.5889 56.7187C35.521 56.6245 35.521 56.5269 35.4532 56.4327C35.2856 56.25 35.1282 56.0591 34.9818 55.8609C34.7241 55.4541 34.4428 55.0611 34.1389 54.6836C34.1389 54.7778 34.1711 54.8753 34.1711 54.9998C34.1456 55.0026 34.1217 55.0133 34.1032 55.0301L33.3889 53.4087C33.3532 53.4087 33.3532 53.4087 33.3211 53.4424L33.9282 55.5414C33.8925 55.5414 33.8604 55.575 33.8282 55.575C33.7184 55.4492 33.6271 55.31 33.5568 55.1613C33.4889 54.9056 33.2854 54.9056 33.1175 55.0032C33.0644 55.0517 33.0243 55.1116 33.0007 55.1777C32.9771 55.2438 32.9706 55.3143 32.9818 55.3833C33.2175 55.9248 33.4889 56.463 33.7568 57.0046C33.8209 57.1904 33.8997 57.3714 33.9925 57.5462C34.0282 57.6101 34.1282 57.674 34.1282 57.7682C34.2425 58.0209 34.3774 58.265 34.5318 58.4981C34.8353 58.8782 35.1746 59.2617 35.4782 59.6418C35.7817 60.0219 36.0532 60.4356 36.321 60.8191C36.3567 60.883 36.4567 60.883 36.4889 60.9133C36.6567 61.3909 37.2317 61.7407 37.6353 61.549C37.7353 62.2789 38.5817 62.5346 38.9174 63.2309C38.5138 63.0728 38.2031 62.945 37.9388 62.8171C37.9067 62.8508 37.9067 62.8811 37.871 62.945C38.2758 63.1275 38.6704 63.3296 39.0531 63.5504C39.3919 63.7335 39.7187 63.9357 40.0316 64.1559C40.4441 64.4978 40.9458 64.73 41.4852 64.8287C41.4725 64.782 41.4494 64.7384 41.4173 64.7008C42.3637 65.1146 43.3423 65.5586 44.0851 65.9084C40.5745 65.9723 36.8282 66.0362 32.9461 66.1002C32.9461 65.4947 32.914 64.9229 32.914 64.3207C32.9416 64.0783 32.9523 63.8345 32.9461 63.5908C32.8461 62.1276 32.8461 60.6643 32.6425 59.2347C32.4684 57.7247 32.4123 56.2047 32.4747 54.687C32.5068 53.8595 32.439 53.0051 32.4068 52.1742C32.4068 51.0608 32.4068 49.9811 32.439 48.8677C32.4526 48.7127 32.4988 48.5618 32.5747 48.4237H32.6747C32.7068 48.4876 32.6747 48.5818 32.7425 48.6154C32.8425 48.7096 33.014 48.871 33.0818 48.8374C33.2854 48.7096 33.5889 48.5818 33.6568 48.3934C33.8162 48.0192 33.8963 47.6192 33.8925 47.2161C33.9038 46.9702 33.999 46.7342 34.1639 46.5433C34.2266 46.4412 34.2826 46.3356 34.3318 46.2271C34.1961 46.1329 34.0604 46.069 33.8925 45.9412C34.0282 45.6048 33.9925 45.1776 34.4996 44.9859C34.5675 44.9523 34.5675 44.7942 34.5996 44.7C34.6318 44.4443 34.6675 44.1584 34.6996 43.9061C34.747 43.9763 34.8034 44.0407 34.8675 44.0979C34.8852 44.0636 34.908 44.0319 34.9353 44.0037C34.9353 43.8759 34.9032 43.6236 34.9353 43.6236C35.3389 43.5597 35.171 43.1459 35.3746 42.9508C35.4068 42.9206 35.3389 42.823 35.3389 42.7591C35.3389 42.6952 35.3389 42.601 35.3746 42.601C35.846 42.5068 35.7782 42.0292 36.0889 41.8072C36.1889 41.7433 36.2246 41.6491 36.3603 41.491C36.6317 41.935 36.1567 42.1637 36.1246 42.4766C36.6996 42.157 36.8674 41.3968 36.5282 41.1714C36.6623 41.0745 36.7824 40.9614 36.8853 40.835C37.2424 40.4549 37.6603 40.1051 37.9996 39.7216C38.2353 39.4357 38.3567 39.0859 38.6067 38.8C38.7814 38.6379 38.9875 38.5088 39.2138 38.4199C39.8296 38.1443 40.3633 37.7295 40.7673 37.2123C40.8514 37.1407 40.9422 37.0765 41.0388 37.0206C41.1388 36.9566 41.3423 36.9566 41.3745 36.8625C41.4066 36.7683 41.3066 36.6405 41.2388 36.5463C41.3745 36.4824 41.5102 36.3545 41.778 36.2301C41.678 36.4218 41.6423 36.5463 41.5745 36.6741L41.7423 36.8322C42.0459 36.6102 42.5173 36.3545 42.8137 36.1594C42.8137 36.1292 42.6459 36.0013 42.6459 36.0013C42.4423 36.0955 42.1387 36.257 41.8352 36.3814C41.903 36.2873 41.903 36.2233 41.9352 36.1897C42.3991 35.8948 42.8835 35.6296 43.3851 35.3959C44.5672 34.8879 45.7494 34.3867 46.9279 33.9024C47.1608 33.8433 47.4046 33.833 47.6422 33.8721C47.7339 33.8777 47.8259 33.8675 47.9136 33.8418C48.4529 33.6837 48.985 33.5256 49.535 33.3978C49.777 33.3353 50.0269 33.3036 50.2778 33.3036C51.2921 33.3339 52.3028 33.3339 53.317 33.3978C53.7434 33.4338 54.1632 33.5197 54.567 33.6534C55.0871 33.8223 55.5942 34.0246 56.0848 34.2589C56.6552 34.5469 57.2073 34.8659 57.7384 35.2142C58.7169 35.8197 59.6276 36.4857 60.5954 37.0273C61.5102 37.5658 62.2929 38.2812 62.8918 39.1263C63.7299 40.0339 64.3825 41.0796 64.8168 42.2108L65.3239 44.3098C65.505 44.6884 65.5859 45.1028 65.5596 45.5174C65.3918 46.3112 65.256 47.1387 65.1203 47.9326C65.0373 48.2435 65.0036 48.5643 65.0203 48.8845C65.0103 49.8391 64.7555 50.7773 64.2775 51.6192C64.1418 51.9051 63.9382 52.1911 63.7704 52.5106C63.8535 52.5658 63.945 52.6089 64.0418 52.6384L64.3454 52.0666C64.3775 52.0666 64.3775 52.0666 64.4132 52.1002C64.2453 52.5443 64.1096 53.0219 63.9418 53.4659C63.5382 54.4515 63.1311 55.4842 62.624 56.4227C62.2979 56.9396 61.9401 57.4383 61.5526 57.9162C61.2133 58.3602 60.9454 58.8378 60.6062 59.2617C60.3219 59.6259 59.9812 59.948 59.5955 60.217C58.6927 60.868 57.7454 61.4624 56.7598 61.9964C56.1366 62.3226 55.4648 62.5584 54.767 62.696L54.792 62.659ZM36.7996 60.9772L36.7674 61.0074C36.6821 60.977 36.6025 60.9339 36.5317 60.8796L35.7139 59.7359C35.6774 59.6911 35.6524 59.639 35.6406 59.5836C35.6288 59.5282 35.6307 59.471 35.646 59.4164C36.0032 59.958 36.3889 60.4659 36.7924 60.9738L36.7996 60.9772ZM57.7955 65.3332C59.2457 64.7374 60.5749 63.9088 61.724 62.8844C61.8877 62.72 62.0683 62.5712 62.2633 62.4404C63.6254 61.5926 64.7866 60.4886 65.6739 59.1977C66.6619 57.6922 67.5528 56.1319 68.3417 54.5255C68.4028 54.4099 68.4708 54.2976 68.5452 54.1891C68.5519 57.7928 68.8456 61.3909 69.4238 64.9531L57.8098 65.3332H57.7955ZM92.0268 64.3813C91.9911 64.4452 91.9268 64.5091 91.8911 64.573C91.861 64.4794 91.8383 64.3839 91.8233 64.2871C91.6197 64.795 91.1804 64.5427 90.8769 64.5427C89.0555 64.573 87.1984 64.573 85.3734 64.573C83.6163 64.573 81.8306 64.573 80.0735 64.6067C79.4986 64.6067 78.8914 64.7345 78.3164 64.7648C76.9308 64.8287 75.5487 64.8589 74.163 64.8926C74.063 64.8926 73.9594 64.7345 73.8058 64.6067C73.7464 64.707 73.6783 64.8027 73.6023 64.8926C73.5701 64.8287 73.5023 64.7648 73.4344 64.6706C73.4067 64.7576 73.3733 64.843 73.3344 64.9262H73.213C73.1121 64.4963 73.044 64.0602 73.0094 63.6211C73.0094 62.6658 73.1094 61.7138 73.1451 60.7585C73.1773 60.3145 73.1451 59.9008 73.1451 59.487L73.5023 59.7427C73.5624 59.632 73.6304 59.5252 73.7058 59.4231C73.656 59.3981 73.6102 59.3664 73.5701 59.3289C73.638 59.2987 73.7058 59.2347 73.7058 59.2011C73.7486 59.1194 73.7821 59.0338 73.8058 58.9455C73.7918 58.7412 73.7584 58.5386 73.7058 58.34C73.7238 58.3421 73.7421 58.3405 73.7594 58.3352C73.7766 58.33 73.7925 58.3213 73.8058 58.3097L74.0094 59.2617H74.1094C73.9737 59.0397 74.413 58.8479 74.0415 58.5889C74.0094 58.5586 74.0773 58.3669 74.0773 58.2727C73.9753 58.0653 73.8847 57.8531 73.8058 57.637C73.8786 57.594 73.9582 57.5622 74.0415 57.5428C73.9331 57.4838 73.821 57.4311 73.7058 57.3847C74.0415 57.0988 74.0415 56.9407 73.7416 56.6211C73.8094 56.5908 73.8773 56.5908 73.8773 56.5572C73.8882 56.2698 73.8655 55.9821 73.8094 55.6995C73.7416 55.3833 73.9094 54.9998 73.4058 54.8081C73.4372 54.8992 73.483 54.9854 73.5416 55.0637C73.47 55.0874 73.4016 55.119 73.338 55.1579C72.8987 54.7778 73.1701 54.2665 73.0666 53.6947C73.2618 53.7486 73.4538 53.8126 73.6416 53.8864C73.5737 53.6644 73.4058 53.4087 73.3058 53.1228H73.1701V51.0272C73.1701 51.0575 73.4058 51.0575 73.5273 51.0911C73.5273 51.0608 73.5594 51.0272 73.5594 50.9969C73.4594 50.8691 73.3237 50.7413 73.2023 50.5832L73.2701 50.5193C73.106 50.2616 73.0572 49.9531 73.1344 49.6615V47.4347C73.4701 47.7509 72.9666 48.1647 73.4701 48.3564V48.0335H73.438C73.4023 47.5558 73.4023 47.0782 73.3701 46.6039H73.3023C73.2701 46.6678 73.2701 46.6981 73.2344 46.762H73.1666C73.2344 44.2493 73.3023 41.7399 73.3701 39.1633C73.7178 39.5425 74.0342 39.9462 74.3165 40.3708C75.1383 41.6612 76.0523 42.8974 77.0522 44.071C77.8629 45.1205 78.6057 46.2641 79.3486 47.3473C80.2593 48.6524 81.1342 49.9542 82.0485 51.2593C82.7235 52.2449 83.4342 53.2305 84.1413 54.1858C84.7841 55.0435 85.4591 55.8676 86.1341 56.6985C86.7091 57.4284 87.3162 58.1617 87.8876 58.8916C88.5626 59.783 89.2376 60.6711 89.9126 61.5322C90.2483 61.9762 90.6269 62.4236 90.984 62.8777C91.1957 63.1055 91.4355 63.3088 91.6983 63.4832C91.6506 63.4842 91.6035 63.4725 91.5626 63.4495C91.635 63.5491 91.7137 63.6446 91.7983 63.7354C92.1554 63.9272 92.2018 64.1155 92.0018 64.4082L92.0268 64.3813ZM93.7482 56.4327V56.2107C93.7482 56.2747 93.7804 56.3688 93.7482 56.4327ZM94.8946 42.4126C94.7961 42.3479 94.7051 42.2735 94.6232 42.1906C94.5875 42.2848 94.6232 42.3824 94.5553 42.5068C94.5232 42.4126 94.2839 42.4429 94.2839 42.3487C94.2482 42.7927 94.4875 43.2401 94.4518 43.6942C94.5518 43.6303 94.9589 43.6 95.0589 43.5025C95.0962 43.5364 95.1435 43.5587 95.1946 43.5664C94.5196 44.0441 94.6875 44.5217 94.991 45.0599C95.0589 45.1877 95.2625 45.44 95.0589 45.6957C94.991 45.7596 95.0946 45.9513 95.1268 46.1094H95.2268V46.1733L94.9232 46.2675C94.8553 46.1733 94.4518 45.9816 94.4518 45.8235V47.4448C94.7875 47.539 94.7875 47.9864 94.9232 48.2084C94.9818 48.1301 95.0275 48.0439 95.0589 47.9527L95.0946 47.983C95.0655 48.1767 95.0201 48.3679 94.9589 48.5548C94.8866 48.8275 94.8305 49.1038 94.791 49.3823C94.791 49.4126 94.8589 49.4765 94.8589 49.5102C94.6396 50.3313 94.5375 51.1763 94.5553 52.0229C94.4553 52.6283 94.5553 53.2641 94.4875 53.8998C94.4084 54.457 94.2963 55.0095 94.1518 55.5548C94.1196 55.649 94.0518 55.6826 93.8804 55.7465C93.9365 55.4189 93.9243 55.0842 93.8446 54.761C93.8125 54.761 93.3732 54.539 93.3375 54.539C93.4153 55.0657 93.5346 55.5863 93.6946 56.0964C93.5947 56.0661 93.1875 55.8407 93.1554 55.8407C93.0875 56.2208 93.0875 56.7321 93.0554 57.1459C93.0197 57.4621 92.7161 57.7513 92.6982 58.1012C92.6982 58.2929 92.934 58.4174 92.9018 58.7369H93.1732C93.1732 58.1012 93.4768 57.5293 93.4768 56.8599H93.5696C93.6018 56.9239 93.7054 56.9878 93.6696 57.018C93.5645 57.3696 93.5081 57.7326 93.5018 58.0978C93.5018 58.2895 93.6696 58.4779 93.6018 58.7033C93.5303 58.9221 93.4848 59.1477 93.4661 59.376C93.4335 59.2727 93.4108 59.1669 93.3982 59.0598L93.0411 59.0296C93.0089 59.2213 93.2768 59.4097 93.2447 59.5711C93.2089 59.6048 93.1768 59.6048 93.1089 59.635L91.9947 58.1079C91.1161 56.9003 90.2376 55.6927 89.3626 54.4515C89.1357 54.1475 88.9327 53.8282 88.7555 53.4962C87.7098 51.8052 86.5479 50.1804 85.277 48.6322C84.2984 47.4549 83.5199 46.1834 82.6092 44.9321C81.7664 43.7548 80.92 42.6111 80.0771 41.4338C79.7736 41.0537 79.4021 40.7039 79.1307 40.2901C78.2522 38.985 77.4772 37.6496 76.5986 36.3478C75.8558 35.268 75.0451 34.2186 74.2701 33.1691C73.9987 32.8327 73.7308 32.4391 73.4594 32.0557C73.417 31.9883 73.3936 31.9119 73.3916 31.8337C73.3237 31.134 73.2559 30.4343 73.2237 29.7683C73.1916 29.1023 73.2916 28.4968 73.2916 27.8274V27.2556C73.2916 27.0975 73.3237 26.9697 73.3237 26.8116C73.3559 26.7779 73.3916 26.7174 73.4237 26.6838C72.4452 26.6838 71.4309 26.6535 70.4523 26.6838C70.1731 26.6953 69.8954 26.6396 69.6454 26.5219C69.3955 26.4042 69.1815 26.2283 69.0238 26.011C67.8311 24.608 66.7154 23.1485 65.681 21.6381C64.6346 20.2388 63.5382 18.8731 62.4668 17.5041C61.5883 16.3907 60.7133 15.3109 59.8347 14.1975C58.8562 12.926 57.9098 11.6545 56.8991 10.383C55.6848 8.8559 54.4349 7.33212 53.1849 5.80498C52.6099 5.10532 51.9706 4.43929 51.3278 3.706C51.7671 3.76991 52.1706 3.83382 52.5778 3.86409L54.1992 3.95828C55.4134 4.05246 56.6312 4.11638 57.8455 4.27784C58.8598 4.40566 59.8705 4.59739 60.9169 4.75549C63.1408 5.12425 65.3308 5.65622 67.4667 6.34654C68.7167 6.72664 69.9309 7.23793 71.1452 7.71222C73.858 8.77158 76.5019 9.98128 79.0629 11.335C79.7865 11.7939 80.4248 12.3622 80.9521 13.0169C81.8306 13.8746 82.7092 14.7324 83.552 15.6238C84.5306 16.6732 85.4413 17.753 86.3877 18.8361C87.2305 19.7914 88.1091 20.7434 88.9519 21.6987C89.2092 22.004 89.4477 22.3229 89.6662 22.654C90.2054 23.4176 90.8126 24.1475 91.2876 24.975C91.6011 25.6116 91.8603 26.2707 92.0625 26.9461C92.3982 27.9317 92.7375 28.887 93.0768 29.8726C93.3125 30.6025 93.5161 31.3661 93.6839 32.1297C93.8196 32.6376 93.7839 33.1792 93.9554 33.6871C94.1589 34.3598 93.9554 35.0864 94.1589 35.7524C94.1911 35.8163 94.2268 35.9105 94.2589 35.9744C94.3946 36.1023 94.4946 36.2301 94.2946 36.4184C94.2589 36.5003 94.2589 36.5922 94.2946 36.6741C94.3584 36.6056 94.4147 36.5312 94.4625 36.4521C94.4625 36.516 94.4946 36.5463 94.4946 36.5799C94.478 36.7061 94.478 36.8338 94.4946 36.96C94.5135 37.0391 94.5474 37.1143 94.5946 37.182C94.6808 37.1129 94.7714 37.0488 94.866 36.9903C95.1296 38.0639 95.2424 39.1654 95.2018 40.2666C95.3477 41.3112 95.2552 42.3732 94.9303 43.3814C95.0303 43.045 94.7946 42.7087 94.8946 42.3958V42.4126Z" fill="#DD3735"/>
</svg>
