<svg width="55" height="55" viewBox="0 0 55 55" fill="none" xmlns="http://www.w3.org/2000/svg">
<g clip-path="url(#clip0)">
<path d="M53.9179 25.5783L45.0854 21.1622L53.9179 16.7457C55.4978 15.956 55.4994 13.6934 53.9179 12.9024L28.5662 0.226586C27.9611 -0.075539 27.2495 -0.075539 26.6444 0.226586L1.29271 12.9024C-0.287159 13.6926 -0.288837 15.9551 1.29271 16.7457L10.1253 21.1622L1.29271 25.5783C-0.287159 26.3684 -0.288837 28.6306 1.29271 29.4215L10.1253 33.838L1.29271 38.2541C-0.287159 39.0442 -0.288837 41.3064 1.29271 42.0974L26.6444 54.7732C27.2482 55.0749 27.9599 55.0762 28.5662 54.7732L53.9179 42.0974C55.4978 41.3072 55.4994 39.0451 53.9179 38.2541L45.0854 33.838L53.9179 29.4215C55.4978 28.6318 55.4994 26.3692 53.9179 25.5783ZM27.6053 4.55034L48.1528 14.8243L27.6053 25.0978L7.05784 14.8243L27.6053 4.55034ZM48.1528 40.176L27.6053 50.4495L7.05784 40.176L14.9295 36.2399L26.6444 42.0974C27.2486 42.3991 27.9599 42.4003 28.5662 42.0974L40.2811 36.2399L48.1528 40.176ZM27.6053 37.7736L7.05784 27.5001L14.9295 23.5641L26.6444 29.4215C27.2486 29.7233 27.9599 29.7245 28.5662 29.4215L40.2811 23.5641L48.1528 27.5001L27.6053 37.7736Z" fill="white"/>
</g>
<defs>
<clipPath id="clip0">
<rect width="55" height="55" fill="white"/>
</clipPath>
</defs>
</svg>
