<svg width="95" height="86" viewBox="0 0 95 86" fill="none" xmlns="http://www.w3.org/2000/svg">
<path d="M94.7564 0H0V85.4548H94.7564V0Z" fill="#87BCF6"/>
<path d="M86.8151 7.1615H7.94128V78.2933H86.8151V7.1615Z" fill="#252653"/>
<path fill-rule="evenodd" clip-rule="evenodd" d="M70.253 33.5963C63.2363 30.3851 51.156 31.9407 51.156 40.3189C51.156 46.5582 55.9134 49.0139 61.7301 51.0751C69.9958 54.0031 61.9627 59.5367 51.8724 53.8142C51.8724 53.8142 51.5111 53.653 51.3336 53.8142C51.156 53.9753 51.156 54.1364 51.156 54.3031C51.156 54.4642 51.156 60.3145 51.156 60.3145C54.6827 61.9535 57.3155 62.7869 61.3872 62.748C74.5206 62.6258 76.4125 51.214 69.4264 46.8249C68.159 46.0248 64.767 44.4303 63.6955 44.058C58.1421 42.1357 58.6136 39.4022 60.3769 38.0244C62.324 36.4965 67.7243 38.8078 69.9958 40.0967C71.3735 40.869 71.6 39.9078 71.5939 39.0633L71.5755 35.0687C71.5755 34.1186 71.2143 34.0408 70.253 33.5963Z" fill="#87BCF6"/>
<path fill-rule="evenodd" clip-rule="evenodd" d="M29.6955 43.5747V28.9405C29.6955 28.8683 29.9772 28.6183 30.0506 28.6183C36.8837 28.3016 40.7716 29.5128 41.1206 36.1354C41.5186 43.7358 34.4958 43.8969 29.6955 43.8969V43.5747ZM21.4542 23.2513V62.5924H29.6955V49.9139C39.8226 50.5695 48.9578 47.2749 48.9578 36.6521C48.9578 32.3685 47.4883 28.0571 44.0045 25.4514C39.1369 21.8068 27.7607 22.6179 21.4542 23.2513Z" fill="#87BCF6"/>
</svg>
