<svg width="118" height="79" viewBox="0 0 118 79" fill="none" xmlns="http://www.w3.org/2000/svg">
<path d="M98.7806 25.0311C98.5621 20.7419 99.6586 16.6859 97.9026 13.3524C93.5211 5.00714 82.5737 0.242355 60.6704 0.242355V0V0.23778C36.5784 0.23778 26.2863 5.00714 21.909 13.3478C20.4208 17.0189 19.7459 21.0194 19.9388 25.0266C19.1303 28.6937 18.7618 32.4595 18.8424 36.2298C19.4977 41.4747 19.9388 46.7196 20.5942 51.4844C21.2495 55.5359 26.509 58.6362 27.1643 62.459C28.4792 72.711 36.8011 77.4758 60.8888 77.4758V78.6693H60.4687V77.4758C82.3678 77.4758 91.5551 72.7065 92.8826 62.459C93.3027 58.6453 97.701 55.545 98.3437 51.4844C98.999 46.715 99.2217 41.4701 99.877 36.2298C99.8722 32.4654 99.5047 28.712 98.7806 25.0311Z" fill="#EFCCA3"/>
<path d="M59.5782 28.8447C63.161 29.2012 66.4685 31.0869 68.7781 34.0896C71.8447 36.9522 76.8815 38.859 79.0702 41.4792C81.7351 43.8842 83.7745 47.0075 84.985 50.5378C85.8224 53.8803 86.2643 57.3255 86.2999 60.7898C86.2999 61.9833 86.9552 61.7455 88.707 60.7898C92.1767 58.4845 95.283 55.5865 97.9069 52.2068C97.2515 56.2583 92.6516 59.8341 92.2147 63.6387C90.8998 73.8907 81.7125 78.8933 59.1455 78.8933H60.4604" fill="#CCAC8D"/>
<path d="M73.5967 20.7418C74.4746 23.8422 77.3186 34.5698 71.6265 30.9939C73.7028 32.7696 75.1056 35.3156 75.5669 38.1457C75.842 39.6632 76.4979 41.0682 77.4618 42.2047C78.4258 43.3412 79.6602 44.1648 81.028 44.5841C84.8106 45.1945 88.6624 44.1669 91.757 41.7215C93.5732 39.8271 94.8179 37.3769 95.3265 34.6953C95.8351 32.0137 95.5836 29.2272 94.6052 26.7047C93.9389 24.6508 92.7328 22.8553 91.1367 21.5415C89.5406 20.2277 87.625 19.4535 85.6279 19.3152C81.4985 18.1171 72.7187 17.166 73.5967 20.7418Z" fill="#CCAC8D"/>
<path d="M84.7667 41.0037C89.2421 41.0037 92.8701 37.0545 92.8701 32.1829C92.8701 27.3113 89.2421 23.3621 84.7667 23.3621C80.2912 23.3621 76.6632 27.3113 76.6632 32.1829C76.6632 37.0545 80.2912 41.0037 84.7667 41.0037Z" fill="black"/>
<path d="M82.5739 30.5138C83.7827 30.5138 84.7625 29.4471 84.7625 28.1314C84.7625 26.8156 83.7827 25.749 82.5739 25.749C81.3651 25.749 80.3853 26.8156 80.3853 28.1314C80.3853 29.4471 81.3651 30.5138 82.5739 30.5138Z" fill="white"/>
<path d="M72.2819 31.7074C76.4022 34.854 80.218 38.4483 83.6704 42.435C87.6109 47.9223 87.6109 48.8734 87.6109 48.8734L84.7627 50.3047C82.6335 45.7818 79.5586 41.8661 75.7854 38.8729C70.7444 35.7726 70.0933 33.1524 70.0933 33.1524L72.2819 31.7074Z" fill="#EFCCA3"/>
<path d="M59.801 28.8447C56.0292 29.1909 52.5133 31.0621 49.9458 34.0896C46.8792 36.9522 41.4054 38.859 39.4436 41.4792C36.7116 43.8681 34.5979 46.99 33.3104 50.5378C32.473 53.8803 32.0311 57.3255 31.9955 60.7898C31.9955 61.9833 32.214 62.2211 29.3658 60.7898C25.8452 58.5615 22.7276 55.6529 20.1659 52.2068C20.8212 56.2583 25.4212 59.8341 25.8581 63.6386C27.1729 73.6529 36.3602 78.6555 58.9272 78.6555H60.4605" fill="#CCAC8D"/>
<path d="M80.8219 45.2928C78.3092 41.6643 75.0712 38.7053 71.3529 36.64C67.6346 34.5747 63.5334 33.4571 59.3597 33.3717C55.1911 33.4856 51.099 34.6156 47.3847 36.6787C43.6704 38.7418 40.4284 41.6854 37.8975 45.2928C36.2117 47.2035 34.9426 49.5027 34.1841 52.0199C33.4257 54.5371 33.1973 57.2078 33.516 59.8341C33.516 81.0516 40.3046 74.6132 44.9045 77.2379C49.4856 78.9018 54.3577 79.3916 59.1413 78.6692C63.9245 79.4026 68.799 78.9126 73.378 77.2379C77.9779 74.6178 84.7665 81.0516 84.7665 59.8341C85.3096 57.2456 85.2321 54.5484 84.5413 52.0019C83.8505 49.4554 82.5697 47.145 80.8219 45.2928Z" fill="#56332B"/>
<path d="M58.923 39.3347C58.7578 43.3071 58.095 47.2363 56.9528 51.0134L59.3598 50.3001L58.923 39.3347Z" fill="#442823"/>
<path d="M59.5782 39.3347C59.7434 43.3071 60.4062 47.2363 61.5484 51.0134L59.1414 50.3001L59.5782 39.3347Z" fill="#442823"/>
<path d="M51.9161 36.9523C51.0381 34.5699 54.3232 30.7562 59.5827 30.7562C64.8421 30.7562 68.123 34.5699 67.2492 36.9523C66.3754 39.3347 62.8677 40.0526 59.5827 40.0526C56.0749 40.048 52.7899 39.3347 51.9161 36.9523Z" fill="#56332B"/>
<path d="M59.5781 39.3347C59.5781 38.8774 62.6448 38.8774 64.3965 37.6657C64.3965 37.6657 60.893 38.8591 60.2335 38.379C59.7804 37.9426 59.4719 37.3561 59.3555 36.71C59.2391 37.3561 58.9305 37.9426 58.4775 38.379C57.8222 38.8363 53.8776 37.6657 53.8776 37.6657C55.5952 38.0786 57.2806 38.6366 58.9186 39.3347V41.2415C58.7815 44.3478 58.9222 47.4613 59.3387 50.5379C59.994 51.4936 59.7588 43.8617 59.7588 41.2415C59.6042 40.6208 59.5432 39.9768 59.5781 39.3347Z" fill="black"/>
<path d="M59.5784 52.9203C62.0539 53.2797 64.397 54.3498 66.367 56.0206C64.6542 53.6043 62.2749 51.8494 59.5784 51.0134C56.486 51.7439 53.7535 53.6997 51.9119 56.5007C54.0708 54.4817 56.7466 53.2321 59.5784 52.9203Z" fill="#7F4A41"/>
<path d="M59.1416 70.5481C55.7063 70.3416 52.3136 69.62 49.0595 68.4035C48.4042 68.1658 47.7447 68.6413 47.0893 68.4035C41.7969 66.7712 37.1185 63.349 33.7306 58.6316V59.5873C33.7306 80.8048 40.5192 74.3664 45.1191 76.9911C49.7002 78.655 54.5723 79.1448 59.3558 78.4224C64.1391 79.1558 69.0136 78.6658 73.5926 76.9911C78.1925 74.371 84.9811 80.8048 84.9811 59.5873V57.4427C81.7396 62.6249 76.9447 66.4203 71.4165 68.1795C70.7612 68.4173 69.6648 67.9417 69.0094 67.9417C65.8827 69.4228 62.5443 70.3046 59.1416 70.5481Z" fill="#442823"/>
<path d="M50.1643 59.1162C50.1643 59.1162 47.7572 66.7435 49.509 70.0908L47.3203 69.1351C48.0387 65.7233 48.9894 62.3744 50.1643 59.1162Z" fill="#442823"/>
<path d="M68.5596 59.1162C68.5596 59.1162 70.9667 66.7435 69.2149 70.0908L71.4162 69.1351C70.7988 65.693 69.841 62.3339 68.5596 59.1162Z" fill="#442823"/>
<path d="M44.4676 20.7419C43.5896 23.8423 40.7457 34.5699 46.4378 30.994C44.3615 32.7697 42.9587 35.3157 42.4974 38.1458C42.2223 39.6633 41.5664 41.0683 40.6025 42.2048C39.6385 43.3413 38.4041 44.1649 37.0363 44.5842C33.2504 45.2048 29.3919 44.1835 26.2905 41.7399C24.4743 39.8455 23.2296 37.3952 22.721 34.7137C22.2124 32.0321 22.4639 29.2456 23.4423 26.7231C24.1086 24.6692 25.3147 22.8737 26.9108 21.5599C28.5069 20.2461 30.4225 19.4719 32.4196 19.3335C36.5868 18.1172 45.3456 17.1661 44.4676 20.7419Z" fill="#CCAC8D"/>
<path d="M59.36 51.0133C62.0745 51.8451 64.5014 53.5348 66.3334 55.8685C68.1655 58.2021 69.3204 61.0749 69.6521 64.1233V63.6661C69.5831 60.5 68.5265 57.4536 66.656 55.0279C64.7856 52.6021 62.2126 50.9412 59.36 50.3182C56.4895 50.9008 53.894 52.5502 52.0168 54.9848C50.1396 57.4193 49.0972 60.4878 49.0679 63.6661V64.1233C49.4361 61.0892 50.6041 58.2362 52.4307 55.9095C54.2572 53.5829 56.6641 51.8822 59.36 51.0133Z" fill="black"/>
<path d="M61.4352 36.8971C61.7856 36.7987 61.9227 36.0984 61.7414 35.333C61.5601 34.5676 61.129 34.0268 60.7785 34.1252C60.428 34.2236 60.2909 34.9238 60.4722 35.6893C60.6536 36.4547 61.0847 36.9954 61.4352 36.8971Z" fill="#331712"/>
<path d="M57.7957 35.762C58.0109 35.007 57.9051 34.3004 57.5594 34.1837C57.2137 34.0669 56.759 34.5843 56.5439 35.3393C56.3287 36.0943 56.4345 36.8009 56.7802 36.9177C57.1259 37.0344 57.5805 36.517 57.7957 35.762Z" fill="#331712"/>
<path d="M33.739 41.0037C38.2144 41.0037 41.8424 37.0545 41.8424 32.1829C41.8424 27.3113 38.2144 23.3621 33.739 23.3621C29.2635 23.3621 25.6355 27.3113 25.6355 32.1829C25.6355 37.0545 29.2635 41.0037 33.739 41.0037Z" fill="black"/>
<path d="M35.9274 30.5138C37.1362 30.5138 38.1161 29.4471 38.1161 28.1314C38.1161 26.8156 37.1362 25.749 35.9274 25.749C34.7187 25.749 33.7388 26.8156 33.7388 28.1314C33.7388 29.4471 34.7187 30.5138 35.9274 30.5138Z" fill="white"/>
<path d="M61.7544 32.1829C61.7544 32.1829 59.5657 33.1386 59.1246 33.3763C58.2022 33.1108 57.3174 32.7093 56.4949 32.1829H61.7544Z" fill="#7F4A41"/>
<path d="M45.791 31.7074C41.6707 34.854 37.8549 38.4483 34.4024 42.435C30.462 47.9223 30.462 48.8734 30.462 48.8734L33.3102 50.3047C35.4394 45.7818 38.5143 41.8661 42.2875 38.8729C47.3285 35.7726 47.9796 33.1524 47.9796 33.1524L45.791 31.7074Z" fill="#EFCCA3"/>
<path d="M29.7941 15.7347C28.2679 20.133 25.4095 23.8333 21.6907 26.2246C24.0133 25.925 26.1439 24.6736 27.6492 22.725C29.1545 20.7764 29.9215 18.2769 29.7941 15.7347Z" fill="#CCAC8D"/>
<path d="M87.8335 15.7347C89.3597 20.133 92.2181 23.8333 95.9369 26.2246C93.6143 25.925 91.4837 24.6736 89.9784 22.725C88.4731 20.7764 87.7062 18.2769 87.8335 15.7347Z" fill="#CCAC8D"/>
<path d="M72.7185 29.5582C69.1982 25.8924 64.6462 23.6243 59.7966 23.1197H60.4519C58.0266 23.0879 55.6257 23.6501 53.4268 24.7645C51.2279 25.8789 49.2873 27.5172 47.7485 29.5582C51.3627 26.4445 55.8428 24.7625 60.4519 24.7888C64.8633 25.134 69.1045 26.783 72.7185 29.5582Z" fill="#CCAC8D"/>
<path d="M66.1486 16.4481C64.5457 14.1531 62.1932 12.6173 59.5784 12.1589H60.2338C58.923 12.2071 57.6468 12.6286 56.5323 13.3812C55.4178 14.1338 54.504 15.1912 53.8821 16.4481C55.5438 14.5478 57.8249 13.4343 60.2338 13.3478C61.3656 13.3768 62.4786 13.6683 63.4986 14.2029C64.5186 14.7376 65.4221 15.503 66.1486 16.4481Z" fill="#CCAC8D"/>
<path d="M33.7387 47.4374C31.4434 48.7245 28.7978 49.064 26.2906 48.3931H25.4168C23.6828 46.4483 22.4059 44.0764 21.6948 41.4791C22.6045 43.9751 24.3674 45.9903 26.6132 47.1014C28.859 48.2124 31.413 48.3328 33.7387 47.4374Z" fill="#CCAC8D"/>
<path d="M84.5481 47.4374C86.8433 48.7245 89.4889 49.064 91.9962 48.3931H91.1182C92.4066 47.8312 93.5225 46.8837 94.3365 45.66C95.1506 44.4364 95.6297 42.9868 95.7182 41.4791C95.3815 42.6961 94.8177 43.8243 94.0622 44.7932C93.3066 45.7621 92.3754 46.5509 91.327 47.1101C90.2785 47.6694 89.1353 47.9871 87.9689 48.0434C86.8025 48.0997 85.6379 47.8934 84.5481 47.4374Z" fill="#CCAC8D"/>
<path d="M38.7756 15.2591C41.9036 14.5904 45.1331 14.7472 48.194 15.7164C52.1344 17.1476 49.072 22.8681 49.7273 23.1059C50.9897 21.854 52.4825 20.9089 54.1064 20.3333C55.7302 19.7578 57.448 19.565 59.1456 19.7678C66.5938 20.2251 67.4675 23.8193 68.564 23.1059C69.6604 22.6486 67.4675 13.0916 78.8561 15.2408C78.8561 15.2408 67.2491 11.9027 67.686 20.9613C65.2892 19.2568 62.5041 18.3113 59.6421 18.2305C56.7801 18.1498 53.9538 18.9369 51.479 20.504C51.479 20.504 53.8861 11.6832 38.7756 15.2591Z" fill="#CCAC8D"/>
<path d="M35.7089 2.87158C35.7089 2.87158 25.6268 16.4617 24.3204 21.7021C22.7871 26.947 21.6906 48.8779 20.38 51.9782L15.78 30.5138L24.3204 8.10736L35.7089 2.87158Z" fill="#CCAC8D"/>
<path d="M82.5739 2.87158C82.5739 2.87158 92.6559 16.4617 93.9624 21.7021C95.4957 26.947 96.5921 48.8779 97.9028 51.9782L102.503 30.5138L93.9624 8.10736L82.5739 2.87158Z" fill="#CCAC8D"/>
<path d="M81.9185 2.87179C88.031 8.52472 92.7693 15.7305 95.7141 23.8515C98.7807 35.0547 97.4658 48.8826 99.8771 50.5517C103.381 52.9341 107.103 38.6306 108.417 37.2039C110.388 34.8215 117.176 28.6209 117.617 27.4319C118.058 26.243 104.04 9.55255 97.6885 6.21446C90.6772 2.38251 81.4984 1.90694 81.9185 2.87179Z" fill="#56332B"/>
<path d="M91.1182 8.81616C98.8719 20.3226 103.226 34.1245 103.603 48.3886L108.644 37.1854C104.865 26.3987 98.87 16.6951 91.1182 8.81616Z" fill="#442823"/>
<path d="M35.7091 2.87173C29.5966 8.52466 24.8583 15.7304 21.9135 23.8514C18.8468 35.0546 20.1617 48.8826 17.7504 50.5516C14.2469 52.934 10.5249 38.6305 9.21006 37.2038C7.23985 34.8214 0.451262 28.6208 0.0101717 27.4319C-0.430919 26.243 13.5874 9.55249 19.9391 6.2144C26.9503 2.38245 36.1292 1.90688 35.7091 2.87173Z" fill="#56332B"/>
<path d="M26.509 8.81616C18.7553 20.3226 14.4009 34.1245 14.0241 48.3886L8.99146 37.1671C12.7707 26.3878 18.7624 16.6908 26.509 8.81616Z" fill="#442823"/>
<path d="M19.502 48.631C19.8484 51.1685 20.6675 53.6022 21.909 55.7827C23.4424 57.4518 22.3291 54.3515 22.3291 54.3515C22.3291 54.3515 20.7958 53.3958 21.0143 46.4864C21.2327 39.577 19.502 48.631 19.502 48.631Z" fill="#CCAC8D"/>
<path d="M98.3438 48.631C97.9973 51.1685 97.1782 53.6022 95.9367 55.7827C94.4034 57.4518 95.5166 54.3515 95.5166 54.3515C95.5166 54.3515 97.0499 53.3958 96.8315 46.4864C96.592 39.8102 98.3438 48.631 98.3438 48.631Z" fill="#CCAC8D"/>
<path d="M49.9459 45.2929C50.3078 45.2929 50.6012 44.9735 50.6012 44.5796C50.6012 44.1856 50.3078 43.8662 49.9459 43.8662C49.5839 43.8662 49.2905 44.1856 49.2905 44.5796C49.2905 44.9735 49.5839 45.2929 49.9459 45.2929Z" fill="#442823"/>
<path d="M45.564 50.3C45.926 50.3 46.2194 49.9807 46.2194 49.5867C46.2194 49.1927 45.926 48.8734 45.564 48.8734C45.2021 48.8734 44.9087 49.1927 44.9087 49.5867C44.9087 49.9807 45.2021 50.3 45.564 50.3Z" fill="#442823"/>
<path d="M44.2492 45.2929C44.6111 45.2929 44.9045 44.9735 44.9045 44.5796C44.9045 44.1856 44.6111 43.8662 44.2492 43.8662C43.8873 43.8662 43.5939 44.1856 43.5939 44.5796C43.5939 44.9735 43.8873 45.2929 44.2492 45.2929Z" fill="#442823"/>
<path d="M67.9046 45.2929C68.2665 45.2929 68.56 44.9735 68.56 44.5796C68.56 44.1856 68.2665 43.8662 67.9046 43.8662C67.5427 43.8662 67.2493 44.1856 67.2493 44.5796C67.2493 44.9735 67.5427 45.2929 67.9046 45.2929Z" fill="#442823"/>
<path d="M72.0633 50.3C72.4252 50.3 72.7186 49.9807 72.7186 49.5867C72.7186 49.1927 72.4252 48.8734 72.0633 48.8734C71.7014 48.8734 71.408 49.1927 71.408 49.5867C71.408 49.9807 71.7014 50.3 72.0633 50.3Z" fill="#442823"/>
<path d="M73.3782 45.2929C73.7402 45.2929 74.0336 44.9735 74.0336 44.5796C74.0336 44.1856 73.7402 43.8662 73.3782 43.8662C73.0163 43.8662 72.7229 44.1856 72.7229 44.5796C72.7229 44.9735 73.0163 45.2929 73.3782 45.2929Z" fill="#442823"/>
</svg>
