<svg width="88" height="100" viewBox="0 0 88 100" fill="none" xmlns="http://www.w3.org/2000/svg">
<path d="M71.8781 34.6094C70.95 34.2578 70.0219 33.9258 69.0938 33.6133C69.2484 32.8906 69.3859 32.168 69.5234 31.4453C71.6375 19.8047 70.2453 10.4492 65.5531 7.36328C61.0328 4.41406 53.6594 7.48047 46.2 14.8633C45.4609 15.5859 44.7391 16.3477 44.0516 17.1094C43.5875 16.6016 43.1063 16.0937 42.625 15.6055C34.8047 7.71484 26.9672 4.39453 22.275 7.5C17.7719 10.4687 16.4312 19.2773 18.3219 30.293C18.5109 31.3867 18.7172 32.4609 18.9578 33.5547C17.8578 33.9062 16.775 34.2969 15.7609 34.707C6.58281 38.3203 0 44.0234 0 49.9219C0 56.0156 7.0125 62.1289 16.5516 65.8398C17.325 66.1328 18.0984 66.4258 18.8891 66.6797C18.6313 67.8515 18.4078 69.0039 18.2016 70.1953C16.3969 81.0351 17.8062 89.6289 22.3094 92.5781C26.95 95.625 34.7531 92.5 42.35 84.9414C42.9516 84.3359 43.5531 83.7109 44.1547 83.0469C44.9109 83.8867 45.7016 84.6875 46.4922 85.4687C53.8484 92.6562 61.1188 95.5664 65.6047 92.6172C70.2453 89.5703 71.7578 80.332 69.7984 69.082C69.6438 68.2226 69.4719 67.3437 69.2828 66.4453C69.8328 66.2695 70.3656 66.0742 70.8984 65.8789C80.8156 62.1484 88 56.1133 88 49.9219C88 44.0039 81.2281 38.2617 71.8781 34.6094ZM48.6234 18.0273C55.0172 11.6992 60.9813 9.21875 63.6969 10.9961C66.6016 12.8906 67.7188 20.5469 65.8969 30.6055C65.7766 31.2695 65.6562 31.9141 65.5016 32.5586C61.6859 31.582 57.8187 30.8789 53.9344 30.4883C51.7 26.8555 49.2594 23.3789 46.6125 20.1172C47.2828 19.3945 47.9359 18.7109 48.6234 18.0273ZM26.2797 54.9609C27.0703 56.6797 27.8781 58.3789 28.7375 60.0586C29.6141 61.7578 30.5078 63.457 31.4531 65.1172C28.7719 64.7851 26.1078 64.2969 23.4781 63.6523C24.2344 60.8398 25.1797 57.9297 26.2797 54.9609ZM26.2797 45.0781C25.1969 42.168 24.2859 39.3164 23.5297 36.5625C26.0047 35.9375 28.6344 35.4297 31.3672 35.0391C30.4562 36.6601 29.5625 38.3203 28.7203 40C27.8781 41.6601 27.0531 43.3594 26.2797 45.0781ZM28.2391 50.0195C29.3734 47.3242 30.6109 44.6875 31.9172 42.0898C33.2234 39.4922 34.6328 36.9726 36.1109 34.4922C38.6891 34.2773 41.3187 34.1601 44 34.1601C46.6813 34.1601 49.3281 34.2773 51.8891 34.4922C53.35 36.9531 54.7422 39.4726 56.0656 42.0508C57.3891 44.6289 58.6266 47.2656 59.7953 49.9414C58.6437 52.6367 57.4062 55.293 56.0828 57.9101C54.7766 60.5078 53.3844 63.0273 51.9234 65.5273C49.3625 65.7422 46.6984 65.8398 44 65.8398C41.3016 65.8398 38.6891 65.7422 36.1625 65.5664C34.6672 63.0859 33.2578 60.5469 31.9344 57.9492C30.6109 55.3516 29.3906 52.7148 28.2391 50.0195ZM59.2797 60.0195C60.1562 58.3008 60.9813 56.5625 61.7891 54.8047C62.8891 57.6367 63.8516 60.5078 64.6937 63.457C62.0297 64.1406 59.3312 64.668 56.6156 65.0195C57.5438 63.3789 58.4203 61.6992 59.2797 60.0195ZM61.7547 45.0781C60.9469 43.3594 60.1219 41.6406 59.2625 39.9609C58.4203 38.3008 57.5438 36.6601 56.6328 35.0391C59.4 35.4297 62.0469 35.957 64.5219 36.6016C63.7313 39.4922 62.8031 42.3047 61.7547 45.0781ZM44.0344 23.1055C45.8391 25.332 47.5406 27.6758 49.1219 30.0977C45.7187 29.9219 42.2984 29.9219 38.8953 30.0977C40.5797 27.5781 42.3156 25.2344 44.0344 23.1055ZM24.0969 11.1328C26.9844 9.21875 33.3953 11.9531 40.15 18.75C40.5797 19.1797 41.0094 19.6484 41.4562 20.1172C38.7922 23.3789 36.3344 26.8555 34.0828 30.4883C30.1984 30.8789 26.3484 31.5625 22.5328 32.5195C22.3094 31.5234 22.1203 30.5078 21.9312 29.4922C20.3156 20.0391 21.3813 12.9102 24.0969 11.1328ZM19.8859 62.6172C19.1641 62.3828 18.4594 62.1289 17.7547 61.8555C14.0938 60.5469 9.93437 58.4765 6.92656 55.7617C5.19062 54.3945 4.02187 52.2851 3.69531 49.9219C3.69531 46.3476 9.12656 41.7773 16.9641 38.6719C17.9438 38.2812 18.9406 37.9297 19.9375 37.5976C21.1063 41.8359 22.5156 45.9961 24.1484 50.0195C22.4984 54.1016 21.0719 58.3203 19.8859 62.6172ZM39.9266 81.7578C37.0906 84.707 33.8078 87.0508 30.2328 88.6523C28.325 89.6875 26.125 89.7851 24.1656 88.9062C21.4328 87.1094 20.2984 80.2148 21.8453 70.9375C22.0344 69.8437 22.2406 68.75 22.4813 67.6758C26.3313 68.6133 30.2156 69.2578 34.1516 69.5898C36.4203 73.2422 38.9125 76.7383 41.5766 80.0195C41.0266 80.625 40.4766 81.2109 39.9266 81.7578ZM44.1375 77.0117C42.3844 74.8633 40.6312 72.4805 38.9297 69.9219C40.5797 70 42.2812 70.039 44 70.039C45.7703 70.039 47.5062 70 49.225 69.9023C47.6437 72.3828 45.9422 74.7461 44.1375 77.0117ZM66.6016 82.8711C66.4469 85.2539 65.4156 87.4804 63.7656 88.9844C61.0328 90.7812 55.2062 88.4375 48.9156 82.3047C48.1938 81.6015 47.4719 80.8398 46.7328 80.0586C49.3625 76.7578 51.7859 73.2617 53.9859 69.5898C57.9219 69.2187 61.8406 68.5351 65.7078 67.539C65.8797 68.3398 66.0344 69.1406 66.1719 69.9219C67.0141 74.1406 67.1516 78.5351 66.6016 82.8711ZM69.7297 61.875C69.2484 62.0508 68.7672 62.2265 68.2688 62.3828C67.0656 58.125 65.5875 53.9648 63.8859 49.9219C65.5359 45.9375 66.9281 41.8359 68.0969 37.6367C68.9906 37.9297 69.85 38.2422 70.675 38.5547C78.6844 41.6797 84.3047 46.3281 84.3047 49.8828C84.3047 53.7109 78.3063 58.6523 69.7297 61.875ZM44 41.0547C48.3484 41.0547 51.8719 45.0586 51.8719 50C51.8719 54.9414 48.3484 58.9453 44 58.9453C39.6516 58.9453 36.1281 54.9414 36.1281 50C36.1281 45.0586 39.6516 41.0547 44 41.0547Z" fill="#61DAFB"/>
</svg>
