<svg width="126" height="94" viewBox="0 0 126 94" fill="none" xmlns="http://www.w3.org/2000/svg">
<path fill-rule="evenodd" clip-rule="evenodd" d="M0 39.156C0 39.859 0.207 40.323 0.323 40.774C1.079 43.707 2.704 46.224 4.632 48.52C7.378 51.792 10.741 54.426 14.186 56.903C17.174 59.051 20.223 61.151 23.223 63.283C23.738 63.649 24.225 64.07 24.784 64.519C24.303 64.779 23.903 65.008 23.487 65.219C19.528 67.227 15.719 69.478 12.208 72.205C10.092 73.849 8.046 75.596 6.601 77.879C4.276 81.551 3.453 85.463 5.186 89.64C5.692 90.86 6.464 91.914 7.553 92.693C7.906 92.945 8.302 93.195 8.715 93.293C9.773 93.542 10.851 93.705 11.922 93.902L14.955 93.9C18.309 93.601 21.362 92.452 24.121 90.548C28.433 87.572 31.338 83.582 32.587 78.461C33.495 74.739 33.532 71.013 32.462 67.308C32.363 66.964 32.238 66.627 32.108 66.294C31.978 65.961 31.825 65.637 31.645 65.222L38.521 61.268L38.624 61.356C38.499 61.765 38.366 62.173 38.253 62.586C37.436 65.57 36.893 68.606 37.088 71.703C37.296 75.003 38.217 78.092 40.149 80.849C41.711 83.079 45.433 83.162 47.093 80.924C47.682 80.129 48.253 79.298 48.682 78.411C49.803 76.096 50.841 73.74 51.912 71.4L52.099 70.972C52.022 72.08 51.932 73.053 51.891 74.027C51.827 75.548 51.916 77.06 52.436 78.507C52.881 79.745 53.638 80.67 55.056 80.833C56.026 80.944 56.799 80.5 57.512 79.937C58.626 79.058 59.531 77.972 60.203 76.738C62.104 73.247 64.056 69.777 65.779 66.198C67.643 62.327 69.273 58.343 71.004 54.406L71.29 53.708C71.699 55.315 71.984 56.889 72.509 58.379C73.119 60.108 73.874 61.796 74.696 63.437C75.085 64.212 75.04 64.715 74.501 65.365C72.245 68.085 70.028 70.838 67.809 73.588C67.318 74.195 66.829 74.813 66.42 75.476C66.173 75.879 66.009 76.37 65.94 76.84C65.807 77.738 66.362 78.604 67.323 78.811C68.201 79 69.136 79.07 70.031 79.004C73.128 78.776 75.94 77.689 78.426 75.847C81.647 73.461 82.681 70.205 81.901 66.346C81.69 65.299 81.317 64.281 80.954 63.272C80.791 62.817 80.78 62.498 81.077 62.074C83.652 58.397 85.852 54.496 87.898 50.505C87.979 50.348 88.062 50.191 88.204 50.023C88.867 53.473 89.865 56.798 91.653 59.815C90.741 60.694 89.838 61.491 89.021 62.369C87.222 64.303 85.662 66.403 84.848 68.964C84.498 70.068 84.229 71.19 84.385 72.369C84.627 74.2 86.127 75.39 87.928 74.973C91.782 74.081 95.109 72.265 97.54 69.048C99.176 66.882 99.325 64.466 98.64 61.935C98.452 61.247 98.229 60.57 97.989 59.781C98.94 59.486 99.867 59.132 100.826 58.913C105.805 57.777 110.73 57.975 115.528 59.773C118.329 60.823 120.592 62.58 121.934 65.344C123.573 68.723 122.667 71.929 119.482 74.065C119.185 74.264 118.845 74.421 118.599 74.67C118.448 74.823 118.357 75.129 118.394 75.34C118.415 75.463 118.74 75.617 118.927 75.615C119.974 75.607 120.823 75.058 121.638 74.494C123.68 73.081 125.17 71.18 125.491 68.677L125.554 68.489L125.477 66.859C125.446 66.765 125.5 66.672 125.493 66.601C125.059 62.956 123.112 60.129 120.28 57.913C117 55.348 113.127 54.292 109.031 54.125C105.693 53.989 102.412 54.485 99.266 55.628C98.369 55.953 97.48 56.338 96.578 56.701C96.457 56.482 96.327 56.272 96.22 56.055C95.294 54.159 94.172 52.347 93.924 50.173C93.748 48.629 93.532 47.087 93.899 45.56C94.252 44.091 94.712 42.647 95.145 41.198C95.368 40.452 95.211 40.034 94.499 39.698C94.251 39.581 93.981 39.479 93.713 39.44C91.963 39.186 90.237 39.331 88.542 39.824C87.942 39.999 87.506 40.335 87.373 40.999C87.297 41.38 87.142 41.745 87.034 42.121C86.591 43.684 86.277 45.277 85.561 46.766C83.767 50.501 81.719 54.095 79.623 57.663C79.396 58.048 79.157 58.426 78.871 58.893C78.135 57.353 77.35 55.971 77.112 54.351C76.843 52.519 76.631 50.69 77.087 48.872C77.426 47.516 77.869 46.185 78.277 44.847C78.47 44.211 78.381 43.877 77.805 43.542C77.514 43.373 77.185 43.223 76.857 43.174C75.042 42.905 73.254 43.046 71.503 43.612C70.96 43.788 70.675 44.139 70.509 44.699C70.021 46.351 69.605 48.043 68.92 49.614C66.146 55.974 63.292 62.301 60.441 68.627C59.846 69.948 59.149 71.223 58.478 72.509C58.308 72.835 58.06 73.122 57.848 73.428C57.678 73.227 57.612 73.089 57.613 72.951C57.618 72.138 57.521 71.301 57.676 70.515C58.145 68.137 58.685 65.772 59.254 63.416C59.724 61.47 60.271 59.542 60.792 57.609C60.967 56.962 60.97 56.357 60.505 55.813C59.724 54.902 58.092 54.702 57.124 55.404L56.696 55.646L56.779 54.956C56.983 53.477 57.024 52.003 56.618 50.546C56.112 48.73 54.816 47.685 52.932 47.743C52.054 47.77 51.132 47.92 50.319 48.24C46.9 49.58 44.271 51.953 42.033 54.808C41.83 55.067 41.562 55.303 41.276 55.462C38.383 57.066 35.481 58.65 32.58 60.24L29.351 62.009C28.485 61.183 27.698 60.326 26.805 59.599C24.078 57.375 21.307 55.206 18.561 53.007C16.127 51.058 13.769 49.028 11.965 46.447C10.623 44.527 9.758 42.426 9.675 40.052C9.57 37.027 10.428 34.263 11.968 31.69C13.938 28.398 16.625 25.756 19.579 23.363C22.704 20.833 26.084 18.685 29.587 16.724C34.488 13.981 39.529 11.553 44.934 9.95C50.476 8.306 56.099 7.365 61.899 8.021C64.179 8.279 66.393 8.801 68.426 9.916C69.983 10.769 71.26 11.886 71.854 13.632C72.44 15.35 72.422 17.091 72.016 18.836C71.191 22.37 69.256 25.283 66.821 27.886C62.827 32.153 57.955 35.058 52.47 36.977C49.305 38.084 46.049 38.779 42.705 39.06C39.976 39.289 37.304 39.047 34.72 38.098C33.009 37.469 31.519 36.507 30.321 35.111C30.107 34.861 29.833 34.59 29.434 34.824C29.043 35.054 28.974 35.426 29.105 35.803C29.324 36.429 29.526 37.081 29.867 37.641C30.724 39.046 31.974 40.065 33.35 40.939C35.993 42.62 38.947 43.185 42.01 43.316C46.658 43.517 51.193 42.823 55.664 41.576C62.047 39.796 67.597 36.652 72.048 31.692C75.754 27.562 78.401 22.901 78.968 17.273C79.245 14.526 78.95 11.835 77.664 9.329C76.269 6.614 74.051 4.595 71.399 3.204C67.537 1.179 63.369 0 59.067 0H54.757C49.547 0 44.51 1.493 39.614 3.274C35.908 4.623 32.274 6.215 28.746 7.977C21.063 11.816 13.908 16.445 8.031 22.81C5.103 25.981 2.624 29.48 1.198 33.6C0.781 34.806 0.385 36.099 0.087 37.346L0 39.156ZM27.926 73.359C27.593 77.818 25.572 81.433 22.269 84.361C20.411 86.007 18.28 87.179 15.798 87.591C14.898 87.74 13.977 87.776 13.104 87.403C11.859 86.871 11.58 85.766 11.556 84.589C11.519 82.713 12.176 81.017 13.077 79.403C14.253 77.299 15.977 75.695 17.818 74.197C20.718 71.836 23.864 69.838 27.086 67.952L27.329 67.852C27.827 69.692 28.064 71.509 27.926 73.359ZM53.084 53.98C52.849 55.404 52.555 56.829 52.139 58.209C50.701 62.986 48.854 67.615 46.857 72.182C46.488 73.027 45.951 73.798 45.484 74.599C45.412 74.723 45.305 74.83 45.201 74.933C44.623 75.504 44.075 75.474 43.783 74.727C43.443 73.859 43.234 72.93 43.054 72.011C42.933 71.394 42.962 70.746 42.924 70.114C42.963 65.62 44.334 61.536 46.66 57.734C47.619 56.166 48.663 54.672 50.258 53.68C50.748 53.375 51.298 53.13 51.853 52.974C52.703 52.735 53.225 53.128 53.084 53.98ZM70.248 75.848L76.417 68.645C76.674 71.32 72.127 76.66 70.248 75.848ZM89.951 71.001C89.515 71.251 89.04 71.431 88.593 71.662C88.184 71.874 88.049 71.66 88.037 71.308C88.029 71.069 88.064 70.819 88.13 70.587C88.963 67.649 90.496 65.141 92.777 63.101L92.937 63.019C94.022 66.054 92.768 69.387 89.951 71.001Z" fill="#CB6699"/>
</svg>
