<svg width="55" height="55" viewBox="0 0 55 55" fill="none" xmlns="http://www.w3.org/2000/svg">
<path d="M29.3425 31.4033L31.0295 28.5622L26.4378 23.9705L23.5967 25.6575C22.8508 25.2639 22.0645 24.9391 21.2506 24.6881L20.4334 21.4844H13.9408L13.1244 24.689C12.3105 24.9399 11.5242 25.2648 10.7783 25.6584L7.93719 23.9714L3.34555 28.563L5.0325 31.4041C4.63891 32.1501 4.31406 32.9364 4.06313 33.7502L0.859375 34.5666V41.0592L4.06398 41.8756C4.31492 42.6895 4.63977 43.4758 5.03336 44.2217L3.34641 47.0628L7.93805 51.6545L10.7791 49.9675C11.5251 50.3611 12.3114 50.6859 13.1252 50.9369L13.9416 54.1406H20.4342L21.2506 50.936C22.0645 50.6851 22.8508 50.3602 23.5967 49.9666L26.4378 51.6536L31.0295 47.062L29.3425 44.2209C29.7361 43.4749 30.0609 42.6886 30.3119 41.8748L33.5156 41.0584V34.5658L30.311 33.7494C30.0601 32.9355 29.7361 32.1492 29.3425 31.4033ZM31.7969 39.7229L28.9231 40.4559L28.7925 40.9406C28.5209 41.9521 28.1222 42.9172 27.6074 43.8084L27.3565 44.2441L28.869 46.793L26.1671 49.4948L23.6182 47.9823L23.1825 48.2333C22.2913 48.748 21.3263 49.1459 20.3148 49.4184L19.8301 49.549L19.0979 52.4219H15.278L14.5449 49.5481L14.0602 49.4175C13.0487 49.1459 12.0837 48.7472 11.1925 48.2324L10.7568 47.9815L8.20789 49.494L5.50602 46.7921L7.01852 44.2432L6.76758 43.8075C6.25281 42.9163 5.85492 41.9513 5.5825 40.9398L5.45187 40.4551L2.57812 39.7229V35.903L5.45187 35.1699L5.5825 34.6852C5.85406 33.6737 6.25281 32.7087 6.76758 31.8175L7.01852 31.3818L5.50602 28.8329L8.20789 26.131L10.7568 27.6435L11.1925 27.3926C12.0837 26.8778 13.0487 26.4799 14.0602 26.2075L14.5449 26.0769L15.2771 23.2031H19.097L19.8301 26.0769L20.3148 26.2075C21.3263 26.4791 22.2913 26.8778 23.1825 27.3926L23.6182 27.6435L26.1671 26.131L28.869 28.8329L27.3565 31.3818L27.6074 31.8175C28.1222 32.7087 28.5201 33.6737 28.7925 34.6852L28.9231 35.1699L31.7969 35.9021V39.7229Z" fill="white"/>
<path d="M51.5625 7.73438H30.9375C29.5161 7.73438 28.3594 8.89109 28.3594 10.3125V22.3438C28.3594 23.7652 29.5161 24.9219 30.9375 24.9219H32.6562V28.8905L40.5934 24.9219H51.5625C52.9839 24.9219 54.1406 23.7652 54.1406 22.3438V10.3125C54.1406 8.89109 52.9839 7.73438 51.5625 7.73438ZM52.4219 22.3438C52.4219 22.8181 52.0369 23.2031 51.5625 23.2031H40.1878L34.375 26.1095V23.2031H30.9375C30.4631 23.2031 30.0781 22.8181 30.0781 22.3438V10.3125C30.0781 9.83812 30.4631 9.45312 30.9375 9.45312H51.5625C52.0369 9.45312 52.4219 9.83812 52.4219 10.3125V22.3438Z" fill="white"/>
<path d="M3.4375 16.3281H11.7932L17.1875 19.5654V16.3281H24.0625C25.4839 16.3281 26.6406 15.1714 26.6406 13.75V3.4375C26.6406 2.01609 25.4839 0.859375 24.0625 0.859375H3.4375C2.01609 0.859375 0.859375 2.01609 0.859375 3.4375V13.75C0.859375 15.1714 2.01609 16.3281 3.4375 16.3281ZM2.57812 3.4375C2.57812 2.96313 2.96312 2.57813 3.4375 2.57813H24.0625C24.5369 2.57813 24.9219 2.96313 24.9219 3.4375V13.75C24.9219 14.2244 24.5369 14.6094 24.0625 14.6094H15.4688V16.5284L12.2693 14.6094H3.4375C2.96312 14.6094 2.57812 14.2244 2.57812 13.75V3.4375Z" fill="white"/>
<path d="M48.9844 19.7656H47.2656V12.8906H45.5469V19.7656H43.8281V11.1719H42.1094V19.7656H40.3906V14.6094H38.6719V19.7656H36.9531V16.3281H35.2344V19.7656H33.5156V21.4844H50.7031V11.1719H48.9844V19.7656Z" fill="white"/>
<path d="M6.875 11.1719C8.29641 11.1719 9.45312 10.0152 9.45312 8.59375C9.45312 7.17234 8.29641 6.01562 6.875 6.01562C5.45359 6.01562 4.29688 7.17234 4.29688 8.59375C4.29688 10.0152 5.45359 11.1719 6.875 11.1719ZM6.875 7.73438C7.34938 7.73438 7.73438 8.11937 7.73438 8.59375C7.73438 9.06813 7.34938 9.45312 6.875 9.45312C6.40062 9.45312 6.01562 9.06813 6.01562 8.59375C6.01562 8.11937 6.40062 7.73438 6.875 7.73438Z" fill="white"/>
<path d="M13.75 11.1719C15.1714 11.1719 16.3281 10.0152 16.3281 8.59375C16.3281 7.17234 15.1714 6.01562 13.75 6.01562C12.3286 6.01562 11.1719 7.17234 11.1719 8.59375C11.1719 10.0152 12.3286 11.1719 13.75 11.1719ZM13.75 7.73438C14.2244 7.73438 14.6094 8.11937 14.6094 8.59375C14.6094 9.06813 14.2244 9.45312 13.75 9.45312C13.2756 9.45312 12.8906 9.06813 12.8906 8.59375C12.8906 8.11937 13.2756 7.73438 13.75 7.73438Z" fill="white"/>
<path d="M20.625 11.1719C22.0464 11.1719 23.2031 10.0152 23.2031 8.59375C23.2031 7.17234 22.0464 6.01562 20.625 6.01562C19.2036 6.01562 18.0469 7.17234 18.0469 8.59375C18.0469 10.0152 19.2036 11.1719 20.625 11.1719ZM20.625 7.73438C21.0994 7.73438 21.4844 8.11937 21.4844 8.59375C21.4844 9.06813 21.0994 9.45312 20.625 9.45312C20.1506 9.45312 19.7656 9.06813 19.7656 8.59375C19.7656 8.11937 20.1506 7.73438 20.625 7.73438Z" fill="white"/>
<path d="M44.6875 35.2344C43.0066 35.2344 41.3609 35.6847 39.9068 36.5406L34.7248 35.9253L36.4676 40.0331C35.6589 41.4562 35.2344 43.0555 35.2344 44.6875C35.2344 49.8996 39.4754 54.1406 44.6875 54.1406C49.8996 54.1406 54.1407 49.8996 54.1407 44.6875C54.1407 39.4754 49.8996 35.2344 44.6875 35.2344ZM39.8364 50.7031H49.5378C48.2101 51.7756 46.5232 52.4219 44.6867 52.4219C42.8502 52.4219 41.1649 51.7756 39.8364 50.7031ZM43.5446 45.0991C43.1733 44.7648 42.9688 44.3128 42.9688 43.8281V42.2555C42.9688 41.2749 43.6984 40.4405 44.5939 40.3932C45.0648 40.3657 45.5254 40.5341 45.8709 40.8633C46.2155 41.1916 46.4063 41.6333 46.4063 42.1094V43.8281C46.4063 44.3128 46.2017 44.7648 45.8305 45.0991L45.5469 45.3552V46.9373L47.9222 48.125C48.3046 48.3158 48.602 48.6191 48.7842 48.9844H40.5917C40.7739 48.6191 41.0721 48.3158 41.4537 48.125L43.8282 46.9373V45.3552L43.5446 45.0991ZM50.6834 49.5645C50.5871 48.2909 49.8472 47.1659 48.6905 46.5876L47.3903 45.9379C47.8621 45.3363 48.125 44.593 48.125 43.8281V42.1094C48.125 41.1709 47.7349 40.2626 47.0542 39.6163C46.3633 38.9615 45.4696 38.6418 44.5036 38.6762C42.6792 38.7716 41.25 40.3442 41.25 42.2555V43.8281C41.25 44.593 41.513 45.3363 41.9839 45.9379L40.6837 46.5876C39.527 47.1659 38.7871 48.2909 38.6908 49.5645C37.6063 48.2324 36.9532 46.5352 36.9532 44.6875C36.9532 43.23 37.3682 41.8026 38.1546 40.5599L38.3952 40.1792L37.4628 37.9809L40.3013 38.3187L40.5599 38.1554C41.8026 37.3682 43.23 36.9531 44.6875 36.9531C48.9526 36.9531 52.4219 40.4224 52.4219 44.6875C52.4219 46.5352 51.7688 48.2324 50.6834 49.5645Z" fill="white"/>
</svg>
