<svg width="40" height="40" viewBox="0 0 40 40" fill="none" xmlns="http://www.w3.org/2000/svg">
<g clip-path="url(#clip0)">
<path d="M21.6171 30.6684L13.7889 38.4731C13.5546 38.6138 13.25 38.9654 12.6171 38.7778C12.289 38.6606 11.8905 38.2856 11.8203 37.8638V37.8403L9.57019 24.3872L11.3984 23.0045C11.6351 23.1433 16.1526 25.7923 15.8749 25.6295L21.6171 29.0045C22.0624 29.4731 22.0624 30.1997 21.6171 30.6684Z" fill="#009AE4"/>
<path d="M39.9772 2.57533L32.8672 37.8872C32.7969 38.2622 32.5156 38.5903 32.1406 38.731C32 38.8013 31.8594 38.8247 31.7188 38.8247C31.4844 38.8247 31.25 38.7544 31.0391 38.6138C30.8033 38.4453 13.5343 26.1103 14.6328 26.895C4.17656 21.7153 9.6307 24.4378 0.65625 19.9575C0.234375 19.7466 0 19.3247 0 18.8794C0.0234375 18.4106 0.28125 18.0122 0.703125 17.8247L38.36 1.26282C38.7584 1.09876 39.2272 1.14564 39.5553 1.42689C39.6022 1.47376 39.6725 1.54407 39.7194 1.59095C39.9538 1.8722 40.0475 2.22376 39.9772 2.57533Z" fill="#25D9F8"/>
<path d="M39.7194 1.59097L15.875 25.6294L14.6329 26.895L12.6172 38.7778C12.2891 38.6606 11.8906 38.2855 11.8204 37.8637V37.8403L9.57031 24.3871L11.3985 23.0044L39.7194 1.59097Z" fill="#00C0F1"/>
</g>
<defs>
<clipPath id="clip0">
<rect width="40" height="40" fill="white"/>
</clipPath>
</defs>
</svg>
