<svg width="109" height="100" viewBox="0 0 109 100" fill="none" xmlns="http://www.w3.org/2000/svg">
<path d="M99.8798 76.6406L56.4075 99.2188V81.6328L83.4531 67.9688L99.8798 76.6406ZM102.86 74.1719V26.9922L86.953 35.4297V65.75L102.852 74.1641L102.86 74.1719ZM9.12024 76.6406L52.5499 99.2031V81.6328L25.4958 67.9688L9.12024 76.6406ZM6.13977 74.1719V26.9922L22.047 35.4297V65.75L6.13977 74.1719ZM8.00469 23.9375L52.5925 0.78125V17.7812L24.0226 32.1953L23.7927 32.3125L8.00469 23.9375ZM100.978 23.9375L56.4075 0.78125V17.7812L84.9774 32.1875L85.2073 32.3047L100.995 23.9375H100.978Z" fill="#8ED6FB"/>
<path d="M52.5925 77.6328L25.8619 64.1406V37.4375L52.5925 51.5625V77.6328ZM56.4075 77.6328L83.138 64.1563V37.4375L56.4075 51.5625V77.6328ZM27.6758 34.375L54.5 20.8281L81.3242 34.375L54.5 48.5625L27.6758 34.375Z" fill="#1C78C0"/>
</svg>
