<svg width="100" height="85" viewBox="0 0 100 85" fill="none" xmlns="http://www.w3.org/2000/svg">
<path d="M96.875 21.25C96.875 19.6398 96.2165 18.0955 95.0444 16.9569C93.8723 15.8183 92.2826 15.1786 90.625 15.1786H3.125V75.8929C3.125 77.5031 3.78348 79.0474 4.95558 80.186C6.12768 81.3246 7.7174 81.9643 9.375 81.9643H90.625C92.2826 81.9643 93.8723 81.3246 95.0444 80.186C96.2165 79.0474 96.875 77.5031 96.875 75.8929V21.25Z" fill="#2E001F"/>
<path d="M43.2333 47.9764L51.4 63.2198C51.5458 63.4464 51.4583 63.6731 51.225 63.6731H46.15C46.0199 63.6894 45.8879 63.6617 45.7764 63.5946C45.6648 63.5276 45.5805 63.4252 45.5375 63.3048C43.6708 59.5648 41.7875 55.8248 39.8208 51.8014H39.7625C38.0125 55.5981 36.0875 59.5931 34.2208 63.3331C34.1744 63.4293 34.0998 63.5101 34.0065 63.5655C33.9132 63.6209 33.8051 63.6485 33.6958 63.6448H28.8833C28.5917 63.6448 28.5625 63.4181 28.7083 63.24L36.7 48.45L28.9708 33.4738C28.9328 33.442 28.9061 33.3993 28.8946 33.3518C28.8831 33.3043 28.8873 33.2546 28.9068 33.2096C28.9262 33.1646 28.9598 33.1268 29.0028 33.1016C29.0457 33.0763 29.0958 33.0649 29.1458 33.069H34.1667C34.2784 33.0485 34.394 33.069 34.491 33.1266C34.588 33.1842 34.6595 33.2748 34.6917 33.3807C36.5292 37.1207 38.3958 40.974 40.1458 44.7424H40.2042C41.8958 41.0024 43.7625 37.1207 45.5708 33.409C45.7167 33.1824 45.8042 33.0407 46.0958 33.0407H50.7917C51.025 33.0407 51.1125 33.2107 50.9667 33.4455L43.2333 47.9764Z" fill="#FFD9F2"/>
<path d="M52.8292 52.5948C52.8292 45.9931 57.3501 40.8567 64.5251 40.8567C65.0313 40.8467 65.5377 40.8656 66.0417 40.9133V33.3848C66.0417 33.3096 66.0725 33.2376 66.1272 33.1844C66.1819 33.1313 66.256 33.1014 66.3334 33.1014H70.9417C71.1751 33.1014 71.2334 33.1864 71.2334 33.3281V59.3381C71.2162 60.2658 71.265 61.1936 71.3792 62.1148C71.3792 62.2848 71.3209 62.3414 71.1459 62.4264C68.8137 63.5067 66.2629 64.0681 63.6792 64.0698C57.3501 64.0981 52.8292 60.3095 52.8292 52.5948ZM66.0417 45.3333C65.5024 45.1322 64.9276 45.036 64.3501 45.05C60.6751 45.05 58.1001 47.7983 58.1001 52.36C58.1001 57.5733 60.7251 59.67 64.0209 59.67C64.7058 59.6887 65.3884 59.583 66.0334 59.3583L66.0417 45.3333Z" fill="#FFD9F2"/>
<path d="M90.625 12.1429H57.3458C57.1403 12.1488 56.9359 12.1114 56.7467 12.0331C56.5575 11.9549 56.388 11.8376 56.25 11.6895L46.5625 2.27881C45.8565 1.56064 45.0082 0.988556 44.0688 0.596947C43.1294 0.205338 42.1181 0.0022877 41.0958 0L9.375 0C6.89096 0.0074725 4.51086 0.969372 2.75437 2.67568C0.997883 4.38198 0.00769228 6.69408 0 9.10714V75.8929C0.00769228 78.3059 0.997883 80.618 2.75437 82.3243C4.51086 84.0306 6.89096 84.9925 9.375 85H90.625C93.109 84.9925 95.4891 84.0306 97.2456 82.3243C99.0021 80.618 99.9923 78.3059 100 75.8929V21.25C99.9923 18.8369 99.0021 16.5248 97.2456 14.8185C95.4891 13.1122 93.109 12.1503 90.625 12.1429ZM96.875 75.8929C96.875 77.5031 96.2165 79.0474 95.0444 80.186C93.8723 81.3246 92.2826 81.9643 90.625 81.9643H9.375C7.7174 81.9643 6.12769 81.3246 4.95558 80.186C3.78348 79.0474 3.125 77.5031 3.125 75.8929V15.1786H90.625C92.2826 15.1786 93.8723 15.8182 95.0444 16.9569C96.2165 18.0955 96.875 19.6398 96.875 21.25V75.8929Z" fill="#FF26BE"/>
</svg>
