<svg display="none" xmlns="http://www.w3.org/2000/svg">
  <symbol id="search" viewBox="0 0 512 512">
    <g>
      <path d="M344.5,298c15-23.6,23.8-51.6,23.8-81.7c0-84.1-68.1-152.3-152.1-152.3C132.1,64,64,132.2,64,216.3  c0,84.1,68.1,152.3,152.1,152.3c30.5,0,58.9-9,82.7-24.4l6.9-4.8L414.3,448l33.7-34.3L339.5,305.1L344.5,298z M301.4,131.2  c22.7,22.7,35.2,52.9,35.2,85c0,32.1-12.5,62.3-35.2,85c-22.7,22.7-52.9,35.2-85,35.2c-32.1,0-62.3-12.5-85-35.2  c-22.7-22.7-35.2-52.9-35.2-85c0-32.1,12.5-62.3,35.2-85c22.7-22.7,52.9-35.2,85-35.2C248.5,96,278.7,108.5,301.4,131.2z"/>
    </g>
  </symbol>
  <symbol id="bookmark" viewBox="0 0 423.936 423.936">
    <g>
      <path d="M327.68,0H96.256c-22.528,0-40.96,18.432-40.96,40.96v357.376c0,9.728,5.632,18.944,14.336,23.04
        c9.216,4.096,19.456,3.072,27.136-3.072l0.512-0.512l114.688-96.768l114.688,96.768l0.512,0.512
        c4.608,3.584,10.24,5.632,15.872,5.632c3.584,0,7.68-1.024,11.264-3.072c8.704-4.096,14.336-13.312,14.336-23.04V40.96
        C368.64,18.432,350.208,0,327.68,0z"/>
    </g>
  </symbol>
  <symbol id="cart" viewBox="0 -31 512.00033 512">
    <g>
      <path d="m166 300.003906h271.003906c6.710938 0 12.597656-4.4375 14.414063-10.882812l60.003906-210.003906c1.289063-4.527344.40625-9.390626-2.433594-13.152344-2.84375-3.75-7.265625-5.964844-11.984375-5.964844h-365.632812l-10.722656-48.25c-1.523438-6.871094-7.617188-11.75-14.648438-11.75h-91c-8.289062 0-15 6.710938-15 15 0 8.292969 6.710938 15 15 15h78.960938l54.167968 243.75c-15.9375 6.929688-27.128906 22.792969-27.128906 41.253906 0 24.8125 20.1875 45 45 45h271.003906c8.292969 0 15-6.707031 15-15 0-8.289062-6.707031-15-15-15h-271.003906c-8.261719 0-15-6.722656-15-15s6.738281-15 15-15zm0 0"/>
      <path d="m151 405.003906c0 24.816406 20.1875 45 45.003906 45 24.8125 0 45-20.183594 45-45 0-24.8125-20.1875-45-45-45-24.816406 0-45.003906 20.1875-45.003906 45zm0 0"/>
      <path d="m362.003906 405.003906c0 24.816406 20.1875 45 45 45 24.816406 0 45-20.183594 45-45 0-24.8125-20.183594-45-45-45-24.8125 0-45 20.1875-45 45zm0 0"/>
    </g>
  </symbol>
  <symbol id="login" viewBox="0 0 512 512">
    <g id="Solid">
      <path d="m260.52 329.539a24 24 0 0 0 33.941 33.941l90.51-90.51a24 24 0 0 0 0-33.941l-90.51-90.509a24 24 0 0 0 -33.941 0 24 24 0 0 0 0 33.941l49.539 49.539h-262.059a24 24 0 0 0 -24 24 24 24 0 0 0 24 24h262.059z"/>
      <path d="m448 24h-224a40 40 0 0 0 -40 40v32a24 24 0 0 0 48 0v-24h208v368h-208v-24a24 24 0 0 0 -48 0v32a40 40 0 0 0 40 40h224a40 40 0 0 0 40-40v-384a40 40 0 0 0 -40-40z"/>
    </g>
  </symbol>
  <symbol id="logout" viewBox="0 0 24 24">
    <g>
      <path d="M12 16L17 12L12 8V11H3V13H12V16Z" fill="black"/>
      <path d="M19 3H10C8.897 3 8 3.897 8 5V9H10V5H19V19H10V15H8V19C8 20.103 8.897 21 10 21H19C20.103 21 21 20.103 21 19V5C21 3.897 20.103 3 19 3Z" fill="black"/>
    </g>
  </symbol>
  <symbol id="phone" viewBox="0 0 477.156 477.156" >
    <g>
      <path d="M475.009,380.316l-2.375-7.156c-5.625-16.719-24.062-34.156-41-38.75l-62.688-17.125c-17-4.625-41.25,1.594-53.688,14.031
        l-22.688,22.688c-82.453-22.28-147.109-86.938-169.359-169.375L145.9,161.94c12.438-12.438,18.656-36.656,14.031-53.656
        l-17.094-62.719c-4.625-16.969-22.094-35.406-38.781-40.969L96.9,2.19c-16.719-5.563-40.563,0.063-53,12.5L9.962,48.659
        C3.899,54.69,0.024,71.94,0.024,72.003c-1.187,107.75,41.063,211.562,117.281,287.781
        c76.031,76.031,179.454,118.219,286.891,117.313c0.562,0,18.312-3.813,24.375-9.845l33.938-33.938
        C474.946,420.878,480.571,397.035,475.009,380.316z"/>
    </g>
  </symbol>
  <symbol id="facebook" viewBox="0 0 29 29" style="enable-background:new 0 0 42.054 42.054">
    <g>
      <path id="circle" d="M14 27.9964C21.732 27.9964 28 21.953 28 14.4982C28 7.04334 21.732 1 14 1C6.26801 1 0 7.04334 0 14.4982C0 21.953 6.26801 27.9964 14 27.9964Z"/>
      <path d="M11.8727 10.0585C11.8727 10.4487 11.8727 12.1887 11.8727 12.1887H10.2539V14.7934H11.8727V21.9327H15.1977V14.7882H17.4289C17.4289 14.7882 17.6367 13.5385 17.7406 12.1729C17.4508 12.1729 15.2141 12.1729 15.2141 12.1729C15.2141 12.1729 15.2141 10.6596 15.2141 10.3907C15.2141 10.1271 15.575 9.76853 15.9359 9.76853C16.2914 9.76853 17.0461 9.76853 17.7461 9.76853C17.7461 9.41526 17.7461 8.18671 17.7461 7.05835C16.8109 7.05835 15.75 7.05835 15.2852 7.05835C11.7906 7.06362 11.8727 9.66835 11.8727 10.0585Z" fill="white"/>
    </g>
  </symbol>
  <symbol id="instagram" viewBox="0 0 28 28">
    <g>
      <path id="circle" fill-rule="evenodd" clip-rule="evenodd" d="M0 14C0 6.26803 6.26803 0 14 0C21.732 0 28 6.26803 28 14C28 21.732 21.732 28 14 28C6.26803 28 0 21.732 0 14ZM14.0007 6.53333C11.9729 6.53333 11.7184 6.5422 10.9219 6.57842C10.127 6.61482 9.58446 6.74071 9.10968 6.92533C8.61857 7.11602 8.20202 7.37117 7.78697 7.78633C7.37164 8.20137 7.11649 8.61793 6.92516 9.10887C6.74007 9.58382 6.61407 10.1266 6.57831 10.9211C6.54267 11.7176 6.53333 11.9722 6.53333 14.0001C6.53333 16.0279 6.54237 16.2816 6.57842 17.0781C6.615 17.873 6.74082 18.4155 6.92533 18.8903C7.1162 19.3814 7.37129 19.798 7.78651 20.213C8.20137 20.6284 8.61793 20.8841 9.10875 21.0748C9.58382 21.2595 10.1265 21.3853 10.9213 21.4217C11.7178 21.458 11.9721 21.4668 13.9998 21.4668C16.0278 21.4668 16.2815 21.458 17.078 21.4217C17.8728 21.3853 18.416 21.2595 18.8911 21.0748C19.3821 20.8841 19.798 20.6284 20.2128 20.213C20.6282 19.798 20.8833 19.3814 21.0747 18.8905C21.2582 18.4155 21.3842 17.8728 21.4216 17.0782C21.4573 16.2818 21.4667 16.0279 21.4667 14.0001C21.4667 11.9722 21.4573 11.7178 21.4216 10.9213C21.3842 10.1264 21.2582 9.58382 21.0747 9.10904C20.8833 8.61793 20.6282 8.20137 20.2128 7.78633C19.7975 7.371 19.3822 7.11591 18.8907 6.92533C18.4146 6.74071 17.8718 6.61482 17.0768 6.57842C16.2804 6.5422 16.0268 6.53333 13.9984 6.53333H14.0007Z"/>
      <path fill-rule="evenodd" clip-rule="evenodd" d="M13.3308 7.87894C13.5296 7.87865 13.7515 7.87894 14.0007 7.87894C15.9943 7.87894 16.2306 7.88612 17.0178 7.92188C17.7458 7.95518 18.141 8.07681 18.4042 8.17901C18.7526 8.31434 19.0011 8.4761 19.2622 8.73743C19.5235 8.99877 19.6854 9.24768 19.821 9.59616C19.9232 9.85901 20.045 10.2542 20.0781 10.9822C20.1139 11.7692 20.1217 12.0057 20.1217 13.9984C20.1217 15.9911 20.1139 16.2275 20.0781 17.0146C20.0448 17.7426 19.9232 18.1378 19.821 18.4006C19.6857 18.7491 19.5235 18.9972 19.2622 19.2584C19.0009 19.5198 18.7528 19.6815 18.4042 19.8169C18.1413 19.9195 17.7458 20.0409 17.0178 20.0742C16.2307 20.1099 15.9943 20.1177 14.0007 20.1177C12.0069 20.1177 11.7706 20.1099 10.9835 20.0742C10.2555 20.0406 9.86034 19.9189 9.59703 19.8167C9.24854 19.6813 8.99963 19.5196 8.7383 19.2583C8.47697 18.9969 8.31521 18.7487 8.17958 18.4001C8.07738 18.1371 7.95558 17.7421 7.92245 17.0141C7.88663 16.2269 7.87952 15.9905 7.87952 13.9965C7.87952 12.0026 7.88663 11.7674 7.92245 10.9803C7.9557 10.2523 8.07738 9.85714 8.17958 9.59394C8.31492 9.24552 8.47697 8.99661 8.7383 8.73528C8.99963 8.47394 9.24854 8.31218 9.59703 8.1765C9.86023 8.07383 10.2555 7.9525 10.9835 7.91907C11.6723 7.88798 11.9392 7.87865 13.3308 7.87708V7.87894ZM17.9863 9.1187C17.4917 9.1187 17.0903 9.51962 17.0903 10.0144C17.0903 10.5091 17.4917 10.9104 17.9863 10.9104C18.481 10.9104 18.8823 10.5091 18.8823 10.0144C18.8823 9.51974 18.481 9.1187 17.9863 9.1187ZM14.0007 10.1656C11.883 10.1656 10.1662 11.8825 10.1662 14.0001C10.1662 16.1177 11.883 17.8338 14.0007 17.8338C16.1183 17.8338 17.8345 16.1177 17.8345 14.0001C17.8345 11.8825 16.1183 10.1656 14.0007 10.1656Z" fill="white"/>
      <path fill-rule="evenodd" clip-rule="evenodd" d="M14.0007 11.5112C15.3753 11.5112 16.4897 12.6255 16.4897 14.0001C16.4897 15.3746 15.3753 16.489 14.0007 16.489C12.6261 16.489 11.5118 15.3746 11.5118 14.0001C11.5118 12.6255 12.6261 11.5112 14.0007 11.5112Z" fill="white"/>
    </g>
  </symbol>
  <symbol id="vk" viewBox="0 0 112.196 112.196">
    <g>
    <g>
      <circle cx="56.098" cy="56.098" r="56.098"/>
    </g>
      <path d="M53.979,80.702h4.403c0,0,1.33-0.146,2.009-0.878   c0.625-0.672,0.605-1.934,0.605-1.934s-0.086-5.908,2.656-6.778c2.703-0.857,6.174,5.71,9.853,8.235   c2.782,1.911,4.896,1.492,4.896,1.492l9.837-0.137c0,0,5.146-0.317,2.706-4.363c-0.2-0.331-1.421-2.993-7.314-8.463   c-6.168-5.725-5.342-4.799,2.088-14.702c4.525-6.031,6.334-9.713,5.769-11.29c-0.539-1.502-3.867-1.105-3.867-1.105l-11.076,0.069   c0,0-0.821-0.112-1.43,0.252c-0.595,0.357-0.978,1.189-0.978,1.189s-1.753,4.667-4.091,8.636c-4.932,8.375-6.904,8.817-7.71,8.297   c-1.875-1.212-1.407-4.869-1.407-7.467c0-8.116,1.231-11.5-2.397-12.376c-1.204-0.291-2.09-0.483-5.169-0.514   c-3.952-0.041-7.297,0.012-9.191,0.94c-1.26,0.617-2.232,1.992-1.64,2.071c0.732,0.098,2.39,0.447,3.269,1.644   c1.135,1.544,1.095,5.012,1.095,5.012s0.652,9.554-1.523,10.741c-1.493,0.814-3.541-0.848-7.938-8.446   c-2.253-3.892-3.954-8.194-3.954-8.194s-0.328-0.804-0.913-1.234c-0.71-0.521-1.702-0.687-1.702-0.687l-10.525,0.069   c0,0-1.58,0.044-2.16,0.731c-0.516,0.611-0.041,1.875-0.041,1.875s8.24,19.278,17.57,28.993   C44.264,81.287,53.979,80.702,53.979,80.702L53.979,80.702z" fill="white"/>
    </g>
  </symbol>
  <symbol id="home" viewBox="0 0 460.298 460.297">
    <g>
      <path d="M230.149,120.939L65.986,256.274c0,0.191-0.048,0.472-0.144,0.855c-0.094,0.38-0.144,0.656-0.144,0.852v137.041
      c0,4.948,1.809,9.236,5.426,12.847c3.616,3.613,7.898,5.431,12.847,5.431h109.63V303.664h73.097v109.64h109.629
      c4.948,0,9.236-1.814,12.847-5.435c3.617-3.607,5.432-7.898,5.432-12.847V257.981c0-0.76-0.104-1.334-0.288-1.707L230.149,120.939
      z"/>
      <path d="M457.122,225.438L394.6,173.476V56.989c0-2.663-0.856-4.853-2.574-6.567c-1.704-1.712-3.894-2.568-6.563-2.568h-54.816
      c-2.666,0-4.855,0.856-6.57,2.568c-1.711,1.714-2.566,3.905-2.566,6.567v55.673l-69.662-58.245
      c-6.084-4.949-13.318-7.423-21.694-7.423c-8.375,0-15.608,2.474-21.698,7.423L3.172,225.438c-1.903,1.52-2.946,3.566-3.14,6.136
      c-0.193,2.568,0.472,4.811,1.997,6.713l17.701,21.128c1.525,1.712,3.521,2.759,5.996,3.142c2.285,0.192,4.57-0.476,6.855-1.998
      L230.149,95.817l197.57,164.741c1.526,1.328,3.521,1.991,5.996,1.991h0.858c2.471-0.376,4.463-1.43,5.996-3.138l17.703-21.125
      c1.522-1.906,2.189-4.145,1.991-6.716C460.068,229.007,459.021,226.961,457.122,225.438z"/>
    </g>
  </symbol>
  <symbol id="arrow" viewBox="0 0 129 129">
    <g>
      <path d="M88.6 121.3C89.4 122.1 90.4 122.5 91.5 122.5C92.6 122.5 93.6 122.1 94.4 121.3C96 119.7 96 117.1 94.4 115.5L43.4 64.5L94.4 13.5C96 11.9 96 9.3 94.4 7.7C92.8 6.1 90.2 6.1 88.6 7.7L34.6 61.6C33 63.2 33 65.8 34.6 67.4L88.6 121.3V121.3Z"/>
    </g>
  </symbol>
  <symbol id="filter-arrow" viewBox="0 0 320.001 320.001">
    <g>
      <path d="m295.84 146.049-256-144c-4.96-2.784-11.008-2.72-15.904.128-4.928 2.88-7.936 8.128-7.936 13.824v288c0 5.696 3.008 10.944 7.936 13.824 2.496 1.44 5.28 2.176 8.064 2.176 2.688 0 5.408-.672 7.84-2.048l256-144c5.024-2.848 8.16-8.16 8.16-13.952s-3.136-11.104-8.16-13.952z"/>
    </g>
  </symbol>
  <symbol id="check-cart" viewBox="0 0 215.434 215.434">
    <g>
      <circle xmlns="http://www.w3.org/2000/svg" fill="#54C147" cx="107.717" cy="107.717" r="106.299"/>
      <polygon xmlns="http://www.w3.org/2000/svg" fill="#FFFFFF" points="96.977,121.718 145.084,50.79 168.752,69.02 103.583,164.647 46.678,120.299 63.562,96.402  "/>
    </g>
  </symbol>
</svg>